{"glyphs":{"0":{"ha":678,"x_min":7,"x_max":672,"o":"m 25 875 q 14 902 7 882 q 35 944 21 922 l 74 1003 q 122 990 96 994 l 122 1008 q 146 1033 124 1032 q 193 1028 168 1035 q 260 1001 222 1019 l 260 975 q 282 973 271 974 q 304 972 293 972 q 429 972 367 971 q 557 976 492 974 q 628 977 599 978 q 660 974 657 976 q 645 942 660 954 q 614 921 631 929 q 620 918 617 918 q 626 917 624 918 q 631 915 629 915 q 629 726 628 821 q 635 537 631 632 q 643 346 639 442 q 650 153 647 250 q 651 134 650 143 q 651 115 651 125 q 666 113 661 114 q 672 113 671 113 q 651 75 672 89 q 649 25 650 43 q 647 4 649 7 q 621 18 632 4 q 603 53 610 32 q 586 50 589 50 q 579 49 582 49 q 335 13 457 31 q 83 -8 214 -6 q 69 15 68 -7 q 78 63 71 38 q 101 129 86 92 q 128 127 114 128 q 157 124 142 126 q 155 138 156 131 q 154 149 154 144 l 154 158 l 128 860 q 78 865 104 863 q 25 875 51 868 m 303 869 q 256 865 278 865 l 224 160 q 223 139 224 149 q 222 118 222 129 q 397 115 308 114 q 578 117 486 117 l 586 117 q 582 140 582 131 l 582 149 q 533 521 560 336 q 494 896 506 706 q 399 881 446 888 q 303 869 351 874 z "},"1":{"ha":590,"x_min":-6,"x_max":607,"o":"m 529 78 q 581 81 560 81 q 606 79 603 82 q 597 44 607 58 q 572 22 586 31 q 536 8 557 13 q 465 -8 500 0 q 394 -24 431 -17 q 393 -44 394 -43 q 369 -31 381 -44 q 256 -54 311 -44 q 142 -74 200 -64 q 130 -52 131 -74 q 132 -4 129 -31 q 144 64 136 26 q 241 63 193 63 q 338 67 289 64 q 333 85 335 76 q 332 100 332 93 q 332 114 331 107 q 326 390 326 253 q 325 665 325 526 q 211 524 267 594 q 97 382 156 454 q 38 314 63 342 q 10 286 14 286 q -3 323 -6 300 q 10 369 -1 346 q 42 426 21 396 q 184 643 114 535 q 325 863 254 751 l 325 951 q 349 975 328 975 q 394 968 369 975 q 401 980 397 975 q 408 992 406 985 q 438 995 419 1007 q 475 964 457 983 q 517 907 496 940 q 485 866 501 886 q 453 825 468 846 q 423 469 438 644 q 401 115 408 293 q 401 92 401 103 q 400 69 400 81 q 465 74 432 72 q 529 78 497 75 z "},"2":{"ha":575,"x_min":-4,"x_max":572,"o":"m 64 146 q 98 133 81 139 q 133 119 115 126 q 235 424 186 272 q 336 732 283 576 q 297 758 317 746 q 258 785 278 771 l 186 836 q 133 775 160 804 q 86 715 107 746 q 67 686 75 697 q 56 675 58 675 q 30 699 36 685 q 23 725 24 713 q 26 746 22 738 q 29 754 29 754 q 63 828 44 792 q 100 901 81 865 q 94 907 97 904 q 86 914 90 910 q 90 944 72 933 q 133 964 108 956 q 147 993 140 979 q 160 1022 153 1007 q 182 1016 164 1029 q 219 986 200 1003 l 272 939 q 267 933 269 936 q 264 928 265 931 l 331 860 q 356 835 343 847 q 383 810 369 822 q 415 796 397 807 q 449 771 433 785 q 486 736 467 756 l 478 719 q 515 683 501 699 q 529 665 529 668 q 489 647 511 646 q 450 656 467 649 q 325 376 385 517 q 201 93 265 236 q 270 68 236 82 q 339 40 304 54 l 375 28 l 390 21 q 394 19 393 21 q 398 20 397 21 q 406 25 399 19 q 440 69 422 39 q 478 131 458 99 q 528 202 503 174 q 557 232 553 231 q 569 194 572 217 q 560 151 565 172 q 553 131 557 140 q 546 114 549 121 q 539 97 542 106 q 508 28 524 63 q 465 -39 493 -7 q 431 -66 453 -54 q 382 -75 408 -78 q 358 -72 372 -75 l 339 -67 l 304 -57 q 226 -38 264 -47 q 149 -19 188 -29 q 133 -50 139 -39 q 125 -64 126 -61 q 105 -42 110 -57 q 101 -8 100 -28 q 57 3 79 -3 q 11 15 35 8 q 2 42 -4 21 q 22 87 8 64 q 50 128 36 110 q 64 146 64 146 z "},"3":{"ha":743,"x_min":-1,"x_max":743,"o":"m 10 7 q 1 31 -1 8 q 13 78 4 53 q 30 123 21 103 q 39 143 39 143 q 227 99 135 122 q 413 51 319 76 q 470 168 442 110 q 526 286 499 226 q 453 329 490 307 q 381 375 417 351 q 390 397 375 382 q 426 429 406 413 q 483 471 451 449 q 493 461 488 465 q 503 451 499 457 q 508 469 506 463 q 510 476 510 475 q 544 589 528 533 q 572 703 560 644 q 420 776 496 739 q 268 849 344 813 q 218 692 240 769 q 188 539 196 615 q 163 534 185 529 q 118 550 142 539 q 54 581 90 563 q 116 738 79 664 q 193 882 153 811 q 172 890 182 886 q 153 899 163 894 q 150 926 140 906 q 176 967 160 946 q 225 1019 196 992 q 243 1008 235 1014 q 261 999 251 1003 q 263 1001 263 1000 q 265 1004 264 1003 l 267 1006 q 292 976 288 994 q 443 880 369 929 q 590 782 517 831 q 611 885 603 831 q 637 890 615 896 q 682 872 658 883 q 724 848 706 860 q 743 836 743 836 q 719 774 732 804 q 694 711 707 743 q 726 688 724 692 q 705 669 718 674 q 676 665 692 664 q 627 554 653 610 q 572 444 601 499 q 560 423 565 433 q 550 403 554 413 q 560 393 556 399 q 572 381 565 388 q 581 402 576 392 q 592 424 586 413 q 617 422 599 433 q 654 392 635 410 q 706 342 678 371 q 667 288 688 314 q 672 283 669 285 q 678 279 675 281 q 703 251 693 264 q 713 236 713 239 q 683 217 697 221 q 656 217 668 214 q 628 228 640 219 l 626 229 q 556 130 592 179 q 485 32 521 81 q 528 17 528 18 q 512 -9 524 0 q 487 -22 500 -18 q 460 -26 474 -26 q 440 -26 447 -26 q 417 -51 419 -51 q 399 -24 403 -40 q 203 -7 300 -14 q 10 7 106 0 z "},"4":{"ha":631,"x_min":0,"x_max":626,"o":"m 15 242 q 1 265 0 243 q 8 311 1 286 q 32 378 15 340 q 58 375 44 376 q 82 372 71 374 q 137 666 108 519 q 193 961 165 813 q 219 974 199 979 q 264 958 240 969 q 324 921 290 943 q 240 642 282 781 q 157 364 199 504 q 253 356 206 360 q 347 347 300 351 q 348 402 349 375 q 344 456 347 429 q 368 465 346 465 q 416 460 390 464 q 463 449 442 456 q 483 443 483 443 q 467 338 478 390 q 497 334 482 335 q 528 332 513 333 q 596 324 568 328 q 626 318 624 319 q 608 288 624 299 q 572 272 592 278 q 524 265 550 267 q 485 263 504 264 q 447 261 467 261 q 416 147 432 201 q 388 38 400 92 q 376 -11 381 8 q 369 -33 372 -31 q 338 -17 349 -31 q 324 13 328 -3 q 320 40 319 28 q 321 53 321 53 q 328 152 324 101 q 340 254 333 203 q 232 249 286 251 q 122 244 178 247 q 108 194 114 214 q 99 172 101 175 q 74 199 81 179 q 67 243 67 219 q 41 242 54 243 q 15 242 28 242 z "},"5":{"ha":696,"x_min":3,"x_max":688,"o":"m 149 454 q 122 476 125 454 q 125 524 118 499 q 133 549 128 536 q 142 572 138 561 q 151 594 147 585 l 210 590 q 200 703 204 649 q 189 814 196 758 q 170 809 179 811 q 153 804 161 807 q 138 824 142 803 q 133 872 133 846 q 138 943 133 903 q 154 944 146 943 q 171 946 163 944 q 169 951 169 947 q 185 964 169 961 q 222 966 201 967 q 265 962 243 965 q 300 957 288 958 q 526 978 413 965 q 601 983 592 986 q 594 949 604 963 q 571 926 583 935 q 536 910 556 917 q 422 876 479 892 q 307 846 365 861 q 300 716 304 779 q 293 589 296 653 l 372 585 l 688 569 l 524 107 q 534 109 529 108 q 546 111 539 110 q 561 90 560 111 q 560 42 563 68 q 547 -28 556 11 q 510 -28 529 -28 q 474 -29 492 -29 q 456 -76 463 -58 q 446 -97 449 -94 q 426 -74 431 -92 q 421 -32 421 -56 q 258 -37 339 -35 q 93 -43 176 -40 q 31 -45 57 -46 q 4 -42 6 -44 q 16 -8 3 -22 q 46 13 29 6 q 89 26 64 21 q 265 61 178 44 q 443 93 353 78 l 497 300 l 526 408 q 533 431 532 424 q 536 446 533 439 l 540 471 l 510 469 l 497 467 l 490 467 l 478 465 l 367 463 q 326 461 346 461 q 285 460 306 461 q 281 432 282 436 q 255 440 265 432 q 236 457 244 447 q 192 456 214 457 q 149 454 169 456 z "},"6":{"ha":794,"x_min":1,"x_max":790,"o":"m 86 444 q 109 443 99 443 q 131 442 119 443 q 139 701 138 572 q 133 958 140 829 q 157 984 135 982 q 206 979 179 986 q 275 954 236 972 q 259 694 271 824 q 229 436 247 565 q 403 428 317 432 q 579 421 490 425 q 579 476 578 453 q 582 501 581 499 q 616 488 603 501 q 636 460 629 475 q 649 419 644 442 q 650 418 649 418 q 663 417 657 417 q 676 415 669 417 q 756 409 724 413 q 790 403 788 406 q 770 370 788 382 q 731 353 753 358 q 674 346 706 347 q 661 344 665 346 q 685 163 676 254 q 692 -25 694 71 q 667 -35 689 -37 q 621 -24 646 -32 q 575 -8 596 -17 q 554 0 554 0 l 554 3 q 528 -3 539 -1 q 518 -3 518 -4 q 391 -10 454 -8 q 265 -17 328 -11 q 206 -22 235 -19 q 150 -32 178 -25 q 143 -53 146 -46 q 124 -39 133 -49 q 36 -67 81 -47 q 17 -49 25 -69 q 6 -1 8 -28 q 1 47 1 24 l 1 71 q 53 81 28 78 q 106 88 79 85 q 106 99 106 94 q 107 108 107 104 q 108 117 107 114 q 117 212 113 165 q 124 307 121 258 q 101 305 113 306 q 78 304 89 304 q 60 327 61 306 q 66 375 60 349 q 79 423 72 401 q 86 444 86 444 m 579 339 q 396 326 488 332 q 211 313 304 319 q 178 108 196 210 q 175 92 175 97 q 224 91 200 92 q 271 89 247 90 q 399 78 338 85 q 521 67 460 71 q 542 66 532 67 q 563 64 553 65 q 576 200 572 132 q 579 339 579 268 z "},"7":{"ha":588,"x_min":-197,"x_max":578,"o":"m -168 896 q -175 907 -171 903 q -182 918 -179 911 q -196 951 -197 947 q -162 965 -176 963 q -139 964 -149 967 q -133 975 -136 971 q -128 983 -131 979 q -124 992 -125 988 q 5 971 -61 976 q 140 964 71 965 q 278 965 208 963 q 419 969 349 968 q 442 1008 431 989 q 467 1047 454 1028 q 503 1058 483 1069 q 539 1025 522 1047 q 554 1003 547 1014 q 567 983 561 993 q 578 963 572 972 q 460 774 511 875 q 361 567 408 672 l 293 410 q 327 417 310 413 q 363 426 344 422 q 398 434 383 432 q 414 435 413 436 q 413 400 418 414 q 401 376 408 386 q 379 358 393 365 q 313 322 346 340 q 244 288 279 304 q 217 213 229 250 q 196 138 206 175 q 167 20 176 67 q 156 -31 158 -26 q 126 1 135 -28 q 118 64 118 29 q 118 97 117 81 q 122 126 119 114 q 126 154 125 142 q 137 202 132 178 q 149 250 142 226 q 133 245 140 247 q 119 242 126 243 q 110 263 111 242 q 110 311 108 285 q 114 359 111 338 q 115 381 117 381 q 188 389 153 383 l 264 607 q 317 751 289 679 q 379 893 346 822 q 203 867 292 881 q 21 850 114 853 q 29 844 25 847 q 38 839 33 842 q 24 821 40 835 q -14 792 7 807 q -72 751 -39 774 q -110 803 -92 776 q -143 854 -128 829 q -157 856 -153 854 q -170 869 -168 858 q -168 896 -172 881 z "},"8":{"ha":644,"x_min":1,"x_max":642,"o":"m 129 435 q 163 476 146 456 q 196 515 179 496 q 133 593 161 553 q 78 678 104 633 q 71 704 71 692 q 72 718 71 714 q 76 732 74 724 q 81 740 79 736 q 83 746 82 743 q 91 758 88 753 q 97 768 94 764 q 110 788 104 778 q 122 806 115 797 q 148 840 135 824 q 175 874 161 857 q 229 940 201 907 q 286 1004 257 972 q 331 1016 313 1029 q 360 978 349 1003 q 360 976 360 976 q 361 974 361 975 q 413 946 383 967 q 468 901 442 925 q 531 842 499 875 l 608 761 q 611 749 614 758 q 610 742 610 746 q 608 733 610 738 q 603 719 606 726 q 599 706 601 713 q 578 654 590 681 q 522 558 553 606 q 446 472 492 511 q 443 469 444 469 q 440 467 442 468 q 455 461 447 464 q 471 454 463 458 q 513 433 493 444 q 547 413 532 422 q 579 390 564 401 q 608 369 594 379 q 638 346 622 358 q 641 322 642 335 q 638 297 640 308 q 631 273 635 285 q 624 250 628 261 q 588 160 610 207 q 565 117 576 138 q 543 74 554 96 l 519 32 q 505 7 514 21 q 489 -19 496 -7 l 442 -24 l 407 -26 l 338 -35 l 303 -36 q 281 -37 294 -37 q 256 -31 267 -36 q 217 -11 233 -22 q 186 11 201 0 q 132 65 156 36 q 88 124 108 93 q 67 154 76 139 q 49 185 57 169 l 39 201 l 26 225 q 1 279 11 251 l 49 335 l 75 369 l 129 435 m 271 786 q 244 757 257 772 q 219 726 232 742 q 200 703 211 714 q 240 638 219 669 q 285 581 261 607 q 307 554 300 571 q 330 536 319 543 q 347 529 340 529 q 360 531 347 526 q 388 547 372 535 q 450 610 421 571 q 503 692 479 649 q 525 733 515 710 l 526 739 l 481 793 q 427 855 451 826 q 383 907 403 883 l 383 904 q 327 847 356 876 q 271 786 299 817 m 169 286 l 144 257 l 153 240 q 169 211 161 225 q 185 183 176 197 q 220 134 201 157 q 258 92 239 111 q 278 76 268 83 q 296 65 289 68 l 301 65 l 333 67 l 403 71 l 438 72 l 468 121 q 492 160 481 140 q 514 200 503 179 q 535 239 525 219 q 551 278 544 258 q 563 313 560 297 l 563 314 l 539 333 q 465 390 500 365 q 404 429 431 414 q 395 433 399 432 q 388 436 392 433 q 358 428 374 431 q 325 429 342 426 q 315 432 319 431 q 307 435 311 433 q 267 392 288 414 q 225 347 246 369 l 169 286 z "},"9":{"ha":601,"x_min":-60,"x_max":557,"o":"m 13 625 q 6 696 10 661 q -1 764 3 731 q -22 868 -10 817 q -57 960 -35 919 q -40 978 -60 969 q 6 992 -19 986 q 31 996 18 994 q 54 999 43 997 q 76 1000 67 1000 q 93 931 86 968 q 104 935 101 933 q 110 936 107 936 q 241 969 176 950 q 375 1008 306 989 q 401 1028 379 1026 q 449 1022 424 1029 q 513 1000 478 1015 l 513 611 q 544 606 532 608 q 557 601 556 603 q 541 572 554 582 q 513 557 528 561 q 509 355 511 456 q 503 151 507 254 q 490 33 499 81 q 483 -7 488 10 q 475 -29 478 -24 q 460 -13 465 -25 q 451 11 456 -1 q 439 71 443 39 q 435 101 436 86 q 433 126 433 115 q 433 151 432 140 q 424 349 429 251 q 411 544 418 446 q 247 528 328 539 q 85 501 165 518 q 79 458 82 465 q 51 469 63 460 q 33 490 40 478 q 22 488 28 489 q 10 485 15 488 q -8 506 -4 483 q -10 554 -11 528 q -3 625 -8 585 l 13 625 m 100 867 q 103 815 103 840 q 103 763 103 789 q 94 631 100 694 q 251 631 174 633 q 404 622 328 629 q 394 753 399 689 q 383 883 390 818 q 382 874 382 879 l 382 871 q 248 866 315 869 q 107 867 181 863 l 100 867 z "},"@":{"ha":1251,"x_min":113,"x_max":1131,"o":"m 1128 164 q 1118 147 1131 158 q 1083 119 1106 135 q 1032 84 1061 103 q 971 49 1003 65 q 908 17 939 32 q 851 -8 876 3 q 810 -24 826 -18 q 794 -29 794 -29 q 607 -80 703 -61 q 411 -86 511 -99 q 315 -62 363 -79 q 226 -17 267 -46 q 189 17 207 -1 q 156 56 171 35 q 129 99 139 79 q 124 111 126 106 q 119 124 122 117 l 115 136 q 114 144 115 140 q 113 153 113 149 l 119 175 l 125 194 l 138 232 q 151 269 144 251 q 165 307 158 288 q 197 381 181 344 q 232 453 213 417 q 318 589 267 524 q 370 651 342 621 q 435 704 399 681 q 470 728 451 717 q 510 746 489 739 q 529 753 519 750 q 550 760 539 757 l 557 760 l 565 763 l 582 764 q 599 767 589 764 q 611 758 608 769 l 706 614 l 879 351 q 899 312 894 326 q 903 290 904 297 q 894 280 901 282 q 876 281 886 278 q 813 308 853 286 l 644 575 l 569 693 l 565 692 q 550 687 558 689 q 533 682 542 685 q 472 650 503 669 q 367 549 414 610 q 285 422 321 489 q 249 356 265 390 q 218 285 233 321 q 204 249 211 267 q 190 214 197 232 l 178 176 l 169 149 q 171 140 169 143 q 178 122 172 132 q 199 88 185 106 q 225 54 210 69 q 256 26 240 39 q 414 -39 325 -26 q 594 -38 503 -53 q 775 6 686 -24 q 913 58 850 31 q 1022 110 975 86 q 1094 147 1067 133 q 1128 164 1122 161 m 771 282 q 760 263 771 271 q 735 253 749 256 q 700 247 719 247 l 651 243 q 671 186 661 214 q 692 131 681 158 q 711 81 703 100 q 718 58 719 61 q 697 61 707 53 q 676 81 686 69 q 656 114 665 94 q 626 175 640 144 q 599 238 611 206 l 514 231 q 432 226 474 226 q 415 193 424 210 q 397 160 407 176 q 374 116 383 133 q 363 99 365 99 q 350 117 351 104 q 351 143 349 129 q 361 176 354 158 q 372 201 367 189 q 381 226 376 214 q 351 228 365 228 q 324 231 338 229 q 314 246 313 233 q 321 272 315 258 q 333 297 326 286 q 339 308 339 308 q 373 303 356 306 q 408 297 390 300 q 452 409 431 354 q 497 521 474 464 q 514 525 501 531 q 538 511 526 519 q 552 510 544 511 q 567 510 560 510 l 579 510 q 608 398 594 453 q 639 288 622 343 l 699 288 q 750 285 731 286 q 771 282 769 283 m 576 289 q 553 351 564 321 q 529 414 542 382 l 467 293 q 490 290 478 290 q 515 290 503 290 l 576 289 z "},"A":{"ha":1043,"x_min":-54,"x_max":1764,"o":"m 1760 -553 q 1757 -553 1760 -553 l 1757 -551 l 1756 -551 q 1752 -551 1753 -553 q 1749 -551 1751 -550 l 1750 -551 q 1749 -550 1750 -551 l 1747 -550 l 1746 -550 l 1744 -550 q 1746 -547 1744 -550 l 1742 -547 q 1739 -547 1739 -547 l 1739 -546 l 1738 -546 q 1736 -544 1736 -546 l 1732 -544 l 1731 -544 l 1729 -543 l 1729 -544 q 1726 -543 1726 -543 q 1722 -542 1725 -543 q 1724 -543 1722 -543 l 1722 -543 l 1724 -543 q 1719 -542 1721 -543 q 1714 -542 1717 -542 q 1707 -539 1708 -539 q 1710 -540 1707 -539 q 1707 -540 1708 -540 q 1704 -539 1706 -539 l 1701 -539 l 1703 -539 l 1704 -539 l 1704 -540 q 1706 -539 1704 -540 q 1708 -540 1708 -542 q 1707 -542 1708 -540 l 1710 -542 l 1714 -542 l 1717 -542 q 1718 -543 1717 -542 l 1718 -544 q 1719 -543 1719 -544 l 1719 -544 q 1720 -543 1719 -543 q 1721 -544 1721 -543 l 1719 -544 l 1721 -544 l 1719 -544 l 1718 -544 l 1719 -544 l 1718 -544 l 1717 -544 l 1718 -544 l 1717 -544 l 1718 -544 l 1717 -544 q 1715 -544 1715 -544 q 1714 -543 1715 -543 l 1711 -543 l 1714 -543 l 1710 -543 l 1711 -543 l 1710 -543 l 1710 -542 q 1706 -540 1707 -542 l 1704 -540 l 1703 -540 q 1706 -542 1706 -540 q 1703 -540 1706 -542 q 1701 -539 1703 -539 l 1700 -540 q 1706 -542 1703 -542 q 1717 -544 1710 -543 q 1722 -547 1717 -544 q 1711 -544 1722 -547 q 1708 -544 1708 -544 q 1704 -543 1707 -543 q 1699 -540 1704 -543 q 1693 -542 1696 -542 q 1688 -543 1690 -542 l 1689 -543 q 1686 -543 1688 -544 l 1685 -543 l 1678 -543 l 1678 -544 l 1679 -544 q 1676 -544 1678 -546 l 1674 -544 l 1672 -544 l 1671 -544 l 1671 -543 l 1661 -543 l 1660 -544 q 1658 -544 1658 -544 q 1657 -543 1658 -543 q 1646 -542 1650 -543 q 1636 -540 1642 -542 l 1636 -542 l 1633 -542 l 1633 -540 l 1631 -540 l 1629 -540 l 1628 -539 l 1625 -539 q 1588 -528 1608 -535 q 1547 -512 1568 -521 q 1493 -487 1519 -501 q 1447 -461 1467 -474 q 1416 -441 1428 -449 q 1404 -433 1404 -433 q 1233 -300 1315 -371 q 1075 -150 1151 -229 q 928 10 1000 -71 q 789 178 856 92 q 741 239 764 208 q 694 300 718 269 q 449 282 571 289 q 201 272 326 275 q 184 219 192 246 q 168 164 176 192 l 168 163 q 166 156 167 160 q 164 150 165 153 q 149 95 157 122 q 132 40 140 68 q 124 28 129 33 q 125 21 124 22 q 120 11 122 15 q 115 4 118 7 q 112 -24 113 -10 q 107 -50 111 -39 q 104 -51 106 -51 q 103 -60 103 -54 q 101 -69 104 -67 l 100 -69 q 101 -72 101 -71 q 99 -74 101 -74 q 99 -52 99 -62 q 101 -31 99 -42 q 98 -35 99 -33 q 94 -39 97 -36 q 93 -17 90 -29 q 96 6 96 -6 q 97 12 96 8 q 94 19 97 15 q 97 22 96 22 q 97 25 97 22 q 92 17 92 22 q 90 10 93 13 q 89 3 89 7 q 88 -6 89 0 q 86 -1 86 -6 q 85 -3 83 -1 q 83 -1 86 -4 q 82 0 82 -1 q 80 -3 78 0 q 79 -8 82 -7 q 78 -20 79 -14 q 75 -32 78 -26 q 74 -41 74 -36 q 71 -50 74 -46 q 68 -53 71 -51 q 69 -57 65 -54 q 68 -68 67 -64 q 68 -76 69 -72 q 67 -76 65 -76 q 67 -75 69 -75 q 64 -82 65 -76 q 63 -78 61 -78 q 60 -83 60 -79 q 60 -90 61 -87 q 47 -75 57 -82 q 46 -76 47 -75 q 44 -72 43 -74 q 42 -69 44 -71 q 42 -42 43 -56 q 43 -18 42 -29 l 40 -19 q 38 -15 38 -17 q 35 -10 39 -12 q 33 -8 35 -8 q 32 -8 31 -8 q 33 -6 33 -7 q 31 -6 31 -6 q 29 -7 31 -7 q 29 -7 28 -8 q 29 -6 31 -6 q 26 -6 26 -6 q 25 -7 26 -7 q 23 4 21 0 q 22 11 25 8 q 25 28 26 24 q 23 25 24 26 q 21 22 22 24 q 21 31 19 25 q 22 42 22 36 q 15 44 15 38 q 17 44 18 44 q 19 43 17 43 q 21 44 21 43 q 19 44 21 44 l 18 44 q 17 49 11 47 q 21 54 22 51 q 18 56 19 54 q 19 58 17 58 l 21 58 q 22 60 22 58 q 20 60 19 61 q 18 60 21 58 l 18 61 q 11 48 15 54 q 10 35 7 42 q 7 35 10 32 q 3 18 4 28 q 0 1 3 8 q 3 36 0 19 q 8 72 6 53 q 4 61 6 67 q 1 49 3 56 q 0 42 1 42 q 2 60 1 49 q 6 82 3 72 q 7 89 6 86 q 6 89 6 89 q 24 138 15 114 q 43 186 32 161 l 42 186 l 40 185 q 46 193 40 192 q 58 226 53 208 q 69 258 64 243 q 63 260 64 258 q 66 260 64 260 q 71 260 68 261 q 76 275 74 267 q 65 286 68 276 q 60 289 63 286 q 59 288 58 289 q 58 288 60 288 q 56 288 58 290 q 54 290 54 285 q 53 288 53 288 q 47 289 50 289 q 42 290 44 289 l 42 292 l 40 290 l 40 294 l 40 290 l 40 294 l 40 292 q 39 290 40 292 l 39 292 l 38 292 q 36 290 38 292 q 35 292 35 290 l 35 294 q 33 293 33 292 q 31 294 33 294 q 33 296 31 296 q 32 296 33 297 q 31 297 31 294 q 32 301 31 300 q 33 300 33 301 q 29 303 31 303 l 28 303 q 26 306 25 306 q 27 308 26 308 q 28 308 28 307 q 26 307 26 308 l 26 306 l 26 303 l 26 301 l 26 304 q 24 303 26 303 q 26 301 25 300 q 28 300 26 303 q 27 297 28 296 q 26 300 26 297 l 26 296 l 25 296 q 26 297 25 297 q 26 300 26 297 q 25 300 25 300 q 24 296 25 300 l 24 300 l 24 297 l 24 303 q 19 305 22 306 q 14 306 17 304 q 8 307 10 306 q 3 308 7 308 l 3 311 q 1 310 1 308 q -1 310 0 311 l -1 311 q -3 311 -1 313 q -4 313 -4 310 q -6 310 -6 310 q -10 311 -7 311 l -11 310 l -11 313 l -12 313 q -14 315 -14 314 l -15 315 l -15 313 l -15 317 q -18 315 -15 317 q -18 317 -17 318 q -21 317 -19 315 l -21 321 q -22 317 -22 318 q -22 321 -22 317 q -25 318 -25 318 q -26 318 -25 318 l -26 322 q -26 320 -26 319 q -29 318 -26 321 l -29 321 q -31 319 -29 319 q -32 321 -32 319 l -32 324 q -33 325 -32 325 q -32 328 -33 325 l -33 328 l -33 326 q -36 328 -35 328 q -39 331 -37 329 l -39 329 l -39 332 l -39 331 q -40 329 -39 329 q -40 332 -39 335 q -42 332 -42 329 l -42 331 l -43 331 q -42 333 -42 333 q -46 331 -43 332 q -44 332 -46 332 q -43 335 -43 332 q -44 335 -43 336 q -46 332 -46 335 q -47 337 -46 336 q -50 339 -49 338 q -43 344 -49 342 l -43 346 q -40 347 -40 347 q -36 349 -39 346 q -43 352 -39 353 q -50 354 -47 351 q -46 357 -49 356 q -49 358 -46 357 q -46 360 -46 361 q -46 361 -46 358 q -50 363 -49 364 q -54 364 -51 363 q -53 365 -54 367 q -53 367 -53 364 q -46 368 -50 365 q -39 368 -42 371 q -40 367 -39 367 q -40 367 -40 368 q -36 365 -40 365 l -21 365 q -4 365 -14 369 l -3 365 q -1 367 -3 365 q 3 365 -1 365 q 8 365 6 367 q 15 364 11 363 q 15 362 14 360 q 18 364 15 364 q 22 363 19 364 q 26 361 24 361 q 24 363 26 364 q 21 365 22 363 q 22 367 21 368 q 22 367 22 365 q 17 369 19 371 q 14 372 15 368 l 14 369 q -4 375 6 368 l -6 371 q -15 374 -11 369 q -22 376 -18 379 q -18 378 -19 379 q -14 378 -17 376 l -14 379 q -12 378 -12 379 q -10 378 -11 378 q 4 377 -3 378 q 19 379 11 376 l 19 383 q 22 381 21 381 q 24 378 24 382 q 24 379 25 378 q 26 378 25 382 q 29 376 26 374 q 28 379 29 379 q 28 382 28 379 q 29 379 28 382 q 31 382 29 382 q 35 379 33 382 q 37 382 35 383 q 40 383 39 381 q 31 385 36 385 q 24 388 26 385 l 24 386 q 23 385 24 385 q 22 388 22 385 l 22 385 l 22 386 q 18 389 21 385 q 17 389 15 389 q 19 392 18 389 q 13 393 17 394 q 7 394 10 392 l 7 397 q 4 399 6 399 q 5 397 4 396 q 6 394 6 397 q 1 394 1 394 q 1 399 1 400 q 0 394 0 397 q -1 396 -1 394 q -1 396 0 397 l -1 394 q -8 394 -4 394 q -14 396 -11 394 l -14 399 l -14 394 q -16 396 -15 397 q -17 397 -17 394 q -16 398 -17 399 q -15 399 -15 397 l -15 403 q -25 403 -19 401 q -21 404 -22 406 q -17 406 -19 403 q -15 405 -15 404 q -12 404 -14 406 l -12 407 q -12 409 -11 410 q -12 410 -12 408 q -12 410 -12 411 q -11 410 -11 408 q -12 410 -12 413 q -14 410 -12 407 q -14 411 -14 411 q -15 413 -15 411 q -17 414 -15 414 q -15 414 -17 414 q -11 414 -12 417 q -11 415 -11 417 q -10 415 -11 414 q -11 410 -10 411 q -6 408 -8 407 q 0 408 -3 408 q -2 411 0 413 q -6 414 -4 410 q 0 414 -6 414 q 1 411 -1 411 l 1 415 q 4 415 1 415 l 4 411 q 5 412 4 415 q 6 411 6 408 q 4 410 4 407 q 3 411 4 414 q 8 407 6 406 q 8 409 8 410 q 7 411 7 408 q 10 411 10 411 l 10 410 q 18 406 11 406 l 18 408 l 18 410 q 24 406 21 404 q 28 403 26 408 q 28 404 28 404 q 29 406 29 404 q 33 407 32 406 q 37 406 35 404 q 39 401 39 407 q 44 404 40 407 l 44 403 q 45 402 44 401 q 46 401 46 403 q 44 403 46 403 l 44 406 l 46 404 q 49 399 47 397 q 53 401 50 401 q 51 402 53 403 q 50 403 50 401 q 53 403 53 406 q 56 403 54 401 l 56 399 q 65 401 61 397 l 65 403 q 72 402 68 403 q 79 404 75 401 q 78 405 79 406 q 76 407 76 404 q 78 406 76 406 q 81 404 79 407 q 93 407 82 404 l 100 407 l 100 408 l 101 408 l 103 408 l 107 408 q 117 407 113 407 q 126 407 122 407 q 207 619 167 514 q 288 831 247 724 q 294 845 292 838 q 299 860 296 853 q 292 869 296 864 q 285 878 289 874 q 267 921 264 903 q 250 945 260 933 q 233 969 240 957 q 235 981 236 974 q 240 992 233 989 q 240 994 242 993 q 242 997 239 996 q 248 994 244 994 q 253 996 251 993 q 258 988 254 993 q 264 983 261 983 q 265 987 264 988 q 265 989 265 986 q 262 995 263 993 q 260 1000 261 997 q 270 1006 265 1003 q 278 1004 275 1008 q 278 1009 281 1008 q 278 1011 275 1010 q 286 1001 281 1006 q 294 993 292 996 l 296 993 q 292 997 294 996 q 290 1001 290 999 q 294 999 293 1000 q 299 997 296 997 q 297 1003 299 1000 q 299 1008 296 1006 q 301 1002 296 1004 q 304 997 306 1000 q 301 997 303 999 q 301 994 299 996 q 307 993 304 992 q 307 997 306 996 q 308 1000 308 997 q 313 996 311 997 q 317 993 314 994 q 319 997 319 994 q 324 999 318 999 q 318 1008 321 1006 q 315 1014 315 1011 q 329 1001 322 1010 q 338 985 336 993 q 328 994 333 994 q 337 981 335 986 q 344 974 339 975 q 342 985 346 978 q 342 997 338 992 q 344 996 343 994 q 344 999 344 997 q 348 996 346 996 q 353 994 350 996 q 347 1007 350 1001 q 347 1017 344 1013 q 360 1008 354 1014 q 371 996 365 1001 q 403 949 388 971 q 438 899 419 926 q 456 872 449 885 q 472 843 463 858 q 476 838 475 840 q 479 833 476 836 q 514 776 499 803 q 571 685 542 731 q 629 594 600 639 q 694 492 661 543 q 761 390 726 442 q 865 394 814 392 q 969 399 917 396 q 990 400 981 399 q 1008 401 999 401 q 1064 403 1039 403 q 1106 406 1089 404 l 1114 406 l 1122 406 l 1119 406 q 1138 404 1136 406 l 1142 404 q 1138 404 1138 404 q 1136 401 1138 403 q 1142 402 1140 401 q 1146 403 1144 403 l 1147 401 l 1146 401 q 1149 400 1149 401 q 1151 401 1150 399 q 1150 401 1150 403 q 1149 403 1150 400 q 1156 404 1153 403 q 1163 404 1158 406 q 1167 405 1164 404 q 1171 404 1169 406 q 1163 403 1167 404 q 1157 403 1160 403 q 1160 401 1158 400 q 1164 401 1163 403 q 1165 400 1164 400 l 1165 401 l 1164 401 q 1169 403 1167 404 q 1174 404 1171 401 q 1176 403 1174 400 q 1182 404 1176 404 q 1178 403 1179 403 q 1176 403 1178 404 q 1186 404 1183 403 q 1182 404 1182 404 q 1185 405 1183 404 q 1188 406 1186 406 q 1183 406 1183 406 q 1193 408 1190 407 q 1201 407 1196 408 l 1201 408 q 1207 407 1206 408 q 1208 408 1207 408 q 1210 408 1210 407 l 1208 408 q 1207 408 1207 408 q 1215 410 1211 410 q 1215 409 1215 408 q 1214 408 1214 410 q 1217 408 1215 407 q 1207 407 1214 407 q 1197 406 1204 406 q 1196 406 1196 406 q 1192 405 1193 404 q 1188 403 1190 406 q 1194 403 1190 404 q 1201 404 1197 403 q 1208 405 1204 406 q 1214 406 1211 404 q 1224 407 1219 407 q 1233 408 1228 407 l 1233 406 l 1233 407 q 1242 408 1236 408 q 1242 409 1243 408 q 1243 410 1242 410 l 1254 410 l 1254 408 q 1243 407 1250 407 l 1242 407 l 1239 407 l 1242 407 q 1238 406 1239 407 q 1235 407 1236 404 l 1235 406 q 1219 403 1226 404 q 1206 403 1213 403 q 1204 400 1206 401 q 1203 401 1203 400 q 1192 399 1194 401 q 1182 397 1185 399 q 1190 397 1183 394 l 1194 397 q 1195 398 1194 399 q 1196 399 1196 397 q 1213 401 1204 399 q 1231 404 1221 403 q 1232 403 1231 403 q 1251 405 1240 404 q 1272 408 1261 406 q 1290 412 1281 410 q 1306 411 1299 414 q 1315 414 1308 414 q 1313 413 1314 414 q 1310 414 1313 411 l 1310 411 q 1301 410 1306 411 q 1292 407 1296 408 l 1293 407 q 1285 404 1285 404 q 1289 403 1288 404 q 1269 399 1281 400 q 1247 394 1258 397 l 1256 394 q 1253 393 1254 392 q 1253 392 1253 394 q 1252 394 1253 394 q 1251 392 1251 394 l 1253 392 q 1242 390 1249 390 q 1232 388 1235 389 q 1231 389 1232 388 l 1231 388 q 1228 388 1231 388 q 1228 386 1226 388 q 1215 386 1222 389 q 1201 386 1208 383 l 1201 388 q 1213 389 1208 385 q 1181 386 1197 388 q 1150 382 1165 385 q 1160 381 1156 379 q 1171 382 1164 383 q 1169 381 1171 379 q 1165 379 1168 382 q 1150 378 1158 379 q 1136 375 1142 378 q 1135 374 1136 374 l 1135 375 q 1133 374 1133 375 q 1132 372 1133 372 q 1129 372 1132 378 q 1125 375 1126 375 q 1118 372 1124 372 q 1113 368 1115 369 l 1114 368 l 1113 368 q 1106 365 1110 365 q 1096 361 1101 364 l 1101 361 q 1133 365 1118 361 q 1136 364 1133 364 q 1119 360 1128 361 q 1101 357 1111 360 q 1111 358 1107 357 q 1122 358 1115 358 q 1120 357 1122 356 q 1118 356 1118 358 l 1119 356 q 1115 356 1115 356 q 1106 354 1113 358 l 1107 354 l 1110 354 q 1069 350 1086 350 q 1068 349 1069 349 q 1090 350 1079 349 q 1113 351 1101 351 q 1127 353 1119 351 q 1142 356 1135 356 q 1120 352 1131 353 q 1097 350 1110 351 q 1080 348 1089 349 q 1063 346 1071 347 q 1069 347 1067 346 q 1075 346 1072 347 q 1060 344 1068 343 q 1049 342 1053 344 q 1053 342 1051 343 q 1058 342 1056 342 l 1060 342 l 1063 342 l 1063 339 q 1057 340 1060 342 q 1053 339 1054 339 l 1051 339 q 1035 342 1047 336 q 1013 335 1024 338 q 994 332 1003 333 q 976 329 985 331 q 897 321 936 325 q 818 311 858 317 q 844 277 831 294 q 869 243 857 260 q 1136 -89 996 69 q 1442 -374 1276 -247 q 1551 -449 1500 -418 q 1640 -499 1603 -479 l 1642 -499 q 1644 -500 1642 -499 l 1643 -500 q 1660 -504 1651 -500 q 1667 -507 1663 -506 q 1676 -511 1671 -508 q 1685 -514 1679 -511 l 1686 -514 q 1689 -515 1688 -515 q 1692 -517 1690 -515 l 1697 -517 q 1693 -517 1696 -517 q 1689 -515 1690 -517 q 1684 -514 1686 -515 q 1679 -512 1682 -512 q 1678 -511 1679 -512 q 1676 -511 1678 -511 q 1667 -507 1669 -510 l 1665 -507 q 1658 -504 1660 -504 q 1653 -502 1657 -503 q 1646 -500 1649 -501 l 1644 -500 q 1689 -519 1672 -512 q 1710 -528 1706 -525 q 1713 -529 1711 -528 q 1717 -531 1714 -531 q 1723 -533 1719 -532 q 1729 -535 1726 -533 q 1733 -536 1731 -536 q 1738 -539 1736 -536 q 1742 -540 1740 -540 q 1746 -542 1743 -540 q 1749 -543 1747 -542 l 1750 -543 l 1751 -544 q 1744 -542 1749 -543 q 1736 -539 1740 -540 q 1740 -542 1736 -537 q 1718 -533 1728 -537 q 1715 -533 1717 -533 q 1711 -532 1714 -532 l 1710 -532 l 1708 -532 q 1722 -536 1719 -535 l 1721 -536 q 1724 -539 1722 -536 q 1730 -540 1726 -539 q 1738 -542 1733 -542 q 1747 -546 1742 -544 q 1758 -550 1751 -547 q 1761 -551 1758 -550 l 1760 -551 q 1762 -552 1761 -551 q 1764 -553 1763 -553 q 1758 -551 1760 -553 q 1760 -553 1758 -553 m 1213 408 q 1211 408 1211 408 q 1212 408 1211 407 q 1213 408 1213 410 m 1171 394 q 1170 396 1171 396 q 1169 394 1169 396 l 1171 394 m 1157 401 q 1151 401 1154 404 q 1153 400 1153 399 q 1157 401 1154 401 m -12 396 q -12 397 -12 399 q -11 399 -12 396 q -12 399 -12 397 q -14 401 -12 401 q -13 399 -14 400 q -12 397 -12 399 l -12 396 m -6 397 q -6 399 -6 400 q -4 399 -6 397 q -4 400 -4 399 l -4 401 q -6 400 -6 399 q -7 397 -6 401 q -8 399 -7 399 q -10 401 -10 399 l -10 397 q -7 396 -10 397 l -7 399 l -6 397 m -3 397 q -1 397 -3 397 q -3 398 -1 399 q -4 399 -4 397 l -4 397 l -3 397 m 1 411 l 1 413 q 3 414 3 414 q 2 410 3 411 q 1 411 1 410 m 3 396 l 3 397 q 4 396 4 397 q 3 397 3 397 l 3 396 m 7 397 q 11 397 10 394 q 7 397 11 397 m 29 389 q 28 390 29 390 q 28 392 28 389 q 27 390 28 388 q 25 390 26 392 q 26 388 25 388 q 29 388 28 389 l 29 389 m 31 394 q 33 392 31 389 l 32 392 q 31 394 31 392 q 20 401 26 400 q 8 401 14 401 q 15 399 13 399 q 19 397 17 400 q 17 397 18 394 q 14 396 15 400 l 17 396 q 18 394 18 396 q 19 394 18 396 q 19 390 19 393 q 24 389 21 389 q 22 392 24 393 q 19 394 21 390 q 24 394 22 396 q 28 394 25 392 l 28 396 q 29 390 29 397 q 30 392 29 393 q 31 394 31 392 m -35 349 q -34 347 -35 347 q -33 347 -33 346 q -34 349 -33 349 q -35 349 -35 350 m -33 347 q -32 347 -32 346 q -33 347 -32 349 m 25 28 q 27 38 28 32 q 29 46 26 43 q 25 38 26 43 q 25 28 24 32 m 35 -8 q 36 -4 35 -7 q 35 -1 38 -1 q 35 -8 35 -8 m 71 344 q 68 344 68 347 l 71 344 m 68 344 q 67 344 67 344 q 68 344 67 346 m 46 382 q 44 383 44 382 q 43 382 44 385 q 45 381 44 383 q 46 382 46 379 m 46 364 q 45 365 46 365 q 44 364 44 365 q 46 364 44 364 m 35 396 q 38 390 36 390 q 43 390 40 390 q 43 394 40 390 q 35 396 36 397 m 42 365 q 40 366 40 368 q 39 365 40 364 q 40 363 39 363 q 40 358 40 363 q 42 359 40 363 q 44 358 43 356 q 44 361 44 361 q 43 364 43 361 q 44 364 44 363 q 43 365 43 364 q 42 365 43 367 m 31 367 q 29 366 31 365 q 28 365 28 367 q 31 360 29 363 q 35 361 33 358 q 33 363 35 363 q 31 365 31 363 q 33 367 33 365 q 32 367 31 364 q 31 367 33 369 m 25 357 q 24 358 25 358 q 24 356 24 358 q 28 351 24 351 l 28 354 q 31 351 31 349 l 29 351 l 29 356 q 33 353 31 354 q 35 356 35 353 q 30 356 32 357 q 25 358 28 356 l 25 361 l 25 357 m 28 317 l 28 313 l 28 317 m 21 357 l 21 356 q 19 356 21 357 l 21 356 l 21 357 m 19 358 q 15 360 17 361 q 10 361 13 358 q 15 358 13 356 q 19 356 17 360 l 19 358 m 18 332 l 18 329 l 18 331 l 18 332 m 6 363 l 6 361 q 7 358 6 358 q 8 361 8 358 q 7 361 8 363 q 7 363 6 360 l 6 363 m 4 363 l 4 361 l 4 363 m 1 346 q 0 346 0 344 q 0 344 0 347 l 0 343 q 1 346 0 343 m -10 344 q -12 346 -11 344 q -14 344 -12 347 q -12 342 -12 344 q -10 344 -11 340 m -14 346 q -15 346 -14 344 q -15 344 -15 344 q -14 346 -14 343 m -21 329 l -21 328 l -21 331 l -21 329 m -21 346 q -24 347 -22 346 q -26 344 -25 347 q -24 345 -25 347 q -21 346 -22 343 m -26 346 q -29 347 -29 346 q -29 346 -29 349 l -29 344 q -26 346 -29 344 m -29 324 q -25 322 -29 322 q -27 325 -25 326 q -29 326 -29 324 q -31 325 -31 326 l -31 324 l -29 324 m -21 325 q -22 324 -22 324 l -22 325 l -22 324 q -24 321 -25 321 q -21 324 -22 321 l -21 325 m -19 346 q -18 343 -18 343 q -17 342 -18 343 l -17 344 q -16 342 -17 342 q -15 346 -15 343 q -16 345 -15 343 q -19 346 -17 347 m -17 326 q -12 326 -14 326 q -6 326 -10 325 q -11 328 -8 326 q -17 326 -14 329 m -4 324 q -1 324 -1 326 q 0 325 -1 322 q -3 326 -1 328 q -4 328 -4 325 q -6 325 -4 326 q -4 324 -4 325 m 1 321 q 0 322 0 321 q 1 324 1 322 q 0 321 0 324 q 0 320 0 322 q 1 321 0 318 m 8 311 q 10 311 10 313 q 11 313 10 310 q 10 313 10 311 q 8 311 10 315 m 14 310 q 17 310 15 310 q 22 308 19 311 q 20 313 21 314 q 18 315 19 311 q 15 311 15 313 q 11 311 11 315 l 11 310 l 14 310 q 15 311 14 311 q 15 310 15 311 q 14 310 15 311 m 24 310 q 24 313 24 310 q 22 314 24 314 l 22 313 l 22 310 l 22 311 q 24 313 22 311 q 22 310 24 311 q 24 308 24 310 q 24 310 24 307 m 24 321 q 26 321 24 315 q 17 324 22 324 q 10 325 13 324 l 10 326 q 8 324 10 326 q 6 326 7 326 q 4 326 6 325 l 4 325 q 1 326 1 326 q 1 328 1 325 q 1 326 1 325 q 0 325 0 328 q 10 322 4 322 q 22 321 17 322 q 22 318 22 318 q 21 317 21 318 q 22 317 22 318 q 22 318 22 315 q 22 319 21 321 q 24 317 22 318 l 24 321 m 40 296 q 39 301 40 301 l 39 297 q 40 299 39 300 q 40 294 40 297 l 40 296 m 60 304 q 60 305 61 304 q 61 306 60 306 l 63 306 l 63 307 l 61 307 q 61 310 60 308 l 60 308 q 51 309 54 308 q 44 310 47 310 l 44 313 q 44 314 44 314 q 43 313 43 314 l 43 311 l 43 310 q 38 311 42 311 q 31 315 33 311 l 31 313 q 28 313 29 313 q 24 315 26 313 q 33 310 28 306 l 33 308 q 34 308 33 311 q 35 307 35 306 q 38 308 38 311 q 42 306 39 306 q 44 308 43 308 q 44 307 44 308 q 60 304 54 307 m 236 401 q 431 392 335 394 q 628 390 528 389 q 576 460 601 425 q 528 529 551 494 q 465 618 496 574 q 404 708 435 663 q 389 733 397 721 q 374 757 381 744 q 372 758 372 757 q 360 776 365 768 q 350 793 356 783 q 344 771 347 782 q 338 751 340 760 q 341 744 339 747 q 346 738 343 740 q 350 731 349 735 q 354 722 351 726 q 349 731 351 726 q 344 738 347 735 q 336 747 339 743 q 236 401 288 574 m 1704 -536 l 1706 -539 l 1704 -536 z "},"B":{"ha":994,"x_min":-540,"x_max":1056,"o":"m 1014 -44 q 1032 -80 1024 -60 q 1047 -124 1040 -100 q 1055 -174 1054 -144 q 1046 -231 1056 -203 q 1018 -279 1035 -258 q 986 -315 1001 -300 q 917 -364 951 -342 q 883 -381 900 -374 q 851 -396 867 -389 l 789 -428 l 661 -486 l 410 -603 l -92 -832 q -273 -917 -192 -879 q -407 -978 -354 -956 q -408 -981 -407 -979 q -411 -982 -411 -981 q -412 -983 -411 -983 l -415 -983 l -417 -985 l -415 -985 l -417 -985 q -438 -994 -428 -990 q -456 -1000 -449 -997 l -456 -1003 l -456 -1000 q -457 -1003 -456 -1001 l -458 -1003 q -460 -1004 -458 -1004 l -462 -1004 q -467 -1007 -465 -1007 l -468 -1007 q -469 -1008 -469 -1007 q -468 -1007 -469 -1007 q -467 -1008 -467 -1007 l -469 -1008 l -471 -1008 l -469 -1008 q -471 -1010 -471 -1008 l -471 -1011 l -474 -1011 l -474 -1012 q -475 -1011 -475 -1012 q -474 -1008 -474 -1011 q -482 -1012 -481 -1012 l -482 -1011 l -485 -1011 l -485 -1008 l -482 -1008 l -482 -1004 q -481 -1000 -482 -1001 q -481 -996 -481 -999 q -478 -994 -478 -996 q -486 -999 -481 -994 q -492 -1003 -490 -999 q -495 -1005 -493 -1003 q -500 -1007 -497 -1007 q -493 -1003 -499 -1006 q -475 -993 -489 -999 l -475 -992 q -479 -993 -478 -993 q -482 -994 -481 -993 q -478 -993 -481 -993 q -481 -994 -481 -993 q -485 -994 -482 -994 q -486 -996 -485 -996 l -485 -994 q -486 -996 -485 -994 q -489 -997 -487 -996 l -490 -999 l -492 -999 l -490 -999 l -492 -1000 l -492 -999 q -493 -1000 -492 -1000 q -496 -1001 -496 -1000 q -497 -1003 -496 -1003 l -496 -1003 l -497 -1003 l -500 -1003 l -497 -1003 l -497 -1000 l -497 -1003 q -496 -1000 -496 -1003 l -496 -999 q -493 -1000 -493 -999 q -490 -999 -493 -999 l -490 -997 q -489 -996 -490 -997 l -490 -996 q -486 -994 -490 -997 l -485 -994 l -486 -994 l -485 -994 l -482 -993 q -478 -992 -481 -993 q -481 -993 -481 -992 l -481 -992 l -482 -993 q -487 -994 -485 -993 q -490 -996 -489 -996 l -489 -994 q -493 -999 -492 -994 q -498 -1001 -496 -999 q -501 -1003 -500 -1003 l -501 -1000 q -510 -1004 -504 -1003 q -508 -1003 -510 -1004 l -510 -1004 l -512 -1004 l -514 -1007 q -517 -1008 -517 -1007 l -521 -1008 q -522 -1011 -521 -1010 l -524 -1011 l -524 -1012 l -526 -1012 l -528 -1012 l -528 -1015 q -529 -1015 -531 -1012 q -531 -1015 -528 -1017 q -532 -1016 -532 -1015 q -535 -1017 -532 -1017 l -532 -1017 q -535 -1018 -535 -1017 q -536 -1017 -535 -1019 l -535 -1017 q -540 -1019 -539 -1017 q -538 -1017 -540 -1017 q -536 -1015 -536 -1017 l -536 -1017 l -539 -1017 q -537 -1016 -537 -1017 q -536 -1015 -537 -1015 l -535 -1015 q -525 -1009 -528 -1012 q -517 -1003 -522 -1006 q -510 -999 -514 -1000 q -504 -996 -507 -999 l -503 -996 q -501 -994 -503 -996 l -501 -996 q -503 -994 -503 -996 l -501 -994 q -486 -985 -493 -992 q -490 -988 -489 -987 q -493 -989 -490 -989 q -497 -993 -497 -993 q -518 -1003 -508 -996 l -517 -1001 q -514 -1000 -517 -1001 q -524 -1005 -519 -1003 q -531 -1008 -528 -1007 l -532 -1008 q -529 -1007 -532 -1008 l -528 -1007 l -526 -1006 q -524 -1004 -526 -1006 q -520 -1001 -521 -1003 q -517 -999 -519 -1000 q -513 -997 -514 -999 q -510 -996 -512 -996 q -503 -992 -507 -993 q -497 -989 -500 -992 q -490 -984 -493 -986 q -482 -978 -487 -982 l -485 -981 q -467 -969 -476 -975 q -451 -960 -458 -964 q -441 -954 -447 -957 q -431 -949 -435 -951 l -429 -949 q -428 -946 -429 -949 l -426 -944 l -426 -946 l -425 -944 l -424 -944 q -335 -886 -386 -917 q -239 -831 -285 -856 q -162 -791 -193 -807 q -131 -776 -131 -775 l 369 -528 q 617 -403 493 -464 q 863 -275 742 -342 q 914 -238 890 -258 q 943 -197 938 -218 q 942 -153 950 -178 q 917 -100 933 -128 q 899 -73 908 -86 q 879 -44 890 -60 q 861 -17 871 -31 q 840 8 851 -4 q 799 54 821 32 q 750 94 776 76 q 640 147 699 129 q 517 169 582 164 q 426 167 472 169 q 331 158 379 165 l 333 157 q 336 158 336 157 q 336 157 336 160 q 333 150 336 150 l 333 153 q 329 151 331 153 q 325 149 328 149 l 324 149 l 325 150 l 325 153 q 324 151 325 151 q 321 153 321 151 q 331 158 325 153 q 317 157 325 157 q 308 154 314 154 l 306 154 q 286 151 296 153 q 268 149 276 150 q 269 134 268 140 q 271 119 271 128 q 271 118 271 119 l 271 114 l 271 107 l 271 106 q 274 47 274 74 q 275 4 275 21 l 275 3 l 275 4 q 278 -4 275 -1 q 275 -1 275 -4 l 275 -17 l 272 -17 l 272 -19 l 271 -19 q 271 -24 271 -19 q 272 -22 272 -22 q 272 -19 271 -22 q 273 -28 272 -25 q 274 -33 274 -31 q 274 -37 274 -35 q 274 -42 275 -39 q 273 -39 274 -40 q 272 -35 272 -37 l 272 -31 q 271 -32 269 -31 q 271 -35 272 -33 l 271 -37 q 271 -35 271 -37 q 273 -40 274 -37 q 274 -46 272 -43 q 272 -49 272 -46 q 274 -51 274 -49 l 274 -53 q 273 -51 272 -53 q 272 -49 274 -50 q 274 -58 272 -57 l 274 -57 q 274 -54 274 -54 q 274 -58 274 -57 q 275 -61 275 -58 q 274 -58 275 -58 q 275 -54 274 -57 q 276 -64 275 -61 q 278 -72 278 -67 q 278 -78 278 -78 l 278 -81 l 278 -78 q 279 -87 279 -82 l 278 -87 l 278 -89 q 278 -78 272 -86 q 276 -79 275 -81 q 275 -78 278 -78 q 274 -69 275 -72 l 275 -68 q 274 -64 274 -65 q 272 -61 275 -62 q 273 -67 274 -64 q 274 -72 272 -69 q 274 -78 275 -75 q 274 -85 274 -82 l 275 -85 q 276 -96 278 -92 q 278 -104 275 -100 l 275 -104 l 278 -104 l 278 -112 l 279 -112 l 279 -125 l 278 -125 q 276 -119 275 -122 q 275 -112 278 -115 l 278 -112 q 276 -112 275 -112 q 275 -111 278 -111 q 276 -112 275 -112 q 275 -112 278 -112 q 275 -107 275 -107 l 275 -104 q 273 -91 274 -97 q 272 -76 272 -85 q 271 -75 271 -76 l 271 -74 l 271 -64 q 268 -53 271 -57 l 268 -54 q 266 -56 265 -54 q 267 -61 267 -58 q 267 -63 268 -62 q 268 -65 267 -64 q 272 -84 271 -75 q 274 -100 272 -93 q 272 -103 272 -100 q 274 -122 274 -112 q 278 -143 275 -132 q 281 -160 279 -151 q 282 -176 283 -168 q 283 -189 283 -181 q 283 -182 282 -186 l 282 -182 q 280 -172 282 -178 q 278 -162 278 -165 l 275 -162 q 274 -156 275 -158 l 274 -162 q 269 -140 271 -153 q 264 -119 267 -128 q 265 -123 264 -121 q 264 -128 267 -125 q 263 -125 264 -124 q 263 -124 264 -124 q 260 -113 260 -121 q 258 -103 260 -106 l 260 -100 l 258 -100 l 258 -99 q 257 -86 260 -93 q 256 -72 254 -79 l 258 -72 q 260 -85 258 -81 q 256 -53 258 -69 q 251 -22 254 -37 q 252 -31 250 -26 q 251 -42 254 -36 q 251 -40 250 -42 q 250 -37 251 -39 q 249 -22 250 -32 q 244 -8 249 -12 q 244 -6 243 -7 q 243 -4 244 -4 q 238 4 240 1 q 233 13 236 7 q 236 -4 233 0 q 235 -5 233 -4 q 233 -8 236 -6 q 232 5 232 -1 q 229 18 232 11 l 229 19 l 228 21 q 228 15 228 18 q 229 6 229 11 q 228 8 228 6 q 228 10 229 10 l 226 10 q 225 8 225 10 q 226 11 225 10 q 225 14 228 13 q 226 19 228 17 q 225 22 225 21 l 225 21 q 224 29 224 25 q 221 35 224 33 q 224 26 224 31 q 224 17 224 21 q 224 3 224 10 q 225 -12 225 -4 q 224 9 224 -1 q 221 31 224 19 q 219 38 221 35 q 216 49 217 43 q 213 61 215 54 l 211 61 l 211 64 l 211 65 l 211 68 q 207 84 208 76 q 203 99 206 92 l 203 96 l 203 99 q 203 106 203 106 q 200 119 201 113 q 197 133 199 126 l 197 131 q 194 129 194 128 q 193 128 194 131 l 193 133 q 190 131 190 133 q 186 131 189 128 q 188 131 186 133 q 190 135 190 129 q 181 131 182 135 l 181 129 q 182 128 181 128 q 181 128 181 128 q 178 126 181 125 q 174 126 176 126 q 176 128 174 126 q 175 131 174 131 q 174 131 176 131 q 177 131 176 133 q 178 131 178 128 l 178 133 l 178 135 q 176 135 176 135 l 176 136 q 173 136 174 135 q 169 135 172 138 q 166 135 168 138 q 161 136 164 133 q 172 138 165 138 q 169 142 169 142 q 168 142 169 142 q 170 144 168 144 q 172 146 172 144 q 174 142 172 142 q 172 144 174 143 q 178 147 175 146 q 185 149 182 149 l 185 147 q 186 146 185 146 l 186 147 q 186 149 186 147 q 190 144 189 146 q 189 149 190 143 q 190 149 190 149 q 193 150 190 150 q 194 147 194 147 q 193 144 193 146 q 197 146 194 144 q 194 147 194 146 l 194 149 l 194 150 q 193 149 194 149 l 193 150 l 190 153 q 181 165 182 161 q 172 163 176 165 q 171 161 172 161 l 168 161 l 168 163 q 160 162 163 163 q 154 161 157 161 q 165 165 161 161 q 174 169 169 169 q 175 169 175 169 q 176 168 175 168 q 178 167 176 167 q 181 169 178 169 q 178 176 178 169 l 178 175 l 176 176 q 167 172 174 174 q 154 172 160 169 q 139 169 144 172 q 133 167 135 169 q 135 168 135 167 q 135 167 135 169 q 129 165 133 163 q 121 165 125 168 q 119 167 121 168 q 118 169 118 167 q 126 172 125 169 q 126 174 126 175 q 125 175 126 172 q 126 176 125 176 q 126 176 126 175 q 121 179 122 176 q 128 182 124 182 q 135 188 132 182 q 130 188 132 189 q 125 188 128 188 l 125 192 q 118 193 121 192 q 119 197 118 196 q 121 200 121 197 q 122 197 121 197 q 121 200 122 197 l 121 201 l 122 201 l 121 203 q 122 203 122 201 l 125 201 q 124 201 122 203 q 126 203 126 200 l 126 201 l 126 203 l 129 203 q 133 208 129 206 q 135 207 133 208 q 135 213 135 207 q 133 215 135 213 q 135 217 135 215 q 138 215 135 218 l 138 218 q 139 216 139 214 q 139 215 139 218 l 139 218 q 140 218 139 218 q 141 219 140 221 q 144 218 142 218 l 143 219 l 142 219 q 147 222 144 222 q 146 224 149 221 q 150 222 149 222 l 149 224 l 150 224 l 151 224 q 153 226 151 224 l 154 226 l 154 231 l 157 228 q 160 229 158 228 q 164 228 161 231 l 164 231 q 167 232 167 231 q 169 231 168 233 l 169 235 q 176 236 176 235 q 179 237 178 236 q 182 238 181 238 l 182 239 l 181 239 q 179 242 181 242 q 178 243 178 242 q 181 243 179 242 q 151 468 164 357 q 126 692 138 579 q 105 675 115 683 q 83 660 94 667 l 83 657 q 65 643 75 650 q 44 629 54 636 q 1 599 25 614 q -10 590 -6 596 q -22 579 -15 585 q -23 581 -25 579 q -22 582 -21 582 q -25 581 -25 583 q -28 579 -25 579 q -26 578 -28 578 q -25 575 -25 578 q -26 574 -25 574 q -26 576 -26 575 l -28 578 q -33 574 -29 578 q -37 569 -36 571 q -40 567 -37 568 q -57 558 -49 561 q -78 536 -68 549 q -99 515 -87 524 l -99 517 q -101 518 -99 517 q -108 510 -104 515 q -115 504 -111 504 q -117 504 -117 503 q -119 501 -119 504 q -124 503 -118 499 q -108 520 -117 511 q -92 538 -100 529 q -97 536 -94 538 q -103 535 -100 535 q -90 555 -99 546 q -75 571 -82 564 q -79 575 -76 574 q -83 572 -82 574 q -87 569 -85 571 q -87 571 -89 571 q -89 572 -89 574 q -92 574 -89 571 l -89 575 q -93 576 -93 578 q -97 571 -93 574 q -104 563 -100 568 q -115 551 -108 558 q -122 546 -119 550 q -128 539 -125 542 q -134 538 -131 538 q -135 532 -137 538 q -145 526 -143 532 q -150 518 -147 521 q -149 519 -151 519 q -150 522 -147 519 q -156 518 -151 522 l -156 522 q -161 519 -160 522 q -165 514 -162 515 q -164 523 -162 518 q -165 535 -165 528 q -167 533 -167 535 q -167 535 -167 532 q -167 538 -169 538 q -167 542 -164 539 q -150 565 -158 554 q -135 586 -142 576 l -139 586 q -135 591 -139 589 q -132 599 -131 593 l -135 601 l -132 601 q -135 603 -135 604 q -136 601 -135 601 q -137 603 -139 601 q -136 606 -135 604 q -139 606 -139 608 q -142 606 -139 604 q -136 616 -142 614 q -131 625 -131 618 q -125 629 -128 626 q -119 635 -122 632 q -124 634 -122 635 q -128 633 -125 633 q -122 640 -126 636 q -115 647 -117 644 q -117 653 -122 650 q -118 652 -117 651 q -117 651 -119 653 q -115 653 -115 649 l -117 653 q -113 658 -119 658 q -106 660 -107 657 q -106 664 -110 664 l -106 661 q -103 664 -103 661 q -104 664 -106 665 q -106 665 -103 663 l -106 668 q -118 660 -111 663 q -126 649 -125 657 l -128 651 q -143 639 -136 646 q -158 626 -150 632 q -133 656 -146 643 q -106 681 -119 668 l -126 668 q -128 663 -128 665 q -132 661 -129 660 q -119 676 -128 667 q -101 692 -110 685 q -98 694 -99 694 q -94 696 -97 694 l -94 700 q -51 725 -74 711 q -7 754 -29 739 l -10 754 q -6 759 -7 757 q 1 758 -4 761 q 44 790 22 774 q 90 824 67 806 l 90 826 l 92 824 q 115 839 101 832 q 118 849 115 847 q 114 851 115 849 q 114 852 117 851 q 118 856 111 853 l 114 856 q 115 868 115 860 l 118 868 l 117 868 l 118 869 l 115 869 l 118 869 l 114 869 q 116 871 115 871 q 114 871 117 871 l 115 872 q 115 874 115 872 l 118 874 q 115 878 115 874 q 118 876 117 878 l 118 875 q 119 878 121 878 q 121 878 118 878 l 122 878 q 125 879 125 878 l 125 882 q 126 883 125 882 l 129 883 l 131 883 l 129 883 l 125 883 l 122 883 l 126 883 q 124 885 125 883 q 122 886 122 885 q 122 883 121 883 q 121 879 124 882 q 117 881 117 879 q 121 882 118 882 l 115 882 l 115 883 l 121 883 l 121 885 l 119 885 q 117 884 118 885 q 115 883 117 883 q 119 886 118 886 l 121 886 l 118 886 l 122 886 q 125 896 125 888 l 125 901 q 125 908 125 901 l 129 908 q 126 910 124 908 q 126 914 129 911 l 129 914 q 126 917 126 917 q 126 921 126 918 l 125 921 l 126 922 l 126 925 l 129 925 l 129 926 l 126 926 l 128 926 q 129 929 128 926 q 128 932 131 931 q 129 933 126 933 l 133 933 q 131 936 126 933 q 128 936 128 936 q 129 938 129 936 l 133 938 l 129 938 l 131 938 q 131 943 128 943 q 133 943 133 943 q 138 944 135 944 l 138 947 q 138 950 138 949 q 139 953 139 951 l 140 953 q 139 954 140 956 q 139 956 138 953 q 140 956 142 956 q 140 957 138 956 l 139 957 l 138 960 l 139 958 l 139 960 l 140 960 q 142 960 142 960 q 139 961 142 961 q 142 963 142 961 q 144 964 142 964 q 150 961 149 964 l 153 961 q 154 958 154 960 q 157 953 154 956 q 158 961 160 958 q 158 967 157 964 q 161 966 161 967 q 164 965 161 965 l 165 965 q 168 972 168 967 l 172 972 q 176 966 172 968 q 176 961 179 964 l 174 961 q 172 957 172 961 q 175 949 174 953 q 176 943 176 946 q 181 925 183 935 l 182 925 q 180 922 179 922 q 182 921 181 922 q 181 913 182 918 q 182 906 179 908 q 183 900 185 903 q 182 894 181 897 q 183 897 185 896 q 186 901 182 899 q 190 906 192 904 q 190 910 188 907 l 189 910 q 188 918 186 913 q 189 926 189 924 q 188 929 189 928 l 186 929 q 187 937 183 932 q 189 947 190 942 q 190 942 190 944 q 190 938 189 940 q 192 938 190 938 l 193 938 q 192 936 193 936 q 192 935 192 936 l 190 933 q 194 919 193 926 q 199 906 194 913 l 203 906 q 201 903 200 904 q 197 901 201 901 l 201 901 q 199 899 203 901 q 197 896 194 896 l 201 896 q 204 899 203 899 q 206 901 206 899 q 207 904 206 901 l 206 901 l 206 903 q 207 904 206 903 l 206 904 l 207 904 q 206 907 204 906 q 207 910 207 908 q 208 910 207 913 q 211 910 208 908 q 210 915 213 913 q 211 921 208 918 q 213 922 214 922 q 215 921 213 921 l 215 925 q 213 924 213 925 q 211 922 213 922 q 210 926 208 925 q 208 926 211 926 q 213 928 214 926 q 208 929 211 929 l 210 929 q 211 931 210 929 l 208 931 q 208 935 208 933 q 208 940 207 938 l 211 940 l 207 940 q 207 943 208 943 q 208 944 206 943 q 210 944 211 944 q 211 943 208 943 q 213 944 211 943 q 211 953 211 949 q 215 949 215 951 q 217 947 214 947 q 216 944 215 944 q 217 940 217 943 l 217 942 q 219 943 217 942 l 219 940 q 221 943 221 940 q 222 942 224 943 q 224 940 221 940 q 222 943 225 943 q 221 944 219 943 l 224 944 l 225 947 q 225 943 229 943 q 226 940 228 940 q 228 940 225 940 l 224 940 q 222 935 221 938 q 224 931 224 933 q 226 933 228 933 q 228 936 225 933 l 228 933 q 225 932 225 933 q 228 931 225 931 l 229 931 q 229 926 229 931 l 228 926 q 228 926 231 926 q 228 925 225 925 q 226 926 222 925 q 228 929 229 926 q 224 922 221 925 l 228 922 l 228 921 q 224 914 224 918 q 228 914 224 914 l 229 914 l 228 913 q 344 965 285 946 q 395 978 369 972 q 450 981 421 983 q 510 969 481 979 q 564 944 540 960 q 642 865 615 910 q 688 776 669 819 q 715 686 704 733 q 725 588 725 639 q 708 486 722 536 q 664 392 694 436 q 616 337 644 361 q 554 294 588 313 q 691 261 622 286 q 821 192 760 236 q 881 140 853 168 q 932 81 908 113 q 953 51 943 65 q 975 21 964 36 q 994 -10 985 7 q 1014 -44 1003 -28 m 228 931 q 228 929 228 929 q 228 931 225 929 m 208 938 q 210 939 211 940 q 211 938 208 938 l 211 940 l 213 940 q 208 938 208 940 m 211 925 q 213 926 213 925 q 211 925 211 926 l 213 926 l 214 925 l 211 925 m 211 933 l 210 932 q 211 931 210 931 q 213 932 211 931 l 213 933 l 211 933 m 215 933 l 211 933 q 213 936 213 936 q 211 936 213 936 l 208 933 l 211 933 l 213 933 l 215 933 m -132 599 q -130 601 -132 601 q -131 601 -128 601 l -132 601 l -132 599 m -119 635 q -111 640 -114 636 q -103 647 -108 644 q -112 643 -108 647 q -119 635 -117 639 m 138 188 q 138 186 138 185 q 139 189 139 188 q 138 188 138 189 m 139 189 q 139 189 139 189 m 139 208 q 139 211 138 214 q 140 215 140 208 q 139 214 139 215 l 139 211 q 138 211 135 215 l 138 210 q 139 208 138 208 m 146 208 q 144 208 146 211 q 146 207 146 207 l 146 208 m 144 213 l 144 211 q 142 215 144 213 q 143 213 143 214 q 142 211 143 211 l 142 213 q 144 213 139 224 m 142 192 q 142 190 142 189 q 144 192 142 192 l 142 192 m 144 193 q 147 192 146 190 q 150 193 149 193 q 147 194 147 196 q 144 193 146 192 m 174 140 q 175 141 176 140 q 176 142 174 142 q 174 143 174 144 q 174 144 174 142 l 174 140 m 181 144 q 179 142 181 142 q 178 140 178 143 l 178 144 q 178 143 178 142 q 181 146 178 144 q 181 144 181 143 q 182 146 181 144 l 182 144 l 185 142 q 182 143 182 144 q 181 144 182 142 m 185 144 q 186 146 185 144 q 185 145 185 146 q 182 144 185 144 q 185 143 183 144 l 185 142 l 185 144 m 190 146 l 190 149 l 190 146 l 192 146 q 193 149 193 147 q 192 146 192 146 l 190 146 m 278 -85 l 278 -83 l 278 -82 l 278 -85 m 271 288 q 266 287 268 288 q 263 286 264 286 l 263 292 q 271 288 267 288 m 213 921 q 215 917 213 917 q 213 921 215 918 m 208 908 q 213 909 211 908 q 213 910 215 910 q 214 913 213 913 q 213 914 215 913 q 215 912 218 914 q 215 910 213 910 q 217 914 218 913 q 217 918 215 915 q 217 906 221 915 l 215 904 l 213 904 l 213 908 q 210 906 210 906 q 208 904 211 906 l 208 908 m 208 901 l 211 901 l 208 901 m 186 894 q 185 886 178 889 q 186 890 185 890 l 189 890 q 189 891 186 890 q 189 892 192 892 q 188 892 186 890 q 186 894 189 894 m 178 918 q 176 917 178 917 l 178 917 q 181 917 181 917 q 178 918 181 918 m 176 917 q 176 913 176 914 q 178 913 175 913 q 178 914 178 913 q 178 915 178 914 q 176 917 176 915 m 178 910 q 175 906 174 907 q 174 901 176 904 l 178 901 l 178 910 m 174 901 l 176 901 l 174 901 m 174 892 q 176 899 174 896 l 178 897 l 178 896 l 181 896 l 178 896 q 177 891 176 893 q 178 886 178 889 q 175 888 175 886 q 176 890 175 889 q 174 889 174 889 l 174 888 q 173 889 172 888 q 176 892 174 890 l 174 892 m 158 918 q 161 918 158 918 l 158 918 m 158 926 q 158 930 157 929 q 157 931 160 931 q 156 928 157 929 q 158 926 154 926 m 157 931 q 155 932 154 931 q 158 933 156 933 q 157 931 158 933 m 157 953 q 157 951 157 951 q 156 951 154 951 q 157 953 157 951 m 157 938 q 156 942 154 940 q 154 944 157 943 q 156 942 157 943 q 157 938 154 940 m 157 949 l 154 949 l 157 949 m 154 947 q 154 944 154 944 q 156 946 156 944 q 154 947 156 946 m 157 936 q 153 933 153 933 l 157 933 q 154 932 154 933 q 157 933 154 931 q 156 933 154 933 q 157 936 158 933 m 150 899 q 151 899 149 899 q 153 901 154 899 q 149 899 150 899 l 150 899 m 142 910 q 140 913 142 913 q 142 914 139 913 l 140 914 q 140 903 139 910 q 139 892 140 897 l 138 892 l 139 892 q 140 891 140 892 q 138 890 139 890 l 139 890 l 139 889 q 140 888 139 888 q 141 897 142 893 q 142 904 140 901 l 140 904 q 141 907 142 906 q 142 910 140 908 m 139 883 q 135 886 139 886 q 139 883 138 883 m 139 936 q 140 933 139 933 q 142 936 140 933 l 139 936 m 140 918 q 141 924 140 921 q 139 931 142 928 q 140 918 139 922 m 140 918 l 142 918 q 140 917 139 918 q 140 914 142 917 q 139 917 138 917 q 139 918 140 917 l 140 918 m 139 913 q 138 913 139 914 q 138 914 138 913 q 136 913 138 913 q 138 913 135 913 l 139 913 m 135 943 q 133 942 132 943 q 135 940 133 940 q 133 936 133 940 q 136 939 138 938 q 138 943 135 940 l 135 943 m 135 936 q 132 935 132 936 q 135 933 132 933 l 138 933 l 135 933 q 136 936 132 936 l 138 936 l 135 936 m 129 896 q 131 893 131 894 q 129 890 131 890 q 134 893 136 892 q 135 896 132 894 l 133 896 q 131 901 133 901 q 129 899 131 900 l 131 897 l 131 896 l 129 896 m 131 888 q 132 889 131 889 l 133 888 q 133 890 135 890 l 131 890 l 133 890 l 131 890 q 131 888 131 888 m 121 871 q 122 870 124 871 q 118 869 121 869 l 121 869 l 125 871 l 121 871 m 131 868 q 133 869 133 868 q 131 869 133 869 q 133 873 129 871 q 131 875 136 875 q 131 876 129 875 q 131 879 133 878 l 133 879 q 132 884 131 882 q 135 888 133 886 q 135 879 135 888 l 138 879 q 136 874 135 878 q 135 868 138 871 l 138 869 q 139 869 140 869 q 135 868 138 868 q 136 862 135 865 q 135 856 138 858 q 134 853 135 853 q 133 851 133 853 q 131 868 133 864 m 182 232 l 182 231 l 182 235 l 182 232 m 182 231 q 178 231 182 231 q 181 230 181 228 q 182 231 181 232 m 169 222 q 169 222 168 224 q 169 222 169 219 l 169 219 l 169 222 m 153 193 q 156 194 154 192 q 157 193 157 196 q 156 197 157 196 q 157 196 154 197 l 154 196 l 154 197 q 153 193 153 196 m 158 193 q 158 196 158 196 q 158 193 157 196 m 158 196 q 163 194 161 193 q 165 196 164 196 q 162 198 163 200 q 158 196 161 196 m 150 211 q 158 210 156 208 q 165 213 160 213 q 156 214 160 215 q 150 211 153 213 m 168 213 q 167 215 165 217 q 169 215 169 213 q 167 216 167 218 q 165 218 168 214 l 165 215 q 165 214 165 213 q 168 213 165 215 m 174 197 q 176 197 174 197 q 174 199 175 199 l 174 197 m 174 215 q 178 218 176 218 q 182 219 181 218 l 182 218 q 183 219 182 218 l 185 219 l 185 222 q 176 221 179 222 q 169 218 172 219 q 169 215 169 214 q 172 213 169 217 q 172 216 172 217 q 174 215 172 215 m 193 131 q 194 129 193 129 q 194 131 194 129 q 193 133 193 133 l 193 131 m 194 133 q 197 133 197 131 q 197 135 197 136 l 197 136 l 196 135 q 194 133 194 135 m 264 -42 q 267 -39 267 -42 l 264 -39 l 264 -42 m 271 -24 q 272 -31 269 -25 q 271 -24 272 -26 m 471 335 q 544 372 511 347 q 599 433 578 397 q 629 506 619 465 q 639 586 639 546 q 627 665 638 625 q 601 740 617 704 q 562 808 583 776 q 511 858 540 839 q 449 874 483 874 q 379 860 415 874 q 316 829 347 847 q 254 789 285 811 q 256 560 254 674 q 260 335 257 447 q 299 329 278 332 q 339 325 319 326 q 387 323 364 322 q 429 326 410 324 q 471 335 451 329 m -489 -994 q -481 -992 -481 -992 q -489 -994 -481 -992 m -475 -989 l -474 -989 l -475 -989 m -478 -992 l -478 -990 q -475 -989 -476 -989 q -478 -992 -475 -992 z "},"C":{"ha":446,"x_min":0,"x_max":1917,"o":"m 1649 -74 q 1646 -74 1647 -75 q 1617 -90 1631 -82 q 1589 -107 1604 -99 q 1494 -157 1540 -135 q 1413 -196 1449 -179 q 1331 -232 1369 -215 q 1154 -298 1243 -268 q 972 -349 1065 -328 q 787 -381 881 -371 q 597 -385 693 -392 q 408 -351 501 -378 q 231 -269 314 -324 q 85 -137 147 -214 q 57 -97 69 -117 q 33 -53 44 -76 q 13 -6 19 -26 q 4 24 8 6 q 0 58 0 42 l 93 238 l 183 403 q 277 569 229 488 q 381 733 325 651 q 410 773 396 753 q 439 813 424 793 q 474 852 457 835 q 511 888 492 869 q 550 922 529 906 q 599 951 571 938 q 654 976 624 967 q 721 982 685 985 q 787 967 756 981 q 842 936 818 954 q 885 901 865 919 q 921 863 904 882 q 961 814 943 838 q 999 767 979 790 q 1021 740 1010 753 q 1043 713 1032 726 q 1078 658 1069 681 q 1084 642 1081 650 q 1090 628 1088 633 q 1087 631 1088 628 q 1085 636 1086 633 q 1084 638 1085 638 q 1083 642 1083 639 l 1083 632 q 1094 610 1089 621 q 1103 586 1099 600 q 1093 604 1096 594 q 1083 621 1090 614 q 1081 619 1082 619 q 1074 611 1079 617 q 1076 603 1076 606 q 1069 608 1071 604 q 1076 592 1069 601 q 1078 583 1074 586 q 1079 574 1082 579 q 1078 574 1078 572 q 1075 574 1078 575 q 1075 572 1074 572 q 1074 571 1076 571 l 1074 572 l 1071 572 q 1072 570 1071 571 q 1072 568 1074 569 q 1071 567 1072 568 q 1070 560 1068 564 q 1071 554 1072 557 q 1067 554 1071 554 q 1075 530 1071 543 q 1083 503 1079 517 q 1083 499 1081 500 q 1082 494 1085 497 q 1079 494 1079 494 q 1074 476 1074 483 q 1071 482 1071 478 q 1067 488 1071 486 q 1066 485 1065 486 q 1065 483 1067 485 q 1061 489 1063 488 q 1060 488 1058 488 q 1060 486 1063 488 q 1057 496 1057 490 q 1051 504 1057 501 q 1051 509 1056 508 q 1046 513 1047 510 q 1041 521 1043 515 q 1036 531 1039 526 q 1025 554 1026 544 q 1023 558 1022 556 q 1019 560 1024 561 q 1019 557 1019 557 q 1017 556 1017 554 q 1015 557 1018 558 q 1017 556 1015 556 q 1015 554 1018 556 q 1010 561 1013 557 q 1006 568 1008 565 q 1002 575 1003 571 q 996 581 1001 579 q 998 578 997 578 q 1000 575 999 578 q 1000 568 997 571 q 1004 563 1003 565 q 1013 540 1007 551 q 1019 515 1019 528 q 1014 520 1017 518 q 1008 522 1011 522 q 1025 479 1021 501 q 1022 481 1021 478 q 1022 485 1022 483 l 1021 483 q 1016 492 1017 486 q 1013 500 1015 497 l 1008 500 q 997 526 1001 511 q 982 553 992 542 q 975 560 979 556 q 968 567 971 564 q 965 576 968 571 q 963 580 964 578 q 960 582 963 582 l 958 581 q 958 581 958 581 q 958 582 957 582 q 960 583 960 582 q 959 585 958 583 q 957 588 960 588 q 956 586 954 588 q 956 585 958 585 q 919 639 939 617 q 917 644 918 642 q 914 649 915 646 q 901 665 907 657 q 890 681 896 674 q 853 728 871 704 q 818 772 836 751 q 760 828 789 806 q 711 850 731 850 q 658 836 689 853 q 594 792 626 819 q 563 762 579 776 q 535 732 546 747 q 508 698 521 715 q 481 663 494 681 q 380 507 428 586 q 283 344 332 428 l 189 183 l 108 38 l 113 28 q 119 11 115 19 q 126 -7 124 3 q 146 -42 135 -25 q 168 -76 157 -60 q 283 -189 214 -139 q 432 -262 351 -236 q 600 -296 513 -287 q 949 -273 774 -311 q 1296 -169 1125 -235 q 1494 -87 1404 -128 q 1653 -11 1585 -46 q 1654 -10 1653 -11 q 1665 -4 1660 -7 q 1675 1 1669 -1 l 1688 10 q 1694 16 1690 13 q 1700 18 1699 19 q 1725 33 1714 26 q 1734 40 1729 36 q 1743 46 1739 43 q 1747 49 1746 47 q 1750 50 1749 50 q 1747 47 1749 49 q 1743 43 1744 46 q 1744 43 1743 43 l 1742 43 q 1742 41 1743 42 q 1742 39 1740 40 q 1739 38 1739 39 q 1738 38 1739 38 l 1738 36 q 1738 35 1738 36 q 1741 37 1739 36 q 1743 39 1743 38 l 1744 39 q 1749 43 1747 40 q 1754 44 1751 46 q 1756 46 1754 46 l 1756 49 q 1758 50 1757 50 q 1761 51 1760 50 q 1764 54 1761 51 q 1770 59 1768 57 q 1775 63 1772 61 l 1775 61 q 1777 62 1776 63 q 1779 64 1778 61 q 1777 63 1778 64 q 1775 63 1776 61 q 1781 67 1779 65 q 1788 71 1783 69 q 1790 74 1788 72 q 1793 75 1792 76 q 1788 72 1790 74 q 1783 68 1786 69 q 1787 69 1786 67 q 1790 69 1788 71 l 1790 71 q 1792 71 1792 69 q 1790 71 1792 72 q 1794 74 1792 74 q 1797 78 1796 75 q 1800 78 1797 75 q 1803 81 1799 81 q 1801 79 1803 79 q 1800 78 1800 79 q 1808 85 1806 81 q 1806 83 1807 85 q 1803 82 1806 82 q 1808 86 1806 83 q 1806 85 1807 86 q 1803 85 1806 83 q 1811 90 1808 88 q 1818 94 1814 92 l 1818 96 q 1821 98 1821 96 q 1824 99 1821 100 l 1825 99 l 1824 99 q 1832 104 1825 100 q 1831 103 1832 103 q 1832 103 1832 101 q 1833 103 1832 104 q 1828 100 1831 101 q 1824 97 1826 99 q 1820 94 1821 94 q 1817 90 1819 93 q 1815 90 1815 90 q 1811 87 1813 88 q 1808 83 1810 86 q 1814 88 1811 86 q 1819 92 1817 89 q 1832 99 1822 96 l 1831 100 q 1839 106 1835 103 q 1846 111 1843 108 q 1847 110 1847 111 l 1847 111 q 1851 115 1850 114 q 1854 118 1851 117 q 1854 119 1854 118 q 1859 123 1857 122 q 1863 126 1861 124 l 1864 125 q 1860 121 1861 122 q 1856 117 1858 119 l 1854 117 l 1853 117 l 1853 114 q 1854 115 1853 114 l 1854 117 q 1849 111 1851 111 l 1849 110 q 1836 101 1842 106 q 1824 93 1831 97 l 1824 92 l 1822 90 q 1814 83 1815 88 q 1809 81 1811 82 q 1804 76 1807 79 q 1806 78 1806 76 q 1809 77 1808 75 q 1813 81 1810 79 q 1817 83 1817 85 q 1817 85 1817 85 q 1831 96 1824 90 q 1846 106 1839 101 l 1847 106 q 1863 119 1854 113 q 1879 132 1871 125 q 1894 144 1886 139 q 1908 153 1901 150 q 1912 157 1910 156 q 1917 161 1914 158 q 1913 157 1914 157 q 1913 156 1913 157 q 1905 149 1908 153 q 1897 143 1901 146 q 1899 143 1899 142 q 1896 140 1897 140 q 1893 136 1894 139 q 1899 139 1896 139 q 1881 124 1892 132 q 1864 108 1871 117 q 1867 111 1867 110 q 1871 113 1868 113 q 1869 111 1871 111 q 1869 110 1868 111 q 1868 110 1869 110 l 1869 110 q 1861 103 1867 107 q 1853 96 1856 99 q 1851 96 1853 96 q 1851 94 1853 94 q 1850 94 1851 94 q 1850 93 1850 93 q 1840 85 1844 90 q 1826 78 1835 81 l 1828 78 q 1826 79 1828 78 q 1836 88 1835 82 q 1825 79 1831 83 q 1814 71 1819 75 l 1814 69 q 1818 72 1815 69 q 1819 73 1818 74 q 1819 74 1819 72 l 1821 74 q 1822 74 1822 74 q 1824 75 1822 75 q 1822 76 1824 75 q 1826 78 1824 78 l 1829 78 q 1822 72 1825 75 q 1814 67 1818 69 q 1799 40 1814 56 q 1785 27 1792 33 q 1769 14 1779 21 l 1769 13 l 1771 13 q 1765 10 1765 11 q 1763 8 1764 10 q 1760 6 1760 6 q 1757 4 1758 6 q 1760 6 1758 4 q 1740 -11 1749 -4 q 1719 -25 1731 -18 q 1741 -10 1731 -19 q 1763 6 1751 -1 q 1776 15 1769 10 q 1788 24 1782 19 q 1771 10 1781 17 q 1753 -3 1761 4 q 1738 -15 1746 -10 q 1722 -26 1731 -19 q 1729 -22 1726 -24 q 1735 -19 1732 -21 q 1722 -28 1729 -25 q 1711 -37 1714 -32 q 1717 -34 1714 -35 q 1721 -32 1719 -33 q 1723 -31 1722 -32 q 1726 -29 1724 -29 q 1726 -31 1726 -31 q 1721 -33 1724 -31 q 1717 -36 1718 -35 q 1699 -44 1711 -40 q 1676 -53 1688 -49 l 1664 -61 q 1661 -68 1661 -64 q 1667 -65 1664 -65 q 1675 -61 1671 -64 q 1668 -68 1668 -65 q 1660 -72 1664 -71 q 1651 -75 1656 -72 q 1649 -75 1651 -75 l 1649 -74 m 1825 76 q 1824 77 1825 78 q 1824 75 1824 76 l 1825 76 m 1829 101 q 1826 100 1828 101 l 1828 100 q 1829 101 1828 100 m 996 582 q 997 587 999 585 q 994 592 994 589 q 992 590 993 590 q 996 582 988 585 m 1069 568 q 1071 571 1072 571 q 1068 572 1069 571 q 1069 568 1069 572 m 1797 69 q 1796 68 1796 68 q 1797 69 1797 69 m 1779 64 q 1783 67 1779 63 q 1781 65 1782 65 q 1779 64 1779 65 z "},"D":{"ha":1008,"x_min":-224,"x_max":1033,"o":"m 1024 626 q 1027 609 1026 617 q 1029 593 1028 601 q 1033 576 1032 583 q 1033 564 1033 569 q 1030 543 1031 553 q 1028 525 1029 533 q 1021 485 1025 504 q 1010 447 1017 465 q 951 313 988 374 q 875 193 915 251 q 787 83 832 135 q 693 -19 742 31 q 492 -206 596 -118 q 279 -376 388 -294 q 170 -458 221 -421 q 78 -524 119 -496 q 75 -527 76 -525 q 72 -531 74 -529 q 69 -532 71 -531 q 64 -535 67 -533 l 65 -533 q 68 -531 68 -533 q 56 -538 61 -535 q 49 -544 51 -542 q 37 -557 42 -551 q 29 -565 32 -562 q 22 -568 26 -567 q 18 -572 18 -569 q 17 -572 18 -571 q 18 -569 17 -569 l 19 -569 q 26 -565 24 -567 q 31 -562 28 -564 q 17 -569 24 -564 q 4 -576 11 -574 q 8 -572 6 -574 q 14 -567 11 -569 q -1 -578 7 -572 q -17 -589 -8 -583 q -53 -614 -32 -604 q -26 -594 -37 -607 q -6 -581 -18 -587 q 14 -564 6 -574 q -5 -578 4 -571 q -25 -592 -14 -585 q -24 -590 -24 -592 q -28 -593 -25 -592 q -32 -600 -31 -594 q -33 -598 -33 -596 q -35 -601 -33 -600 l -33 -601 q -36 -601 -35 -600 q -65 -615 -67 -615 q -67 -610 -68 -612 q -67 -604 -67 -608 q -83 -614 -75 -608 q -87 -617 -86 -615 q -90 -615 -87 -618 q -81 -610 -85 -612 q -74 -604 -76 -608 q -101 -622 -87 -612 q -128 -639 -114 -631 q -115 -632 -119 -639 l -114 -632 q -127 -642 -119 -639 q -139 -651 -135 -644 q -140 -650 -140 -651 q -140 -649 -139 -649 l -140 -651 l -142 -651 l -142 -653 q -151 -657 -146 -653 q -160 -664 -157 -661 l -160 -661 l -160 -664 q -160 -662 -160 -661 q -164 -664 -161 -664 q -160 -660 -161 -661 q -157 -658 -158 -660 q -177 -672 -167 -665 q -196 -682 -187 -679 q -193 -678 -196 -681 q -196 -680 -194 -679 q -199 -682 -197 -681 l -199 -681 q -208 -685 -203 -683 q -217 -689 -214 -686 l -218 -689 q -224 -693 -218 -690 q -219 -690 -221 -692 q -214 -686 -217 -687 q -200 -676 -208 -681 q -185 -667 -192 -672 q -167 -653 -176 -660 q -150 -643 -157 -647 q -150 -642 -149 -642 q -135 -632 -143 -636 q -117 -622 -128 -628 q -111 -619 -117 -622 q -107 -614 -106 -617 q -106 -612 -107 -614 q -110 -616 -108 -614 q -115 -619 -112 -618 q -125 -624 -117 -621 q -131 -626 -125 -629 q -142 -634 -137 -629 q -153 -642 -147 -639 l -156 -642 q -157 -645 -156 -644 q -160 -647 -158 -646 l -160 -646 q -160 -647 -161 -647 q -167 -651 -165 -649 q -174 -656 -169 -653 l -174 -653 q -169 -649 -171 -651 q -164 -646 -167 -647 q -161 -646 -161 -646 q -156 -640 -160 -642 q -154 -642 -153 -642 q -153 -642 -156 -642 q -156 -640 -153 -642 q -148 -635 -151 -637 q -140 -629 -144 -632 l -139 -629 q -133 -626 -135 -628 q -128 -622 -131 -624 l -125 -622 q -120 -618 -122 -621 q -114 -614 -118 -615 q -118 -616 -117 -614 q -122 -619 -119 -618 l -122 -618 l -124 -619 l -122 -619 q -130 -622 -129 -621 q -133 -624 -131 -622 q -139 -628 -137 -626 q -143 -629 -140 -629 q -142 -628 -143 -629 q -143 -628 -142 -628 q -137 -624 -139 -624 q -135 -621 -137 -621 q -131 -619 -132 -621 l -131 -621 q -121 -615 -124 -617 q -111 -610 -118 -612 q -117 -612 -111 -612 q -110 -611 -111 -612 q -112 -612 -110 -612 q -114 -614 -114 -612 q -110 -612 -111 -612 q -106 -610 -108 -611 q -108 -610 -107 -610 q -110 -611 -108 -611 q -106 -607 -106 -607 l -103 -607 l -103 -606 q -99 -603 -100 -606 q -94 -603 -97 -601 q -93 -599 -94 -600 q -92 -593 -92 -599 q -96 -600 -93 -599 q -101 -604 -99 -601 q -94 -600 -101 -600 q -89 -592 -92 -593 q -82 -589 -86 -592 q -84 -590 -82 -590 q -83 -592 -86 -590 q -82 -590 -83 -592 l -82 -589 q -78 -585 -81 -586 q -72 -582 -75 -583 q -69 -581 -72 -581 q -65 -576 -65 -576 q -64 -575 -65 -575 l -64 -576 l -62 -574 q -59 -571 -62 -572 q -53 -567 -56 -569 q -54 -565 -54 -567 q -44 -562 -53 -565 q -46 -562 -46 -561 l -46 -561 q -53 -564 -53 -565 q -55 -564 -54 -562 q -57 -564 -56 -565 l -57 -565 q -58 -565 -60 -565 q -57 -564 -57 -565 q -65 -569 -62 -567 q -61 -564 -65 -568 q -40 -550 -50 -560 q -30 -543 -35 -547 q -18 -535 -25 -539 q -15 -530 -19 -533 q -7 -524 -10 -526 q 1 -517 -4 -519 q 10 -510 6 -514 q 13 -507 10 -510 l 14 -507 q 25 -499 19 -501 q 49 -478 36 -489 q 74 -456 61 -467 q 131 -408 103 -432 q 182 -367 158 -385 q 232 -328 207 -346 q 435 -151 336 -242 q 625 39 533 -61 q 793 244 715 136 q 861 357 831 299 q 910 475 892 415 q 915 505 913 490 q 919 535 918 519 q 922 564 922 549 q 919 583 922 579 q 892 622 913 604 q 844 654 871 640 q 727 702 789 683 q 603 740 665 721 q 478 767 542 756 q 351 789 415 778 q 351 771 354 778 q 351 781 351 776 q 350 789 350 785 q 346 790 347 789 q 342 790 344 790 q 335 498 338 644 q 325 201 332 351 q 318 100 322 140 q 311 54 314 60 q 310 56 310 54 l 310 58 l 310 54 q 308 53 310 54 q 310 49 310 53 q 308 47 310 49 q 307 54 310 51 q 308 56 307 54 l 308 58 q 304 60 306 58 l 304 58 q 299 58 300 56 q 299 61 299 60 q 285 74 289 64 q 282 64 282 71 l 282 47 l 282 36 q 281 19 282 22 l 281 29 q 282 55 282 44 q 282 76 282 65 l 281 78 l 281 54 l 281 63 l 279 63 l 279 53 q 281 51 279 53 q 279 53 279 53 q 281 51 281 53 l 281 44 q 281 51 279 47 l 279 51 l 279 49 l 279 47 l 279 40 l 279 39 l 281 39 q 279 33 278 33 l 279 35 l 279 39 l 279 33 l 279 31 l 279 26 l 279 29 l 279 28 l 281 28 q 279 26 279 28 l 281 26 l 279 26 l 279 25 l 279 24 l 279 26 l 279 24 l 279 22 l 279 24 q 278 22 279 24 l 278 26 l 279 26 l 279 28 l 278 28 q 276 31 278 31 q 278 32 276 31 l 278 33 q 279 40 278 40 l 279 43 q 278 42 279 43 q 278 49 278 42 l 279 49 l 279 51 l 278 51 l 278 49 l 278 50 q 279 53 278 51 l 279 58 l 279 63 l 278 63 l 278 60 l 278 61 l 278 60 l 278 58 q 277 49 276 54 q 276 42 278 43 l 276 47 l 276 33 q 276 26 275 31 q 275 19 276 22 l 275 21 q 274 22 272 21 q 272 22 275 22 l 272 10 l 272 11 l 271 10 l 272 8 l 272 7 l 271 6 l 271 4 l 271 1 l 271 -4 l 272 -4 q 271 -7 271 -6 l 271 -14 l 272 -14 l 271 -15 l 271 -18 l 271 -19 l 271 -22 q 271 -26 268 -25 q 271 -28 274 -26 q 269 -26 271 -26 l 269 -28 l 269 -32 l 269 -29 l 271 -29 q 269 -35 271 -33 l 269 -32 q 268 -37 268 -35 q 267 -43 268 -39 q 267 -38 267 -42 q 267 -33 268 -35 l 267 -35 l 267 -32 l 267 4 q 268 21 267 15 l 268 26 q 267 25 267 26 q 267 24 268 24 l 267 58 l 267 43 l 267 42 l 267 31 q 264 15 264 24 q 264 0 264 7 q 263 3 263 0 l 263 6 q 263 -8 263 -1 q 261 -22 263 -15 l 261 -24 l 261 -18 l 261 -10 l 261 4 l 261 14 l 263 14 q 263 26 263 21 q 261 39 263 32 l 261 65 l 261 64 q 262 89 261 75 q 261 118 263 103 l 261 146 q 258 168 258 157 q 256 186 257 179 q 254 201 254 194 q 235 506 246 354 q 214 810 225 657 q 200 811 207 811 q 186 813 193 811 l 186 794 q 185 779 186 783 q 185 786 186 782 q 185 794 185 790 l 185 813 q 132 819 157 815 q 79 825 107 822 l 74 825 q 59 826 67 826 q 43 826 51 826 q 44 827 42 828 q 47 828 47 826 l 42 828 l 40 828 q 40 826 39 828 q 39 826 40 825 l 39 828 q 36 829 39 829 q 32 829 33 829 q 19 826 25 829 q 10 829 15 828 q 1 831 4 831 q -27 830 -12 833 q -57 828 -42 826 l -57 831 q -67 829 -62 831 q -75 829 -72 828 l -75 831 q -79 829 -78 831 q -81 833 -81 828 q -60 838 -72 836 q -35 840 -49 839 q -40 844 -37 843 q -46 846 -43 844 q -24 853 -36 853 q 0 856 -11 853 q 6 856 3 857 q 11 858 10 856 l 13 858 q 11 863 13 860 q 3 860 10 860 q -4 860 0 860 q -12 863 -8 860 q -10 863 -12 863 q -11 863 -10 865 q -12 867 -12 861 l -10 867 q -14 871 -12 874 q -18 872 -15 868 q -42 867 -29 865 q -53 865 -47 867 q -64 865 -58 864 q -68 869 -65 867 q -72 865 -71 872 q -83 866 -79 868 q -93 864 -87 864 q -92 865 -93 865 q -92 865 -90 864 q -97 867 -92 867 q -96 869 -97 868 q -94 872 -94 869 q -101 872 -97 875 q -107 872 -104 869 q -100 878 -103 875 q -94 885 -97 882 l -96 886 l -97 886 q -92 890 -94 890 q -90 893 -90 889 q -62 899 -75 896 q -37 903 -50 901 q -39 904 -37 904 q -40 907 -40 904 q -34 909 -37 910 q -28 913 -31 908 l -28 915 q -27 917 -28 918 q -25 915 -26 915 q -28 918 -25 918 q -26 919 -28 919 q -25 919 -25 918 q -26 922 -25 922 q -26 924 -28 922 q -19 927 -24 929 q -10 931 -14 925 q 6 931 -1 928 q 1 932 3 932 q -3 935 0 932 q 8 937 1 938 q 18 936 14 936 q 19 943 17 943 q 19 942 19 942 q 18 942 18 943 q 22 942 19 940 l 21 942 q 19 943 19 942 q 27 944 24 950 q 33 942 31 939 q 35 946 33 947 l 35 942 l 38 942 q 36 944 38 944 q 35 946 35 943 q 38 947 38 946 q 39 947 38 947 q 24 951 32 947 q 10 947 17 956 l 10 953 q -8 953 3 954 q -28 953 -18 951 q 10 959 -8 958 q 50 963 29 960 q 36 964 43 963 q 22 963 29 965 q 13 965 14 963 q 34 967 22 965 q 57 969 46 969 q 76 967 68 968 q 96 963 85 965 q 97 965 96 964 l 99 965 q 135 960 118 963 q 172 953 153 957 l 172 954 q 177 954 174 954 q 183 951 181 954 q 194 948 189 949 q 204 946 200 947 l 204 953 l 204 958 q 206 990 204 974 q 204 1022 207 1006 l 207 1022 q 208 1017 208 1019 q 211 1014 208 1015 q 210 1011 210 1014 q 208 1008 210 1008 q 209 992 211 1001 q 207 971 207 982 q 208 969 207 969 q 208 965 208 968 q 218 974 210 971 q 218 999 219 986 q 217 1028 217 1013 q 222 1038 219 1031 q 233 1042 225 1044 q 239 1044 236 1044 q 241 1039 239 1042 q 246 1039 243 1036 q 246 1031 246 1036 q 249 1024 246 1025 q 250 1026 250 1026 q 251 1028 250 1025 q 251 1034 250 1032 q 251 1039 251 1036 q 271 1033 267 1039 q 271 1036 272 1035 q 272 1038 269 1038 q 274 1028 272 1035 q 276 1015 275 1021 q 278 1015 278 1015 q 277 1021 278 1018 q 278 1025 276 1024 q 279 1021 279 1024 q 282 1017 279 1018 q 283 1022 282 1018 q 286 1024 283 1025 q 285 1020 283 1024 q 285 1015 288 1017 q 283 1016 285 1017 q 281 1014 281 1015 q 286 1008 283 1008 q 288 1013 286 1013 q 290 1015 289 1013 q 294 1004 290 1007 q 298 1006 297 1004 q 301 1006 299 1008 q 303 1015 304 1013 q 306 1022 303 1018 q 309 1005 308 1014 q 307 989 310 996 q 304 999 307 997 q 304 986 306 992 q 306 978 303 981 q 308 987 308 981 q 314 996 308 993 q 317 996 315 994 q 322 989 317 992 q 324 1001 324 996 q 328 1007 324 1006 q 334 994 333 1000 q 336 981 335 988 q 336 966 336 974 q 338 951 336 958 q 340 947 338 947 l 342 947 q 340 965 342 957 q 338 979 339 972 q 340 981 338 981 q 342 983 342 982 q 339 996 336 993 q 346 975 346 986 q 344 978 346 979 q 345 963 344 971 q 346 946 346 956 l 346 943 l 346 929 q 347 928 347 926 q 346 931 346 929 l 346 932 l 346 922 q 489 893 418 908 q 631 858 560 878 q 766 815 700 838 q 899 753 832 793 q 964 704 932 736 q 997 672 981 690 q 1024 626 1013 653 m -26 913 q -24 913 -26 914 q -24 914 -22 913 q -26 913 -26 914 m 26 931 q 6 931 15 938 q 15 931 11 929 q 26 931 19 932 m 276 47 l 276 63 l 276 47 m 279 64 l 279 68 q 278 65 279 67 l 278 64 l 279 64 m 279 69 l 278 69 l 278 71 q 278 70 279 71 q 279 69 278 69 l 279 71 l 279 69 m 281 72 l 281 64 l 279 65 l 279 68 q 281 69 281 68 q 279 69 281 69 q 281 72 281 71 l 281 74 l 281 79 l 281 72 m -140 -626 l -139 -626 q -140 -626 -140 -628 m -97 -610 q -94 -607 -94 -610 q -97 -610 -97 -607 m -90 -594 q -85 -593 -87 -593 q -86 -592 -83 -593 q -90 -594 -90 -592 z "},"E":{"ha":325,"x_min":-65,"x_max":2196,"o":"m 2071 -487 q 2060 -487 2065 -487 q 2049 -486 2054 -486 q 1969 -481 2011 -485 q 1893 -471 1928 -476 q 1813 -458 1851 -465 l 940 -312 q 722 -274 831 -293 q 503 -235 613 -254 q 303 -194 403 -215 q 103 -150 204 -174 q 101 -149 101 -150 l 97 -149 q 97 -149 97 -149 q 94 -150 94 -149 q 93 -154 93 -150 q 92 -151 93 -151 q 92 -147 92 -150 q 79 -144 85 -144 q 67 -140 74 -143 q 31 -121 40 -132 l 29 -119 l 29 -121 q 28 -119 28 -119 q 26 -121 29 -118 q 25 -119 26 -117 l 25 -117 q 24 -118 24 -119 q 21 -117 24 -117 q 22 -115 21 -117 l 24 -115 q 23 -114 25 -112 q 24 -112 21 -115 q 21 -115 21 -114 q 19 -117 21 -115 q 19 -115 21 -114 q 17 -114 17 -117 q 18 -113 18 -111 q 18 -114 18 -115 l 19 -111 q 19 -111 19 -111 l 21 -111 q 20 -109 21 -110 q 19 -107 19 -108 l 18 -107 q 19 -106 19 -107 l 18 -104 l 18 -107 q 17 -106 18 -106 q 17 -108 17 -107 q 18 -106 17 -106 q 18 -104 19 -106 q 14 -107 17 -107 q 17 -109 15 -110 q 18 -111 18 -108 q 17 -111 17 -115 q 15 -114 18 -111 l 14 -114 q 15 -111 14 -111 q 15 -110 15 -111 l 14 -110 l 13 -110 l 13 -112 l 13 -110 l 13 -108 l 13 -110 q 12 -109 11 -111 q 14 -106 13 -107 q 4 -100 13 -103 q 1 -99 3 -99 q -1 -97 0 -99 q -8 -94 -1 -94 q -7 -92 -8 -94 q -10 -92 -10 -94 q -14 -92 -11 -90 q -12 -89 -14 -92 l -14 -90 q -14 -87 -14 -90 q -17 -89 -17 -90 q -21 -87 -18 -87 q -21 -89 -21 -87 q -22 -87 -22 -89 q -22 -86 -21 -86 q -24 -85 -24 -86 q -25 -84 -25 -85 q -26 -83 -25 -83 q -28 -85 -26 -83 q -26 -82 -28 -83 l -29 -82 q -31 -81 -28 -79 q -33 -79 -33 -82 q -33 -78 -33 -78 q -32 -76 -32 -78 q -35 -79 -33 -78 q -35 -76 -36 -81 q -37 -78 -37 -79 q -39 -78 -37 -78 q -37 -75 -37 -76 q -38 -76 -39 -78 q -39 -76 -37 -74 l -39 -75 q -43 -74 -43 -79 q -42 -71 -43 -71 q -42 -67 -42 -67 l -42 -65 l -43 -67 q -47 -61 -47 -62 q -49 -62 -49 -62 q -50 -62 -49 -61 q -49 -58 -49 -61 q -50 -60 -50 -58 l -50 -61 q -51 -59 -49 -57 q -51 -58 -53 -61 q -53 -61 -51 -58 q -56 -61 -53 -60 q -53 -58 -53 -58 q -56 -60 -54 -58 q -55 -58 -56 -57 q -54 -57 -54 -58 q -56 -57 -54 -54 q -56 -53 -56 -54 q -57 -50 -57 -53 q -50 -47 -54 -47 l -50 -46 q -45 -44 -47 -43 q -40 -43 -43 -46 q -47 -37 -43 -37 q -53 -35 -50 -37 q -47 -33 -51 -33 q -48 -31 -47 -31 q -49 -29 -49 -32 l -46 -29 q -50 -26 -49 -26 q -54 -24 -51 -26 q -54 -22 -54 -21 q -53 -19 -54 -22 q -44 -20 -49 -22 q -37 -22 -39 -18 q -39 -22 -37 -24 q -33 -26 -39 -26 l -17 -31 l -17 -29 q 3 -35 -3 -26 q 4 -33 4 -35 q 6 -35 4 -36 q 10 -35 8 -35 q 17 -38 14 -35 q 26 -40 21 -42 q 25 -43 24 -44 q 28 -42 26 -42 q 33 -44 31 -40 q 39 -47 36 -47 q 36 -44 39 -43 q 33 -39 33 -44 q 35 -37 33 -40 q 31 -35 33 -33 q 28 -31 28 -36 q 26 -33 26 -32 q 15 -31 19 -33 q 6 -25 10 -28 q 3 -26 6 -25 q -7 -22 -4 -26 q -15 -17 -10 -17 q -10 -17 -12 -15 q -4 -18 -8 -19 q -3 -17 -4 -18 q -1 -18 0 -17 q 1 -21 -1 -19 q 16 -25 8 -22 q 35 -26 24 -28 q 38 -22 39 -22 q 40 -24 38 -25 q 40 -28 42 -24 q 42 -26 42 -28 q 44 -28 44 -24 q 47 -31 44 -33 q 47 -28 47 -28 q 47 -26 46 -29 q 47 -28 47 -26 q 51 -26 50 -25 q 54 -28 53 -28 q 56 -27 56 -25 q 60 -26 57 -29 q 51 -23 57 -24 q 43 -18 46 -22 l 43 -19 q 42 -18 42 -21 q 40 -21 42 -18 l 40 -18 q 36 -15 39 -19 q 35 -14 33 -12 q 39 -12 36 -15 q 33 -10 36 -10 q 26 -7 29 -10 q 28 -6 28 -4 q 28 -4 28 -7 q 26 -2 28 -1 q 25 -1 25 -3 q 25 -4 24 -4 q 24 -7 26 -4 q 20 -6 21 -7 q 18 -6 19 -6 q 19 -2 21 -1 q 15 -6 18 -3 l 15 -4 l 15 -3 l 15 -4 q 9 -4 13 -4 q 3 -1 6 -4 q 4 3 3 1 q 3 1 3 1 q 1 -1 3 0 q 0 -1 1 0 q -1 1 -1 -1 q 0 3 0 4 q 1 3 0 1 q 1 3 1 4 q 1 6 0 3 q -3 6 -1 6 q -8 8 -6 7 q -3 9 -6 11 q 1 10 -1 7 q 3 8 3 7 q 6 8 4 10 q 7 11 4 8 l 8 11 q 8 14 8 11 q 9 13 10 15 q 10 14 8 11 q 9 14 11 17 q 6 14 7 11 q 7 17 6 14 q 6 17 6 17 q 4 18 6 18 q 6 18 4 18 q 9 19 7 18 q 11 17 11 19 q 12 17 13 19 q 13 17 11 15 q 11 14 13 15 q 15 11 13 11 q 21 10 18 11 q 20 13 24 14 q 18 15 17 11 q 24 14 19 17 q 25 13 21 13 q 26 15 25 13 q 27 14 26 13 q 31 14 28 15 q 29 10 29 13 q 30 11 31 14 q 31 11 29 8 q 28 10 28 7 q 28 11 29 14 q 32 6 28 3 q 33 8 33 8 q 33 10 32 7 q 35 9 35 10 q 38 10 35 8 l 36 8 q 38 3 36 4 q 42 1 39 3 l 42 6 q 43 6 43 7 q 44 7 43 6 q 49 1 44 0 q 54 -4 54 3 q 57 -1 54 -4 q 58 -2 58 -1 q 61 0 58 -3 q 64 -2 61 -3 q 64 -8 67 -1 q 72 -7 68 -3 l 71 -8 q 74 -10 72 -10 q 72 -8 75 -8 q 74 -7 75 -6 q 75 -7 74 -8 q 76 -13 74 -14 q 81 -12 78 -12 q 80 -11 81 -11 q 79 -10 79 -11 q 83 -10 82 -7 q 86 -11 83 -12 q 85 -14 85 -12 q 93 -15 86 -18 q 94 -15 94 -15 q 96 -14 94 -14 l 96 -12 l 97 -12 q 107 -7 103 -11 l 107 -6 q 108 -7 107 -6 l 111 -7 l 113 -7 q 132 -12 118 -10 l 131 -6 q 128 -1 128 -3 q 131 -1 129 0 l 108 372 q 74 368 93 369 q 38 364 54 367 q 37 365 38 365 q 36 367 36 365 q 40 369 38 368 q 43 372 42 369 q 47 369 43 369 q 63 371 54 372 q 82 371 72 369 q 95 372 89 371 q 108 372 101 374 l 107 379 l 94 379 q 88 380 92 379 q 79 381 83 381 q 56 377 68 381 q 31 374 43 374 q 21 379 28 378 q 17 388 14 381 q 14 389 15 389 q 13 392 13 389 q 18 399 19 396 q 25 399 21 399 q 31 403 29 400 q 30 405 29 404 q 29 407 31 406 q 22 405 25 404 q 15 407 19 406 q 17 417 17 413 q 21 424 17 421 q 18 424 19 425 q 17 425 17 422 q 38 431 26 425 q 36 432 36 432 q 32 431 35 432 q 28 432 29 429 q 31 433 29 433 q 35 436 33 433 q 31 438 33 438 q 29 440 28 438 q 32 440 29 438 q 38 439 35 442 q 35 437 35 439 q 38 436 36 435 q 40 440 40 439 q 39 442 39 440 q 36 444 39 444 q 41 446 39 446 q 44 447 43 446 q 43 451 46 450 q 42 454 40 451 q 35 455 38 457 q 29 456 32 453 q 57 461 44 464 q 49 457 50 458 q 60 458 56 460 q 69 460 65 457 q 60 462 65 463 q 51 467 54 461 q 52 468 53 467 q 50 469 51 469 q 53 472 53 471 q 57 475 54 474 q 46 476 50 476 q 39 481 42 475 q 63 489 49 486 l 96 493 l 94 497 q 80 494 88 496 q 64 490 72 493 q 60 493 61 493 q 49 492 50 490 q 56 497 51 494 q 67 499 61 499 q 65 497 64 499 l 94 501 l 78 683 l 71 679 q 57 683 63 678 q 54 683 56 683 q 51 682 53 682 q 53 669 51 674 q 51 653 53 658 q 50 668 51 664 l 50 681 q 44 679 46 681 q 22 663 33 672 q -1 647 10 653 q -4 649 -4 647 q -12 643 -8 647 q -19 639 -15 639 l -21 640 q -22 637 -21 639 q -25 638 -22 635 q -10 651 -18 644 q 8 665 -1 658 q -3 664 6 667 q 13 682 3 675 q 32 696 24 689 q 38 700 35 699 q 42 706 42 701 q 44 707 43 707 q 43 708 43 707 q 38 706 40 707 q 33 703 36 704 q 18 694 29 700 q 19 697 18 696 q 17 698 17 700 q 15 700 18 696 l 17 701 q 13 701 14 704 q 10 700 13 699 q -8 685 3 692 q -17 679 -14 682 q -25 675 -21 676 q -31 674 -28 674 q -33 668 -35 675 q -42 663 -39 667 q -49 657 -44 660 q -48 658 -50 658 q -47 658 -46 657 q -51 658 -50 660 q -54 657 -51 657 q -54 660 -54 660 q -60 659 -57 663 q -65 654 -62 656 q -62 663 -62 658 q -61 674 -62 667 q -62 674 -62 675 q -64 675 -62 674 q -61 679 -64 678 q -61 683 -58 681 q -40 701 -50 692 q -22 717 -29 710 q -24 717 -24 718 q -25 718 -24 717 q -22 722 -25 721 q -18 729 -18 724 l -19 731 q -17 733 -19 731 q -21 733 -17 733 q -20 733 -22 733 q -19 736 -18 733 q -22 738 -21 739 q -22 738 -22 736 q -17 745 -22 744 q -11 751 -12 746 q -4 756 -7 754 q 1 763 -1 758 q -7 761 -4 760 q 1 767 -4 764 q 8 772 6 769 q 7 779 6 775 q 7 777 8 776 q 7 775 6 778 q 10 778 10 775 l 8 778 q 12 782 7 785 q 18 783 17 779 q 17 786 17 785 q 19 786 17 788 q 19 783 19 783 q 24 785 21 785 q 20 786 21 788 q 18 788 19 785 q 19 789 19 788 q 7 785 14 786 q -3 776 0 783 q -4 779 -3 776 q -19 770 -12 776 q -35 760 -26 764 q -6 783 -21 774 q 24 803 8 792 q 1 793 10 799 q -3 788 -1 790 q -7 788 -4 786 q 7 797 -1 792 q 24 808 15 803 l 21 810 l 33 814 q 64 828 46 821 l 63 831 q 63 833 63 832 q 64 838 64 835 q 63 867 63 853 q 61 896 63 882 q 63 897 61 896 q 65 892 65 894 q 68 889 65 890 q 67 886 67 888 q 65 883 67 885 q 67 866 68 876 q 65 844 65 856 q 67 842 65 843 q 76 851 68 847 q 73 876 75 864 q 72 901 71 889 q 77 913 75 906 q 86 917 79 919 q 88 921 89 919 q 90 922 88 922 q 94 915 92 919 q 99 914 96 911 q 99 907 97 911 q 103 900 100 903 q 106 902 106 903 q 107 903 106 901 q 106 910 106 908 q 107 915 107 913 q 125 910 121 915 q 125 913 126 911 q 126 914 124 914 q 127 904 126 911 q 131 893 128 897 q 132 893 132 893 q 131 898 132 896 q 132 903 129 900 q 133 898 133 900 q 136 894 133 896 q 138 900 138 897 q 140 901 138 903 q 140 898 138 901 q 140 892 143 894 q 137 894 139 894 q 136 892 135 893 q 140 888 138 888 q 143 890 142 890 q 146 893 144 890 q 147 883 146 886 q 151 885 150 882 q 156 886 153 888 q 156 894 158 890 q 157 900 154 897 q 162 884 160 893 q 161 868 164 875 q 157 878 161 875 q 159 868 160 872 q 158 861 158 864 l 163 863 q 165 869 164 867 q 168 875 165 872 q 169 874 168 872 q 172 875 171 875 q 174 872 172 872 q 176 868 175 871 q 177 880 178 875 q 183 888 176 885 q 190 872 188 883 l 194 875 q 195 876 196 875 q 196 876 194 876 l 196 875 l 200 876 q 203 879 200 879 l 203 878 l 471 976 q 528 996 506 990 l 529 997 l 529 996 q 531 997 529 997 q 533 999 532 997 l 533 997 q 551 1004 544 1003 q 558 1006 557 1006 q 572 1011 565 1008 q 586 1017 579 1014 q 567 1008 572 1011 q 560 1004 561 1006 l 560 1003 q 565 1006 560 1003 q 564 1004 565 1004 q 569 1007 569 1004 q 572 1010 572 1006 q 572 1008 574 1008 q 574 1008 574 1007 q 576 1007 575 1010 q 563 999 569 1006 q 575 1004 569 1001 q 588 1010 581 1007 q 587 1008 588 1008 q 586 1007 586 1008 q 564 996 575 1004 q 561 993 561 993 l 561 986 q 572 990 569 989 l 574 989 q 588 994 579 994 q 588 996 588 996 q 589 997 589 996 q 592 999 592 997 l 593 997 q 594 1001 593 1001 q 606 1002 601 999 q 617 1008 611 1006 q 621 1008 621 1008 q 615 1004 618 1006 q 608 999 611 1003 q 630 1010 619 1006 q 650 1019 640 1015 q 642 1017 646 1021 q 640 1018 642 1018 q 650 1024 644 1022 q 658 1028 656 1025 l 658 1026 q 660 1028 658 1028 l 661 1026 q 661 1029 661 1026 q 668 1030 664 1028 q 676 1033 672 1032 q 675 1032 676 1032 q 676 1033 676 1031 q 681 1033 676 1033 q 677 1031 679 1032 q 674 1029 675 1031 q 692 1035 683 1032 q 707 1040 700 1038 q 705 1038 706 1038 q 703 1036 704 1038 q 706 1037 706 1036 q 710 1038 707 1038 q 717 1039 713 1039 q 724 1040 721 1039 l 725 1040 q 729 1042 726 1042 q 721 1039 724 1039 q 711 1033 717 1035 q 699 1029 706 1032 q 683 1023 690 1026 q 668 1017 676 1019 l 668 1015 q 657 1010 663 1013 q 646 1006 651 1008 q 644 1006 644 1007 q 640 1004 642 1006 q 636 1001 635 1004 q 635 999 636 999 q 640 1001 638 999 q 643 1004 642 1003 q 647 1005 646 1004 q 650 1006 649 1006 q 653 1007 651 1007 q 663 1011 658 1010 q 672 1015 667 1013 l 674 1015 q 679 1018 674 1015 q 676 1017 679 1018 q 679 1017 679 1017 q 679 1018 681 1017 q 683 1019 682 1018 q 689 1021 685 1021 l 689 1019 q 686 1018 688 1019 q 682 1015 685 1017 q 681 1017 681 1015 l 681 1015 q 678 1015 679 1015 q 674 1014 676 1014 q 672 1015 672 1014 q 674 1013 672 1015 q 667 1010 671 1013 q 660 1007 664 1008 l 660 1008 q 656 1006 657 1007 q 651 1004 654 1004 q 647 1001 649 1003 q 643 997 646 999 q 650 1001 646 997 l 650 999 q 650 1001 650 999 q 657 1004 651 1001 l 657 1003 q 664 1007 661 1007 q 663 1006 664 1006 q 663 1006 663 1007 q 663 1005 663 1004 q 664 1004 664 1006 q 662 1003 663 1004 q 658 1003 661 1001 q 657 1001 658 1000 q 654 999 656 1001 l 654 1001 q 649 997 651 997 q 642 993 646 996 q 643 994 642 994 q 644 996 644 994 q 642 995 643 994 q 639 994 642 996 q 643 997 643 999 q 639 996 640 997 q 636 994 638 994 q 639 994 636 994 l 638 993 q 635 994 636 993 l 635 992 q 631 990 632 993 q 626 990 629 988 q 626 988 628 988 q 624 986 624 989 l 632 990 q 628 988 633 988 q 623 985 625 985 q 618 982 621 985 q 619 984 618 985 q 619 985 619 983 q 618 985 618 986 q 617 983 618 983 q 618 982 617 983 q 614 981 615 981 q 610 979 613 981 q 607 978 608 978 q 605 976 606 978 q 603 975 604 975 l 601 976 q 601 976 600 976 q 600 975 601 975 q 597 973 600 974 q 592 971 593 972 l 592 969 q 588 967 590 969 l 589 968 l 589 967 q 592 968 590 967 q 594 967 592 969 q 597 969 594 968 q 596 968 597 968 q 597 967 594 968 q 600 968 599 967 q 604 969 601 969 q 599 967 604 967 q 591 962 594 964 q 583 958 588 960 q 574 953 578 956 q 565 949 571 951 q 563 946 567 947 q 556 943 558 944 q 535 932 547 938 q 538 932 535 932 q 535 931 536 931 q 532 929 533 931 l 533 929 q 532 928 533 928 q 529 933 529 931 l 528 933 q 523 928 525 931 q 518 925 521 926 q 509 920 513 922 q 503 915 506 918 q 496 911 499 913 l 213 757 q 215 730 214 742 q 214 703 215 718 q 211 708 214 713 q 211 756 214 729 l 203 751 l 203 511 q 288 506 246 508 q 369 500 329 503 l 374 500 l 379 500 q 380 501 381 500 q 381 501 379 501 l 382 501 l 381 500 q 385 499 382 499 q 392 500 389 500 q 400 501 396 500 q 407 501 404 501 q 422 501 414 501 q 436 500 429 500 q 481 504 457 501 q 525 510 506 507 q 526 507 525 507 q 526 506 526 507 q 541 508 533 506 q 554 510 549 511 q 556 508 556 510 q 554 507 556 507 q 559 509 556 507 q 563 507 563 511 q 529 503 547 504 q 492 500 511 501 q 499 499 494 499 q 508 497 503 499 q 482 493 496 494 q 453 490 468 492 l 453 486 l 454 486 q 453 485 454 485 q 454 483 453 485 l 453 483 l 453 481 q 456 481 454 481 q 461 482 458 482 q 480 484 471 483 q 499 485 489 485 q 514 487 506 486 q 529 488 522 488 q 538 487 533 488 q 544 489 542 486 q 560 490 553 488 q 575 492 568 492 q 574 491 575 490 q 572 490 572 492 q 582 490 572 490 q 580 489 581 489 q 578 488 579 489 q 587 488 581 486 q 597 489 593 489 q 575 479 583 485 l 578 479 q 572 477 575 476 q 567 475 568 478 q 524 469 546 472 q 486 464 503 467 l 490 464 q 480 461 486 461 q 471 458 474 461 q 471 457 469 458 q 465 457 471 457 q 468 456 465 456 q 468 456 471 456 q 465 454 465 456 q 467 453 465 453 q 468 453 469 454 q 454 450 461 450 q 440 447 447 450 l 438 447 q 436 446 438 446 q 440 444 440 446 l 435 444 q 430 440 432 442 q 425 438 428 439 l 426 438 q 424 436 426 436 l 422 436 q 444 437 433 436 q 464 438 454 438 q 442 435 453 436 q 418 433 431 435 q 413 431 413 431 l 419 431 q 408 429 418 429 l 407 429 q 304 404 356 415 q 203 381 253 393 l 203 360 q 221 362 213 361 q 238 364 229 363 q 250 363 247 364 q 238 361 242 363 q 219 360 228 360 q 203 360 211 360 l 203 -29 l 203 -33 q 365 -76 283 -57 q 531 -114 447 -94 q 744 -162 638 -139 q 958 -210 850 -186 l 1821 -389 q 1951 -416 1892 -404 q 2054 -439 2010 -428 l 2058 -439 l 2058 -440 q 2072 -443 2065 -442 q 2085 -446 2079 -444 l 2086 -446 q 2105 -451 2096 -449 q 2121 -456 2114 -453 l 2122 -456 l 2122 -457 l 2124 -457 q 2125 -456 2124 -457 l 2125 -457 q 2126 -458 2126 -457 q 2128 -458 2126 -458 q 2126 -457 2128 -457 l 2129 -457 l 2131 -457 l 2132 -457 q 2133 -458 2133 -457 q 2129 -458 2133 -458 q 2146 -462 2139 -461 q 2149 -464 2147 -464 l 2150 -464 l 2153 -464 l 2153 -465 l 2157 -465 q 2153 -469 2153 -469 l 2153 -471 l 2151 -471 q 2144 -476 2147 -475 q 2150 -478 2149 -476 l 2143 -478 q 2140 -479 2142 -478 l 2144 -479 q 2142 -478 2143 -479 l 2143 -478 l 2144 -478 l 2146 -478 q 2144 -479 2146 -478 l 2146 -479 l 2144 -479 l 2146 -479 l 2146 -481 q 2144 -479 2146 -481 l 2144 -481 l 2144 -479 l 2143 -479 l 2143 -481 q 2140 -481 2142 -479 q 2139 -479 2139 -481 q 2137 -480 2138 -479 q 2135 -481 2136 -481 l 2139 -481 q 2149 -482 2142 -482 q 2147 -483 2147 -482 l 2149 -483 l 2147 -483 l 2146 -483 q 2151 -484 2149 -483 q 2157 -485 2153 -485 l 2158 -485 l 2160 -485 l 2160 -486 l 2163 -486 l 2164 -486 l 2167 -486 l 2171 -486 q 2175 -487 2172 -487 l 2175 -486 q 2176 -487 2176 -486 l 2178 -487 l 2179 -487 l 2181 -487 q 2184 -487 2183 -489 q 2185 -489 2185 -486 l 2188 -489 l 2188 -487 q 2190 -489 2190 -487 q 2189 -490 2190 -489 q 2192 -491 2192 -490 q 2196 -492 2193 -492 l 2189 -492 l 2190 -492 l 2188 -492 q 2174 -490 2181 -490 q 2161 -489 2168 -490 q 2153 -489 2158 -489 q 2146 -487 2149 -489 l 2142 -487 q 2143 -489 2142 -487 q 2131 -488 2138 -489 q 2121 -487 2125 -487 l 2119 -487 l 2129 -487 q 2131 -489 2131 -487 l 2138 -489 q 2150 -490 2143 -490 q 2164 -492 2157 -490 l 2158 -492 q 2169 -493 2164 -493 q 2179 -494 2175 -493 l 2176 -494 l 2171 -494 q 2160 -493 2165 -493 l 2150 -493 l 2150 -492 l 2132 -492 q 2113 -490 2126 -490 l 2115 -490 q 2093 -488 2104 -489 q 2071 -487 2082 -487 m 469 458 q 464 458 467 458 q 461 457 461 458 q 465 458 464 458 q 469 458 467 457 m 661 1004 l 660 1004 q 661 1004 661 1006 m 674 1029 q 674 1029 674 1029 m 628 990 q 628 992 628 990 q 628 990 628 992 m 626 997 l 626 996 q 628 997 628 996 l 626 997 m 624 986 q 622 985 624 985 l 619 985 q 624 986 619 986 m 533 931 q 533 931 531 931 q 535 931 536 932 l 533 931 m -18 729 q -15 731 -17 731 q -14 732 -12 731 q -17 731 -15 731 q -18 729 -18 732 m 1 763 q 11 767 8 764 q 18 771 14 769 q 8 769 13 772 q 1 763 4 765 m 4 -1 q 5 0 6 1 q 6 1 4 -1 q 5 3 4 1 q 4 4 6 4 q 4 -1 4 -1 m 11 -1 q 13 0 14 1 q 14 0 13 -1 q 14 1 13 0 q 13 1 13 0 q 10 0 13 3 q 9 1 10 1 q 8 4 8 1 q 7 0 8 3 q 8 -1 8 0 q 10 -1 8 -1 q 11 0 10 0 l 11 -1 m 13 -1 q 14 -3 14 -1 q 15 -3 14 -4 q 15 -1 15 0 q 14 0 14 -1 q 15 1 15 0 l 13 -1 m 21 -4 q 20 -5 19 -7 q 19 -3 21 -3 q 24 -4 24 -3 l 22 -4 l 21 -4 m 25 13 q 28 13 25 10 q 27 14 28 15 q 25 13 26 13 q 25 13 25 13 m 28 -4 q 31 -8 31 -7 q 33 -6 31 -8 q 28 -4 32 -4 m 50 -21 q 51 -18 50 -18 q 50 -17 51 -17 q 50 -15 49 -18 q 47 -16 47 -18 q 46 -15 47 -14 q 47 -19 44 -19 q 50 -21 49 -18 m 54 -14 q 56 -15 54 -18 l 54 -14 q 43 -5 50 -7 q 32 -1 36 -3 q 37 -4 35 -4 q 40 -7 39 -4 q 38 -7 38 -10 q 35 -7 38 -4 q 37 -8 36 -7 q 39 -10 38 -10 q 40 -9 39 -7 q 38 -14 40 -11 q 42 -15 40 -15 q 44 -17 43 -15 q 42 -13 44 -12 q 42 -10 40 -14 q 46 -12 44 -10 q 51 -14 47 -14 q 51 -12 51 -12 q 50 -11 50 -12 q 53 -15 53 -10 q 54 -14 53 -14 m -36 -46 q -39 -43 -36 -40 q -36 -46 -37 -47 m -39 -71 q -35 -74 -39 -74 q -37 -70 -35 -68 q -37 -68 -39 -72 l -39 -69 q -40 -72 -42 -72 q -39 -71 -39 -72 m -36 -47 q -35 -47 -35 -46 q -36 -47 -36 -47 m 94 499 l 93 499 l 94 499 m 68 -29 q 65 -28 65 -29 q 64 -29 65 -26 q 65 -30 65 -28 q 68 -29 65 -32 m 58 -12 q 62 -18 60 -18 q 65 -19 64 -18 l 67 -17 q 58 -12 63 -12 m 56 -43 q 51 -43 53 -49 q 53 -47 51 -47 q 54 -46 54 -47 q 56 -43 54 -46 m 46 -40 q 44 -42 46 -43 q 42 -42 43 -40 q 47 -50 42 -53 q 46 -47 47 -47 q 46 -43 44 -47 q 47 -42 46 -43 q 47 -41 44 -44 q 46 -40 49 -37 m 35 -51 q 32 -51 35 -46 q 38 -56 33 -56 l 38 -54 q 39 -57 39 -56 q 42 -58 39 -58 q 40 -54 40 -57 q 43 -56 40 -56 q 44 -54 43 -56 q 40 -53 42 -53 q 36 -50 39 -53 q 36 -47 36 -47 q 35 -51 36 -50 m 29 -50 l 29 -49 q 28 -51 29 -50 q 28 -51 29 -50 q 29 -51 28 -53 l 29 -50 m 29 -49 q 24 -46 26 -46 q 18 -43 22 -46 q 22 -49 18 -50 q 28 -51 25 -47 q 29 -49 28 -50 m 13 -40 q 11 -42 11 -40 q 14 -44 13 -43 q 17 -42 15 -46 q 15 -42 17 -40 q 14 -40 13 -43 l 13 -40 m 17 -74 q 15 -76 15 -76 l 15 -75 q 15 -72 15 -72 q 17 -73 18 -71 q 17 -74 15 -75 m 11 -42 l 11 -39 l 11 -42 m 1 -57 q 0 -56 0 -57 q -1 -57 0 -54 q 0 -58 0 -57 q 1 -57 0 -60 m -10 -54 q -12 -53 -11 -56 q -15 -54 -12 -51 q -12 -56 -12 -54 q -10 -54 -12 -58 m -15 -53 q -16 -55 -17 -54 q -15 -53 -15 -56 q -15 -53 -15 -53 m -21 -51 q -22 -55 -22 -56 q -19 -56 -21 -54 l -18 -53 q -18 -56 -19 -56 q -17 -53 -17 -56 q -18 -53 -18 -56 q -21 -51 -18 -50 m -29 -49 q -31 -47 -31 -49 q -32 -49 -31 -46 q -31 -51 -32 -50 q -29 -49 -31 -51 m -32 -74 q -31 -76 -32 -76 q -31 -74 -31 -75 l -31 -72 l -32 -71 l -32 -74 q -32 -72 -32 -74 l -32 -71 q -33 -72 -33 -72 q -34 -76 -35 -75 q -32 -74 -33 -76 m -29 -68 l -29 -67 q -31 -69 -29 -67 l -29 -68 m -31 -50 q -27 -51 -28 -49 q -24 -51 -26 -54 q -27 -49 -26 -51 q -31 -50 -28 -47 m -24 -71 q -18 -74 -21 -72 q -11 -75 -15 -75 q -17 -72 -14 -74 q -24 -71 -19 -69 m -11 -78 q -9 -77 -8 -75 q -7 -76 -10 -79 q -9 -75 -7 -74 q -8 -74 -11 -76 q -10 -74 -10 -75 q -11 -75 -10 -74 l -11 -78 m -7 -81 q -6 -81 -7 -82 q -6 -79 -6 -81 l -8 -82 q -8 -83 -7 -81 q -7 -82 -8 -85 l -7 -81 m 0 -92 q 2 -93 1 -92 q 4 -92 3 -94 q 3 -91 3 -93 q 0 -92 3 -89 m 14 -99 q 13 -94 15 -93 q 10 -92 10 -94 q 8 -93 10 -93 q 6 -92 7 -93 q 4 -93 6 -90 l 4 -96 q 7 -94 7 -90 q 6 -96 6 -97 q 6 -96 7 -94 q 10 -96 7 -96 q 14 -99 13 -96 m 15 -99 q 16 -97 15 -97 q 17 -94 17 -96 q 17 -93 18 -93 q 15 -94 17 -93 q 15 -96 17 -93 q 15 -97 14 -99 l 17 -94 q 15 -97 17 -96 l 15 -99 m 17 -89 q 16 -90 15 -92 q 15 -90 17 -89 q 16 -90 15 -89 q 17 -87 17 -90 q 4 -83 11 -85 q -7 -78 -3 -81 q -6 -76 -6 -75 q -4 -75 -6 -78 q -3 -77 -4 -78 q -1 -78 -3 -76 l -1 -76 q 2 -78 0 -79 q 6 -81 4 -78 l 6 -79 l 7 -79 l 6 -79 q 12 -83 8 -82 q 19 -87 15 -85 l 19 -89 q 18 -92 18 -89 q 17 -87 18 -89 q 17 -89 17 -86 m 21 -112 l 21 -111 l 21 -112 l 24 -112 q 20 -112 21 -111 q 21 -112 19 -114 z "},"F":{"ha":600,"x_min":-110,"x_max":1365,"o":"m -100 511 q -99 513 -100 511 q -103 519 -101 515 q -110 526 -106 524 q -104 524 -107 526 q -99 525 -101 522 q -99 526 -99 526 q -100 529 -100 526 q -96 530 -97 531 q -93 531 -94 529 q -94 531 -93 532 q -94 532 -94 531 q -86 529 -90 532 q -75 529 -82 526 q -73 524 -75 522 q -68 526 -71 526 q -58 527 -62 529 q -47 525 -53 525 q -25 521 -36 525 q -21 520 -22 522 q -15 522 -19 518 q -17 524 -17 522 q -17 526 -17 528 q -15 526 -17 524 q -17 529 -17 526 l -3 529 q 6 527 3 529 q 14 529 10 525 q 10 530 11 531 q 7 529 10 529 q 1 533 4 533 q -6 533 -3 532 q -28 537 -17 536 q -51 544 -40 538 q -40 550 -43 547 q -62 554 -51 551 q -82 560 -74 557 q -79 563 -82 563 q -78 561 -78 563 l -78 563 q -67 562 -72 564 q -60 560 -62 560 q -59 561 -60 561 q -58 563 -58 561 q -31 558 -46 563 q -1 554 -17 554 q 8 556 3 554 q 17 558 14 558 q 26 554 21 554 q 33 557 32 554 l 33 558 q 33 554 33 558 q 36 555 35 557 q 40 554 38 553 q 38 556 40 557 q 38 558 36 556 q 46 557 42 557 l 47 558 l 401 558 l 386 842 l 357 839 l 353 839 l 340 838 l 339 836 q 334 835 336 833 q 329 836 332 836 q 315 834 322 833 q 300 832 308 835 q 290 829 297 829 q 280 828 285 829 q 272 831 275 828 l 272 828 q 269 827 271 831 q 267 831 267 824 q 265 828 267 831 q 251 831 261 831 q 252 832 251 832 q 253 833 253 832 q 249 833 249 829 l 249 831 l 249 833 l 247 833 q 247 831 247 831 q 247 833 246 831 q 246 831 247 835 q 244 832 244 831 q 243 831 244 833 l 243 833 q 242 832 242 831 q 239 832 242 833 q 242 836 239 836 q 240 836 242 838 q 239 838 239 835 q 240 840 239 839 q 242 839 242 840 q 238 842 239 842 q 235 842 236 842 l 235 843 l 235 847 l 235 850 l 235 849 q 233 847 235 847 q 234 845 233 846 q 233 842 235 844 l 233 840 q 234 842 233 842 q 233 846 235 843 q 229 840 233 840 q 233 840 232 839 q 236 839 235 842 q 235 835 235 835 q 233 838 235 836 l 233 833 l 232 833 q 233 836 232 836 q 233 838 233 836 q 231 838 232 838 q 229 833 229 839 l 229 839 l 229 838 q 228 838 228 836 q 229 842 228 840 q 224 844 228 844 q 218 846 221 843 q 213 847 214 846 l 204 847 l 204 850 q 201 849 203 847 q 197 849 200 850 l 197 850 q 197 850 197 851 q 197 851 196 849 q 192 849 194 847 q 189 850 190 850 l 189 849 q 188 850 188 849 q 185 851 186 850 l 182 853 q 181 851 181 853 l 181 853 q 178 851 181 853 q 177 853 179 854 q 172 853 175 851 q 174 856 172 856 q 172 858 175 856 q 172 855 172 857 q 171 857 171 853 q 169 855 169 854 q 168 856 169 856 l 168 858 q 167 857 168 856 q 165 856 165 858 l 165 857 q 163 856 164 854 q 160 857 161 857 l 160 860 q 159 863 160 861 q 160 867 158 864 q 159 865 160 865 q 158 867 158 865 l 158 864 q 156 866 157 865 q 151 869 154 867 q 150 868 150 868 l 150 871 l 150 869 q 149 867 150 868 q 149 868 149 867 q 149 869 150 872 q 147 869 147 867 l 147 868 q 144 867 146 868 q 146 869 147 869 q 144 868 144 869 l 144 871 q 143 873 144 874 q 142 869 142 872 q 141 874 142 874 q 139 878 140 875 q 146 881 140 881 l 146 885 q 151 885 149 886 q 156 888 153 885 q 147 892 151 893 q 139 893 143 890 q 144 896 140 896 q 143 898 144 899 q 142 899 142 897 q 143 899 142 900 q 144 900 144 899 q 139 903 142 903 q 133 904 136 903 q 135 906 133 907 q 136 908 136 906 q 144 910 140 907 q 151 910 149 914 q 151 909 151 908 q 150 908 150 910 q 157 907 151 904 q 165 907 160 907 q 176 908 171 907 q 197 908 186 918 q 198 910 197 910 q 199 913 199 910 q 204 913 200 906 q 213 910 208 913 q 222 910 217 907 q 224 910 219 906 q 230 908 226 910 q 236 908 233 907 q 232 911 235 913 q 228 914 229 910 q 228 915 228 915 q 229 915 229 914 q 224 918 226 921 q 219 919 222 915 q 219 919 218 919 q 218 918 219 918 q 209 917 215 915 q 197 919 203 918 l 194 917 q 183 920 188 915 q 172 922 179 925 q 178 924 176 925 q 186 924 181 922 l 186 926 q 189 925 189 926 q 190 924 189 924 q 208 924 200 925 q 226 928 217 924 l 226 933 q 230 931 228 929 q 233 926 232 932 l 233 931 q 235 928 235 933 q 239 926 236 924 q 238 928 239 929 q 238 931 238 928 q 238 932 238 932 q 239 931 239 932 q 243 933 242 933 q 246 932 244 932 q 247 933 246 935 q 251 935 249 932 q 242 935 247 936 q 232 938 236 935 q 233 936 232 936 q 232 938 232 935 q 231 937 229 938 q 229 935 232 936 l 229 936 q 226 936 226 935 q 224 938 225 938 q 223 940 221 940 q 225 943 225 939 q 219 943 222 944 q 213 944 215 942 l 213 947 q 210 950 213 950 l 208 950 q 209 947 208 947 q 208 944 210 947 q 204 944 208 944 q 204 949 206 950 q 203 944 203 947 q 201 944 200 943 q 200 946 203 946 l 200 944 q 194 942 197 943 q 188 944 190 942 l 188 947 q 187 945 186 946 q 186 943 188 944 q 183 943 185 944 q 182 944 182 942 q 185 946 182 946 q 183 947 185 947 q 185 950 182 947 l 172 950 q 177 953 175 954 q 182 954 179 951 q 185 953 185 953 q 188 954 186 954 l 188 957 q 189 958 188 958 l 189 957 l 189 963 q 190 963 189 961 q 188 962 189 965 q 186 963 188 958 l 186 964 l 185 964 q 183 965 183 964 q 182 965 183 965 l 183 965 l 185 965 q 188 968 186 967 q 189 965 189 969 q 190 967 190 968 q 192 967 190 965 q 190 963 192 964 q 197 960 193 958 q 203 963 200 963 q 201 964 203 965 q 197 965 199 963 q 203 967 197 967 q 203 964 203 964 q 204 965 204 964 q 206 968 203 965 q 208 968 206 968 l 208 964 q 210 966 210 969 q 213 965 210 963 q 209 963 210 958 q 207 964 208 967 q 210 959 208 961 q 214 961 211 957 l 214 965 q 217 965 217 965 l 217 964 q 225 957 218 957 l 225 963 l 225 965 q 232 960 228 957 q 239 956 236 964 l 239 961 q 242 960 242 961 q 244 963 243 958 q 249 960 246 958 q 251 954 251 963 q 256 962 254 961 q 260 961 257 963 q 258 959 260 958 q 257 957 257 960 q 260 956 258 956 l 261 956 q 260 957 261 957 q 260 960 260 963 q 263 961 261 958 q 265 954 263 954 q 269 956 267 954 q 268 956 269 957 q 267 957 267 956 q 270 958 269 961 q 274 957 271 956 q 272 954 274 957 q 285 956 276 953 q 284 958 285 957 q 285 961 283 958 q 292 960 289 961 q 300 964 296 958 l 299 964 l 299 967 q 300 965 300 967 q 303 971 303 971 l 303 974 l 350 974 q 346 975 349 975 q 350 976 346 976 q 350 978 350 979 q 349 981 350 978 q 355 980 353 982 q 360 981 357 978 q 364 974 361 982 l 1046 974 l 1110 974 q 1115 975 1111 975 q 1122 974 1115 976 l 1119 974 l 1135 974 q 1146 979 1142 976 q 1154 982 1150 982 q 1163 983 1161 982 l 1163 982 q 1161 982 1163 981 q 1156 980 1158 982 q 1153 981 1154 978 q 1161 979 1156 978 q 1174 978 1167 981 q 1164 976 1171 976 l 1192 976 q 1207 977 1199 976 q 1222 976 1215 978 l 1201 976 q 1182 975 1192 974 q 1163 974 1172 976 q 1181 974 1172 974 q 1199 975 1189 975 q 1199 974 1199 975 l 1201 974 q 1204 975 1203 974 q 1206 974 1206 972 q 1208 975 1206 975 l 1208 974 l 1206 974 q 1209 974 1208 972 q 1210 972 1210 975 q 1194 971 1200 972 q 1208 969 1201 968 q 1221 968 1214 971 q 1219 967 1221 968 q 1194 967 1207 968 l 1190 967 l 1189 967 l 1189 957 l 1200 957 q 1201 956 1201 956 q 1208 956 1204 956 q 1215 956 1213 957 q 1218 957 1218 956 q 1221 957 1221 954 l 1222 956 l 1224 957 q 1235 955 1229 954 q 1247 954 1242 956 q 1250 954 1250 954 q 1243 953 1247 953 q 1236 951 1239 954 q 1260 951 1247 951 q 1283 953 1272 951 q 1272 953 1279 954 q 1274 954 1274 953 l 1272 954 q 1285 956 1279 957 q 1293 957 1290 954 q 1294 956 1296 957 q 1296 956 1293 956 l 1297 954 l 1297 956 q 1305 955 1300 954 q 1314 954 1310 956 l 1311 954 q 1314 954 1314 953 q 1315 953 1314 953 q 1315 953 1315 954 l 1310 953 q 1326 951 1317 951 q 1343 950 1336 951 l 1340 947 l 1339 947 q 1346 946 1340 946 q 1345 945 1346 944 q 1344 944 1344 946 q 1351 944 1347 944 q 1358 943 1356 943 l 1361 942 q 1365 942 1363 943 q 1360 941 1363 942 q 1356 942 1358 940 q 1344 941 1350 940 q 1331 942 1338 942 q 1315 942 1322 943 q 1300 943 1307 942 q 1299 942 1299 942 l 1272 942 l 1271 942 q 1268 942 1271 942 q 1263 942 1265 942 q 1261 940 1261 943 q 1266 939 1264 938 q 1269 940 1268 940 l 1279 940 q 1281 940 1279 940 l 1304 940 l 1304 938 q 1306 939 1306 940 q 1308 940 1307 938 l 1308 938 l 1308 940 q 1313 939 1311 938 q 1318 938 1315 940 l 1318 936 l 1310 936 q 1308 938 1310 936 l 1310 936 l 1304 936 q 1303 938 1303 936 l 1304 938 q 1301 936 1301 938 q 1295 936 1299 938 q 1289 936 1292 935 q 1284 935 1286 936 q 1279 936 1282 935 q 1274 936 1276 938 q 1268 936 1271 935 q 1276 935 1268 935 l 1276 933 q 1278 935 1276 933 l 1283 935 l 1283 933 q 1292 935 1288 935 q 1289 933 1289 932 q 1290 933 1290 932 q 1283 933 1289 932 l 1286 933 l 1283 933 q 1281 932 1283 935 l 1281 933 q 1272 932 1274 932 q 1265 932 1269 932 q 1267 933 1265 932 l 1268 933 q 1266 934 1267 933 q 1263 935 1265 935 l 1265 935 l 1267 935 q 1263 935 1265 936 q 1260 935 1261 935 l 1263 935 q 1260 935 1260 932 q 1258 933 1258 935 q 1253 933 1256 935 q 1250 935 1251 932 q 1249 934 1250 932 q 1246 933 1247 936 l 1256 933 q 1253 931 1256 931 q 1249 932 1250 932 q 1244 931 1246 931 q 1239 932 1242 932 q 1240 933 1239 933 q 1240 933 1240 932 q 1239 933 1239 935 q 1238 933 1239 932 q 1239 932 1238 932 l 1229 932 l 1225 932 q 1222 932 1222 932 l 1221 932 q 1219 933 1219 933 q 1215 931 1218 931 q 1210 932 1213 932 l 1211 931 l 1204 931 l 1204 928 l 1206 928 q 1210 928 1210 928 q 1213 926 1210 929 q 1221 925 1214 925 q 1214 924 1219 924 q 1206 923 1211 924 q 1199 922 1201 922 q 1188 923 1193 924 q 1176 922 1183 922 q 1174 919 1179 919 q 1167 918 1168 918 q 1145 917 1164 918 q 1106 913 1126 915 q 1078 907 1090 908 q 1058 904 1067 906 q 1052 903 1056 903 q 1047 903 1049 903 q 1046 904 1047 903 l 522 856 l 522 558 l 535 558 q 549 560 542 560 q 546 558 546 560 l 556 558 q 561 560 558 560 q 563 561 561 560 q 658 563 611 563 q 763 567 704 563 q 762 565 764 564 q 760 564 760 567 q 765 565 761 563 q 769 564 768 567 q 769 567 771 567 q 771 567 768 567 q 776 564 772 564 q 781 564 779 564 q 790 567 786 567 q 797 568 794 567 q 811 567 803 568 q 825 567 819 567 q 871 569 847 567 q 915 572 894 572 l 917 571 q 931 572 924 571 q 944 574 938 574 l 944 572 q 949 574 946 572 q 953 572 953 575 q 919 568 938 569 q 882 564 901 567 q 889 563 885 563 q 897 563 893 563 q 872 558 886 560 q 842 554 857 557 q 854 553 854 554 l 854 551 q 863 553 858 553 q 872 553 868 553 q 869 551 872 550 q 864 553 865 551 q 859 551 861 550 q 854 551 857 551 l 854 546 q 871 549 863 549 q 888 551 879 550 q 903 552 894 551 q 919 553 913 553 q 928 552 924 553 q 935 554 932 551 q 951 555 943 553 q 965 557 958 557 q 964 556 965 556 q 963 557 963 556 q 972 554 964 554 q 969 553 969 554 q 978 553 972 551 q 986 554 983 554 q 976 549 981 551 q 965 544 971 547 q 966 544 965 543 q 967 543 967 544 q 962 542 965 542 q 956 540 958 543 q 913 535 935 538 q 876 531 892 532 q 878 529 876 529 q 869 526 875 526 q 860 524 863 526 q 858 523 858 524 q 860 522 858 522 q 854 522 860 522 q 857 521 854 521 q 856 519 856 521 q 856 518 854 517 q 857 517 858 519 q 843 515 850 514 q 829 513 836 515 q 824 512 826 513 q 818 511 821 511 q 817 510 817 511 q 815 510 817 510 l 817 510 q 811 507 813 510 q 783 500 796 501 q 794 501 792 500 q 797 500 796 501 q 824 501 808 500 q 854 503 839 503 q 806 497 829 499 q 760 493 783 496 q 751 492 754 493 q 764 493 758 493 q 775 493 769 493 q 783 494 779 493 q 790 493 788 494 q 758 490 778 492 q 724 488 739 488 l 715 488 l 522 468 l 522 -293 l 522 -381 l 522 -383 l 522 -386 l 522 -387 l 522 -393 l 524 -390 q 523 -393 524 -393 q 522 -394 522 -393 l 522 -397 l 524 -397 l 524 -399 l 522 -399 l 522 -403 l 524 -403 l 525 -403 q 524 -405 522 -404 q 524 -408 525 -406 l 525 -408 q 524 -411 524 -410 q 522 -414 524 -412 l 522 -410 q 522 -431 522 -421 q 521 -451 521 -440 l 521 -453 l 521 -456 l 522 -456 l 521 -457 q 522 -465 522 -460 q 524 -467 522 -465 q 522 -468 522 -469 q 521 -469 522 -467 l 521 -467 l 521 -474 q 522 -471 521 -474 q 521 -470 521 -471 q 522 -469 521 -469 q 524 -474 522 -472 l 522 -475 q 521 -474 522 -475 q 520 -492 521 -485 q 519 -507 519 -500 l 519 -508 l 521 -508 q 519 -511 521 -510 l 519 -518 q 521 -512 519 -514 q 521 -518 521 -518 q 519 -521 519 -519 q 518 -519 519 -519 l 518 -521 q 514 -519 515 -521 l 514 -521 q 510 -521 510 -521 q 511 -519 511 -521 q 503 -512 506 -519 l 501 -511 l 501 -519 q 503 -529 503 -522 q 503 -537 503 -532 q 503 -543 504 -542 l 503 -533 q 501 -522 501 -526 q 500 -511 501 -518 q 499 -510 500 -510 q 497 -508 497 -510 l 497 -510 l 497 -508 l 497 -507 l 497 -512 l 499 -512 q 497 -514 499 -512 q 500 -521 500 -518 q 497 -514 497 -519 l 497 -518 l 497 -519 q 500 -525 497 -524 l 500 -529 l 500 -528 q 500 -531 500 -531 l 500 -529 l 500 -531 l 500 -532 l 500 -533 l 500 -539 q 501 -537 500 -539 q 501 -535 500 -537 l 501 -537 l 501 -535 l 501 -537 l 501 -540 l 501 -539 q 500 -540 500 -539 l 497 -542 q 500 -539 497 -540 q 497 -539 497 -539 l 500 -539 l 500 -535 q 497 -537 500 -537 q 496 -533 497 -533 l 497 -532 l 497 -525 l 497 -522 q 496 -524 497 -524 q 496 -518 496 -524 l 497 -518 l 497 -514 l 496 -514 q 494 -518 496 -518 q 496 -515 496 -517 q 497 -512 496 -514 q 496 -510 496 -511 l 496 -507 q 494 -504 496 -504 l 494 -506 l 494 -507 l 494 -510 l 494 -508 q 495 -517 494 -511 q 496 -525 496 -522 q 494 -519 494 -524 q 496 -532 494 -528 q 496 -538 494 -535 q 496 -544 497 -542 l 496 -543 q 494 -544 496 -543 l 494 -543 l 494 -542 l 494 -557 l 494 -556 l 494 -557 l 494 -558 l 494 -560 l 494 -561 l 494 -565 l 494 -568 l 496 -568 l 496 -572 l 494 -572 q 496 -579 496 -576 l 497 -579 l 496 -581 l 496 -582 l 497 -582 q 496 -586 496 -585 l 496 -587 l 497 -587 q 497 -590 494 -590 q 496 -592 500 -590 l 496 -597 q 497 -596 496 -596 q 496 -600 497 -599 l 496 -597 q 494 -603 494 -600 q 494 -607 494 -606 l 494 -599 q 494 -600 493 -600 q 493 -601 494 -600 l 493 -597 q 492 -581 493 -587 q 490 -562 492 -574 q 489 -554 490 -560 q 488 -544 488 -549 q 486 -539 488 -540 l 486 -542 q 484 -526 485 -535 q 483 -510 483 -517 q 482 -510 483 -510 q 483 -517 483 -512 q 485 -524 483 -521 q 483 -525 483 -524 q 484 -530 483 -528 q 485 -533 485 -532 q 485 -550 485 -540 q 486 -568 486 -560 q 485 -567 485 -568 l 485 -564 l 485 -561 q 487 -575 486 -568 q 486 -587 488 -582 l 486 -589 l 486 -585 l 486 -578 q 485 -576 485 -578 q 483 -562 485 -568 l 483 -551 q 482 -539 482 -544 q 481 -529 482 -533 q 479 -516 481 -524 q 476 -503 478 -508 q 476 -504 476 -503 q 474 -477 475 -492 q 471 -450 474 -462 q 467 -432 468 -440 q 465 -417 467 -424 q 459 -373 461 -394 q 456 -335 457 -351 q 453 -297 454 -315 l 408 456 l 157 431 q 153 428 156 428 q 147 429 150 428 l 149 429 l 50 419 l 50 418 q 46 417 50 417 q 47 418 46 418 q 47 419 47 418 q 32 426 38 419 q 15 428 25 428 q -1 431 6 429 q 3 433 1 435 q 8 431 6 432 l 28 431 l 28 432 q -5 437 11 435 q -40 444 -21 439 q -21 443 -31 446 q -3 443 -11 440 l -3 444 q -1 444 -3 444 q 10 442 3 439 q 24 443 17 444 q 22 444 24 444 q 23 446 22 447 q 24 447 24 444 l 21 447 q 22 447 21 446 q 22 446 22 447 q 19 444 21 443 q 21 449 18 446 q 13 446 17 450 q 7 447 10 442 l 8 449 q 7 450 8 450 q 6 448 6 447 q 7 447 7 449 q 6 454 3 447 q -3 455 3 456 q -12 457 -10 454 q -9 458 -11 458 q -4 460 -7 458 q -22 463 -12 464 q -30 465 -25 467 q -37 469 -35 464 q -37 472 -37 472 q -36 474 -36 471 q -36 474 -35 475 q -37 475 -37 474 q -35 476 -35 475 q -37 478 -37 479 q -37 479 -37 478 q -44 485 -40 485 q -50 488 -47 485 q -46 489 -46 488 q -69 497 -57 492 q -94 504 -82 501 q -97 507 -94 507 q -100 511 -100 507 m 494 -519 q 493 -504 493 -512 q 494 -519 494 -510 m 850 522 q 858 524 856 522 q 853 524 856 524 q 850 522 850 524 m 1289 933 q 1288 933 1288 933 q 1288 933 1288 935 q 1289 933 1289 932 m 1310 953 q 1307 952 1307 953 q 1310 951 1307 951 l 1310 953 m 1253 940 q 1257 940 1256 938 l 1253 940 m 1253 942 l 1251 942 q 1253 942 1253 943 m 1251 935 q 1251 936 1251 936 q 1250 935 1250 936 l 1251 935 m 1246 933 q 1240 933 1240 933 q 1243 933 1240 933 l 1246 933 m 521 -465 l 521 -464 l 521 -465 m 522 -408 q 523 -407 522 -407 q 524 -406 524 -407 l 522 -406 l 522 -408 m 189 944 q 188 947 188 949 q 189 947 189 944 q 188 949 188 946 q 188 950 188 951 q 189 944 188 944 m 196 946 q 197 948 197 950 q 197 947 197 946 l 197 951 q 196 949 196 949 q 194 946 196 950 q 193 947 194 947 q 192 951 192 947 q 191 949 190 949 q 190 946 192 949 q 194 944 190 946 l 194 947 l 196 946 m 197 946 q 200 946 200 946 q 199 947 200 947 l 199 950 l 199 949 q 197 946 199 947 m 206 965 q 207 965 206 964 q 206 967 207 967 l 206 965 m 206 946 q 207 946 207 947 q 207 948 208 949 q 206 946 206 947 q 206 945 206 947 q 206 946 207 943 m 214 947 q 218 947 217 944 q 216 949 217 950 q 214 947 215 947 m 239 942 l 238 942 l 238 943 q 236 941 238 939 q 233 942 235 943 q 236 939 235 938 q 239 938 238 940 l 239 942 m 242 946 q 244 944 244 943 q 243 945 243 944 q 242 946 243 946 q 228 952 236 951 q 215 953 221 953 q 221 951 218 950 q 226 950 224 953 q 224 949 225 946 q 219 946 222 951 q 223 946 222 947 q 225 944 224 944 q 226 946 225 947 q 225 942 226 944 q 233 940 232 942 q 230 943 232 944 q 226 946 228 942 q 233 944 231 946 q 238 944 235 943 l 238 947 q 239 948 239 950 q 242 943 239 946 l 242 946 m 157 888 q 160 888 160 888 q 157 888 157 890 m 161 888 q 160 888 161 889 q 160 886 160 888 l 161 888 m 168 886 q 165 888 165 886 q 165 886 165 889 q 167 885 165 885 q 168 886 167 885 m 165 861 q 169 860 165 856 q 167 863 169 865 q 164 865 165 860 l 164 864 q 163 860 161 860 q 165 861 164 860 m 172 861 q 174 859 172 858 q 175 861 175 860 l 175 863 q 172 864 175 864 l 172 860 q 172 863 171 860 q 171 864 172 865 l 171 861 q 172 858 171 858 q 172 861 172 858 m 172 867 q 175 868 175 865 l 175 869 q 174 868 175 868 q 172 867 172 868 m 168 885 q 171 885 169 888 q 175 886 172 883 q 172 888 172 886 q 168 885 171 889 m 190 886 q 187 888 188 886 q 185 885 186 889 q 188 884 186 886 q 190 886 189 882 m 185 888 q 183 885 182 885 q 185 886 185 885 l 185 888 m 178 886 q 178 883 178 882 q 181 883 179 885 l 181 886 q 181 883 181 882 q 182 886 182 883 q 181 887 182 885 q 178 886 179 889 m 181 867 q 194 867 189 864 q 188 868 190 867 q 181 867 185 869 m 196 864 q 197 865 197 867 q 199 865 197 863 q 197 867 199 868 q 197 868 196 865 q 196 866 196 865 q 194 865 196 867 q 196 864 196 865 m 361 975 l 361 974 l 361 975 m 261 933 q 258 935 260 933 q 256 933 257 936 q 258 933 257 935 q 261 933 260 931 m 260 914 q 257 913 260 914 q 260 914 260 914 m 246 947 q 251 944 249 943 q 256 943 253 944 q 256 947 256 943 q 251 949 253 947 q 246 947 249 950 m 254 914 q 251 915 251 918 q 249 915 251 913 q 251 912 249 911 q 251 907 253 913 q 254 908 253 911 q 257 908 256 906 q 256 910 257 910 q 256 913 256 910 q 257 914 256 913 q 255 915 256 914 q 254 914 254 917 m 242 917 q 240 915 242 914 q 238 914 238 915 q 246 908 240 903 q 244 910 244 910 q 243 914 243 910 l 243 915 q 242 915 242 913 q 242 917 243 918 m 233 904 q 229 903 233 907 q 236 899 232 899 l 236 900 q 242 899 239 897 l 240 899 q 239 903 239 899 q 246 903 244 897 q 240 903 243 904 q 235 906 238 903 l 235 907 q 233 904 233 906 m 236 860 q 235 856 235 860 l 235 857 q 235 858 235 858 q 236 860 236 858 m 226 903 q 226 900 226 903 q 226 901 226 903 q 228 903 226 900 q 226 904 226 903 l 226 903 m 226 904 q 221 906 224 907 q 215 906 218 906 q 220 903 218 900 q 225 900 222 906 l 225 903 l 226 904 m 224 875 q 223 876 222 874 q 222 876 224 878 l 222 874 l 222 872 l 224 874 q 224 875 222 874 m 208 906 q 212 903 210 904 q 214 906 214 903 q 212 906 214 907 q 210 908 210 906 l 208 906 m 207 907 l 207 906 l 207 907 m 203 888 q 200 888 200 888 q 201 885 200 886 q 203 888 203 885 m 201 861 q 203 864 201 861 q 200 860 200 864 l 201 861 m 213 851 q 215 851 214 853 q 215 853 215 850 q 214 853 214 851 q 213 851 214 856 m 218 849 q 222 851 219 850 q 226 849 225 851 q 225 854 226 856 q 222 856 224 853 l 219 853 q 217 853 218 853 q 215 851 217 854 q 217 849 217 851 q 218 851 217 851 l 219 851 q 218 850 218 849 q 218 849 218 851 m 229 850 q 229 853 229 850 q 228 856 229 856 q 228 853 228 856 l 228 850 l 228 853 l 228 850 q 228 849 228 851 q 229 850 228 847 m 229 861 q 231 860 229 860 q 233 861 233 860 q 222 865 228 864 q 214 867 217 865 l 214 865 q 209 866 211 867 q 206 867 207 865 q 203 866 203 867 q 203 868 203 865 q 200 867 200 865 q 199 865 200 868 q 213 863 206 863 q 226 861 219 864 l 226 858 q 228 860 226 857 q 227 861 226 863 q 228 857 228 860 q 229 861 229 858 m 247 836 q 249 835 249 838 q 249 836 249 833 q 247 842 249 842 l 247 838 q 248 839 247 840 q 247 836 249 838 m 275 849 q 278 848 276 849 q 282 849 281 847 l 282 851 l 275 851 l 275 856 q 274 853 275 854 l 274 851 q 256 853 261 851 l 256 856 q 255 857 256 857 q 254 856 254 857 l 254 854 l 254 853 q 248 854 253 856 q 242 857 243 853 l 242 856 q 235 854 238 856 q 229 856 232 853 q 242 851 238 847 l 242 849 q 242 851 242 850 q 243 850 243 851 q 244 847 243 849 q 249 851 247 854 q 253 847 250 847 q 254 850 253 850 q 256 849 256 850 q 266 849 261 849 q 275 847 271 850 l 275 849 m 24 526 q 14 529 22 532 q 18 525 15 525 q 24 525 21 525 l 24 526 m 14 458 q 5 460 8 458 q -4 460 1 463 q 14 458 4 454 m -32 478 q -36 479 -32 479 q -35 478 -36 476 q -32 478 -35 479 z "},"G":{"ha":883,"x_min":-1344,"x_max":856,"o":"m 713 178 q 842 182 785 182 q 808 85 825 133 q 769 -17 792 36 l 754 -50 l 739 -74 l 713 -125 q 658 -226 689 -176 q 593 -321 628 -275 q 574 -345 583 -332 q 553 -369 565 -358 q 543 -380 549 -374 q 533 -390 538 -386 l 517 -399 l 493 -414 q 444 -443 468 -429 q 394 -469 419 -457 q 296 -522 344 -496 q 200 -575 247 -547 q -194 -774 1 -675 q -586 -971 -389 -872 q -890 -1115 -754 -1051 q -1114 -1221 -1025 -1179 q -1116 -1224 -1114 -1222 q -1119 -1228 -1118 -1225 q -1118 -1226 -1119 -1228 l -1118 -1225 q -1121 -1228 -1121 -1228 l -1122 -1228 l -1125 -1228 q -1125 -1229 -1122 -1228 q -1129 -1231 -1128 -1231 q -1133 -1232 -1132 -1231 q -1136 -1235 -1133 -1233 q -1133 -1233 -1133 -1235 q -1132 -1233 -1133 -1231 q -1167 -1252 -1150 -1243 q -1203 -1271 -1183 -1261 q -1219 -1278 -1210 -1274 q -1236 -1286 -1229 -1283 q -1232 -1285 -1233 -1285 q -1228 -1282 -1231 -1285 q -1218 -1277 -1224 -1279 q -1210 -1272 -1212 -1275 q -1237 -1285 -1224 -1279 q -1268 -1297 -1251 -1292 q -1252 -1291 -1260 -1294 q -1240 -1285 -1244 -1287 q -1230 -1279 -1235 -1282 q -1219 -1275 -1225 -1276 l -1222 -1275 q -1221 -1272 -1222 -1272 q -1222 -1272 -1219 -1272 l -1225 -1275 l -1222 -1275 l -1225 -1275 q -1228 -1277 -1228 -1275 q -1233 -1279 -1229 -1279 l -1233 -1276 l -1233 -1279 l -1236 -1279 q -1243 -1282 -1239 -1279 q -1250 -1286 -1247 -1285 q -1243 -1282 -1246 -1282 l -1246 -1282 q -1251 -1285 -1249 -1285 q -1257 -1286 -1254 -1285 q -1265 -1289 -1261 -1287 q -1272 -1290 -1269 -1290 l -1274 -1290 q -1272 -1287 -1272 -1290 l -1274 -1290 l -1274 -1287 q -1279 -1290 -1276 -1287 q -1286 -1293 -1282 -1293 q -1285 -1290 -1286 -1290 l -1283 -1290 q -1303 -1297 -1293 -1293 q -1325 -1307 -1314 -1301 q -1328 -1308 -1328 -1307 q -1332 -1307 -1329 -1310 l -1329 -1307 q -1344 -1310 -1339 -1307 q -1338 -1307 -1342 -1307 q -1335 -1304 -1335 -1307 l -1336 -1304 q -1333 -1301 -1335 -1301 q -1332 -1300 -1332 -1301 l -1332 -1301 q -1319 -1294 -1324 -1299 q -1311 -1290 -1315 -1294 q -1303 -1287 -1308 -1287 q -1296 -1285 -1299 -1286 q -1275 -1276 -1287 -1281 q -1272 -1272 -1272 -1274 l -1272 -1274 q -1274 -1272 -1272 -1274 l -1272 -1272 l -1274 -1272 q -1262 -1265 -1271 -1269 q -1256 -1263 -1258 -1264 q -1250 -1258 -1253 -1262 l -1256 -1264 q -1261 -1265 -1258 -1264 q -1268 -1265 -1264 -1265 q -1304 -1282 -1281 -1272 l -1300 -1278 l -1299 -1276 q -1315 -1284 -1307 -1281 q -1332 -1290 -1324 -1287 q -1331 -1287 -1332 -1287 l -1328 -1287 q -1322 -1285 -1325 -1286 q -1314 -1282 -1318 -1285 l -1314 -1279 q -1293 -1272 -1306 -1276 q -1269 -1261 -1281 -1267 q -1263 -1256 -1268 -1258 q -1256 -1251 -1258 -1254 l -1253 -1251 q -1249 -1249 -1251 -1251 l -1243 -1246 q -1243 -1244 -1243 -1243 q -1242 -1246 -1243 -1246 l -1242 -1243 l -1240 -1243 q -1241 -1242 -1240 -1240 q -1240 -1243 -1242 -1243 q -1195 -1220 -1217 -1232 q -1150 -1199 -1174 -1208 q -1051 -1137 -1106 -1169 q -938 -1074 -996 -1106 q -826 -1013 -881 -1042 q -728 -962 -771 -985 q -660 -927 -686 -940 q -633 -914 -633 -914 q -240 -708 -435 -811 q 153 -499 -44 -606 q 249 -446 201 -472 q 346 -394 296 -419 q 393 -365 369 -379 q 442 -335 417 -350 l 464 -321 l 472 -312 q 481 -307 481 -311 q 497 -288 490 -300 q 513 -267 504 -276 q 575 -177 547 -224 q 629 -81 603 -131 q 651 -32 640 -57 q 671 17 661 -7 q 681 45 676 31 q 690 71 685 60 q 673 70 683 71 q 653 67 663 69 l 613 64 l 475 44 l 167 4 l 147 69 l 132 121 l 108 206 q 88 292 97 250 q 71 378 79 333 q 52 465 60 422 q 36 551 44 508 q 32 597 33 575 q 29 644 31 619 l 26 665 l 26 690 q 25 728 24 710 q 26 767 26 747 l 153 819 l 249 858 q 342 894 293 878 q 442 928 392 911 q 490 944 465 938 q 543 957 515 950 q 570 963 557 961 q 599 969 583 965 q 616 971 607 969 q 633 972 625 972 q 651 972 642 972 q 681 964 661 971 q 689 960 685 964 l 696 957 q 704 950 699 956 q 711 944 707 947 q 713 940 715 940 l 715 940 l 721 932 l 729 918 l 743 896 q 758 872 751 882 q 771 850 765 861 q 793 800 782 824 q 815 753 804 776 q 838 683 832 708 q 842 642 843 657 q 843 635 843 639 q 846 629 843 632 q 851 608 849 621 q 853 588 853 596 q 850 593 850 590 q 850 599 850 596 q 843 621 849 608 q 849 585 846 604 q 856 547 853 567 q 849 566 850 557 q 846 582 849 575 l 842 582 q 841 596 844 590 q 835 608 838 601 l 835 606 q 832 606 835 606 q 833 604 833 606 q 834 605 835 604 q 835 606 833 606 q 836 604 838 604 q 833 601 835 604 q 836 598 832 599 q 838 593 840 597 l 835 593 l 835 592 q 835 590 835 590 q 836 590 838 590 q 838 593 835 590 q 833 588 838 588 q 834 578 833 583 q 835 568 835 572 q 833 571 833 568 q 832 576 832 574 q 831 567 829 569 q 833 560 832 564 q 833 548 831 553 q 832 539 835 543 q 830 539 829 536 q 826 539 831 542 l 828 538 q 826 536 828 536 q 824 539 826 539 l 825 538 q 824 536 825 536 l 822 536 q 821 531 819 533 q 819 525 822 528 l 815 525 q 818 501 818 514 q 819 474 818 488 q 817 471 817 471 q 815 468 818 471 l 813 468 q 801 450 803 458 q 801 456 801 453 q 799 463 801 460 q 797 463 796 463 q 796 460 799 463 q 794 464 793 463 q 793 468 796 465 q 792 467 790 468 q 790 465 793 465 q 790 474 788 469 q 788 483 792 478 q 791 488 794 486 q 786 492 788 489 q 783 502 783 497 q 781 513 783 507 q 778 525 778 518 q 778 536 778 532 q 777 539 775 536 q 774 542 779 542 l 774 539 q 772 538 771 536 q 771 539 774 539 l 771 536 q 768 545 769 540 q 767 554 767 550 q 765 563 764 558 q 758 568 765 567 q 760 566 758 567 q 761 563 761 565 q 759 556 757 560 q 761 549 761 553 q 765 526 761 538 q 764 501 768 514 q 760 507 761 504 q 756 513 760 510 q 760 490 758 501 q 761 468 761 478 q 757 469 757 468 l 758 471 l 756 471 q 755 481 754 475 q 754 489 756 486 l 751 489 q 744 517 744 501 q 739 544 744 533 q 735 553 738 547 q 729 565 732 558 l 729 574 q 728 581 729 578 q 725 579 726 579 q 725 581 724 579 l 728 581 q 726 583 725 581 q 725 588 728 585 q 724 585 722 588 q 722 585 725 582 q 705 644 715 618 q 683 697 694 671 q 666 742 676 721 q 646 786 656 764 q 636 807 640 797 q 626 828 632 817 l 622 836 q 617 833 622 833 q 595 831 606 833 q 574 825 585 828 q 526 813 550 819 q 481 801 503 807 q 387 770 433 786 q 292 739 340 754 l 200 703 l 150 683 l 150 651 q 155 610 153 631 q 161 567 157 589 q 172 485 165 526 q 185 401 178 443 q 203 317 194 357 q 224 235 213 276 l 251 126 l 463 151 l 599 165 l 713 178 m 758 571 q 762 576 763 574 q 761 581 761 578 q 758 579 758 581 q 756 581 758 578 q 758 571 754 575 m 822 536 q 823 539 824 539 q 822 542 822 539 q 821 539 821 542 q 822 536 821 538 m 824 593 q 826 584 826 589 q 829 576 826 579 q 830 585 832 579 q 824 593 828 590 m 651 883 q 660 889 661 889 q 656 887 660 889 q 650 883 653 885 q 653 885 647 882 l 653 888 q 651 886 651 888 l 651 883 m -1274 -1287 l -1272 -1287 l -1269 -1287 l -1274 -1287 m -1243 -1256 q -1247 -1257 -1246 -1256 q -1250 -1258 -1249 -1258 q -1246 -1260 -1249 -1261 q -1242 -1256 -1243 -1258 l -1243 -1256 m -1242 -1279 q -1239 -1276 -1240 -1279 q -1242 -1279 -1240 -1279 m -1119 -1225 q -1117 -1224 -1118 -1225 q -1114 -1222 -1115 -1222 q -1119 -1225 -1118 -1222 z "},"H":{"ha":807,"x_min":-196,"x_max":956,"o":"m 944 424 q 942 422 943 422 l 940 422 q 949 422 944 419 q 956 428 953 425 q 948 421 951 425 q 940 413 944 417 q 942 411 942 411 q 939 408 942 408 q 933 404 936 407 q 902 387 917 394 q 869 372 888 379 q 867 365 869 369 q 873 368 869 367 q 879 371 876 369 q 876 367 879 372 q 870 364 872 365 q 865 363 868 363 q 856 349 863 356 q 842 332 850 342 q 847 333 846 333 q 842 332 842 333 q 813 312 828 321 q 783 296 797 303 q 751 282 768 288 l 722 269 l 718 269 q 709 267 715 268 q 700 264 703 267 q 675 -50 683 107 q 674 -88 675 -69 q 672 -122 672 -107 l 672 -124 q 671 -144 671 -135 q 671 -162 671 -154 q 671 -173 671 -167 q 672 -186 671 -179 q 672 -185 671 -186 q 671 -183 672 -183 l 671 -190 q 672 -190 671 -190 q 671 -192 672 -192 l 671 -190 l 671 -196 q 672 -201 671 -199 q 672 -207 672 -204 l 672 -226 q 674 -258 672 -242 q 679 -287 676 -275 l 676 -287 q 678 -298 676 -292 q 679 -307 679 -304 q 679 -312 679 -312 q 674 -290 676 -301 q 672 -267 672 -278 q 671 -278 671 -268 q 666 -255 667 -265 q 664 -236 665 -244 l 663 -236 q 661 -235 661 -236 l 661 -240 l 661 -237 q 660 -239 660 -237 q 660 -240 661 -240 l 660 -236 q 660 -244 660 -236 q 660 -256 660 -250 q 661 -271 661 -262 q 663 -281 661 -276 q 664 -289 664 -285 q 663 -294 664 -292 q 664 -299 661 -297 q 665 -310 664 -306 q 665 -322 665 -315 l 665 -328 q 664 -326 665 -326 q 665 -331 664 -328 q 665 -336 665 -335 q 663 -331 664 -333 q 660 -325 661 -328 l 658 -325 q 657 -318 656 -322 q 656 -314 658 -314 q 651 -287 653 -300 q 646 -260 649 -274 l 646 -261 q 644 -255 644 -258 q 643 -250 644 -251 l 640 -250 l 640 -246 l 640 -247 l 640 -246 q 639 -247 639 -246 q 635 -240 635 -244 q 633 -231 635 -235 q 632 -212 633 -219 l 632 -221 q 629 -210 629 -218 q 629 -200 629 -203 q 625 -196 629 -200 q 626 -197 628 -196 q 628 -199 625 -199 l 628 -196 q 625 -190 625 -194 q 624 -183 625 -186 q 624 -195 624 -190 q 625 -207 624 -200 q 626 -227 624 -217 q 628 -246 628 -237 q 622 -207 625 -226 q 618 -168 619 -187 l 618 -193 q 619 -198 618 -196 q 618 -203 619 -200 q 617 -181 618 -196 q 614 -158 617 -167 l 614 -149 q 610 -113 611 -131 q 607 -82 608 -96 q 606 -59 606 -68 q 607 -50 606 -50 q 605 91 604 21 q 608 232 606 161 q 498 188 553 207 q 389 151 443 169 q 283 117 336 135 q 176 86 229 100 q 133 -260 157 -90 q 99 -600 110 -431 q 90 -695 92 -650 q 89 -776 89 -740 l 89 -781 q 88 -799 88 -789 q 88 -819 88 -810 q 88 -832 88 -826 q 89 -844 89 -837 l 89 -842 q 89 -844 89 -842 l 89 -847 l 89 -850 l 89 -857 l 89 -864 q 90 -868 89 -867 l 90 -887 q 93 -920 90 -903 q 99 -953 96 -937 l 96 -953 q 98 -962 96 -957 q 99 -972 100 -968 l 99 -975 l 99 -979 q 94 -955 96 -968 q 90 -926 93 -942 q 90 -933 89 -929 q 89 -942 90 -936 q 85 -914 86 -929 q 83 -887 85 -899 q 81 -882 81 -885 l 79 -882 l 81 -883 l 81 -900 q 81 -899 81 -900 q 80 -899 79 -899 q 79 -900 81 -900 l 79 -899 q 78 -901 76 -899 q 79 -904 79 -903 q 80 -919 79 -911 q 81 -933 81 -926 q 82 -946 81 -940 q 83 -957 83 -951 q 83 -961 83 -958 q 85 -967 82 -964 q 85 -976 83 -971 q 88 -989 88 -982 l 88 -987 q 86 -989 85 -987 q 88 -993 88 -990 q 85 -992 85 -993 l 85 -990 q 85 -997 83 -993 q 85 -1003 88 -1000 q 83 -995 85 -999 q 79 -989 81 -992 l 79 -990 q 76 -987 76 -989 q 75 -983 76 -985 q 71 -953 74 -968 q 65 -925 68 -937 l 65 -926 q 64 -919 64 -924 q 63 -912 64 -914 q 60 -910 60 -910 l 60 -908 l 60 -910 l 60 -908 q 58 -910 58 -908 q 56 -901 56 -906 q 54 -893 56 -897 q 53 -882 54 -886 q 49 -874 53 -878 l 49 -882 q 46 -873 46 -879 q 46 -862 46 -867 q 42 -858 42 -862 q 43 -859 44 -858 q 44 -860 42 -860 l 44 -857 l 42 -858 q 42 -852 40 -856 q 42 -844 44 -849 q 40 -843 42 -844 l 42 -843 l 42 -842 q 41 -842 40 -842 q 40 -843 42 -843 l 40 -837 q 40 -855 40 -847 q 42 -869 40 -862 l 40 -869 q 43 -889 42 -879 q 44 -908 44 -899 q 40 -869 42 -889 q 35 -828 38 -850 q 35 -841 35 -835 q 36 -854 36 -847 q 36 -864 36 -864 q 34 -843 36 -857 q 32 -818 32 -829 q 31 -766 31 -790 q 28 -714 31 -742 l 28 -697 l 28 -696 q 26 -697 26 -696 q 28 -687 26 -692 q 25 -654 25 -669 q 25 -626 25 -639 q 26 -600 25 -612 q 47 -272 31 -435 q 74 53 63 -110 l 74 54 l 74 53 l 71 53 l 74 53 q 67 51 71 53 q 60 50 63 50 q 35 45 46 47 q 13 40 24 43 l 8 40 q -10 37 -3 39 q -25 33 -18 35 q -47 33 -35 33 q -68 35 -60 33 q -65 36 -68 38 q -61 35 -62 35 q -47 37 -54 35 q -33 39 -40 39 q -73 40 -54 40 q -110 43 -92 40 q -90 44 -100 44 q -72 44 -79 43 l -72 49 q -60 47 -67 44 q -46 50 -53 49 l -47 50 q -49 53 -50 53 q -47 54 -47 53 l -50 54 l -50 53 q -51 51 -50 50 q -51 54 -51 53 q -58 53 -54 57 q -62 53 -61 49 l -62 54 l -64 56 q -65 54 -65 56 l -65 53 q -67 58 -67 53 q -76 58 -69 58 q -86 58 -82 57 q -81 60 -83 60 q -76 63 -79 60 q -93 63 -85 67 q -103 66 -99 69 q -110 71 -107 63 q -111 73 -112 74 q -110 75 -110 72 q -111 76 -110 76 q -112 76 -112 75 q -107 79 -107 76 q -111 78 -110 79 q -112 79 -112 76 l -112 82 q -119 87 -115 88 q -126 89 -124 86 l -125 89 q -124 92 -125 89 q -150 95 -136 93 q -178 100 -164 97 q -183 102 -181 103 q -186 104 -185 101 l -186 107 l -185 107 q -190 115 -187 111 q -196 122 -193 118 q -191 121 -194 124 q -186 122 -187 118 q -187 128 -186 124 q -182 129 -182 128 q -183 129 -181 131 q -182 131 -185 128 q -173 128 -178 131 q -161 129 -168 125 q -157 126 -160 124 q -151 129 -154 129 q -143 130 -149 131 q -133 131 -137 129 q -118 131 -125 131 q -104 129 -111 131 q -101 128 -101 131 q -97 131 -100 125 l -99 131 q -100 133 -100 131 q -99 134 -100 136 q -97 135 -97 132 q -100 138 -100 135 q -93 138 -97 138 q -82 139 -89 139 q -75 138 -79 139 q -68 140 -71 138 q -72 142 -71 143 q -75 140 -72 140 q -81 144 -78 146 q -87 143 -83 143 q -112 144 -99 144 q -139 149 -126 144 q -132 152 -136 151 q -126 154 -128 153 q -151 156 -139 154 q -172 158 -162 157 q -171 163 -172 163 l -169 161 l -168 161 q -165 163 -168 161 q -158 163 -162 164 q -150 163 -153 161 l -147 164 q -117 165 -132 167 q -87 164 -101 163 q -78 168 -82 167 q -68 172 -74 169 q -57 168 -67 168 l -54 168 q -51 172 -51 168 q -53 175 -53 174 q -51 175 -53 176 q -51 175 -50 178 q -50 172 -51 172 q -47 171 -49 171 q -43 172 -44 171 q -45 174 -43 175 q -47 175 -47 172 q -26 176 -35 175 q -7 179 -17 178 l 3 179 q 42 186 22 182 q 83 193 63 190 q 88 517 92 357 q 54 833 85 678 q 46 838 46 833 l 49 838 q 47 841 49 840 q 44 844 44 842 l 44 846 l 46 844 l 49 844 q 45 858 46 851 q 42 872 44 865 l 38 872 l 38 874 l 40 874 q 40 879 38 878 l 40 878 l 40 883 l 40 885 q 38 893 38 890 q 36 914 35 906 q 40 929 38 922 q 49 943 42 936 q 47 945 46 943 q 44 947 47 947 q 47 949 47 949 q 46 951 46 949 q 49 952 49 951 q 54 953 50 953 q 45 957 43 953 q 40 963 47 961 q 41 965 42 963 q 42 967 40 967 l 46 967 q 44 970 44 968 q 40 972 43 972 l 38 972 l 39 972 l 38 974 q 40 975 40 976 q 42 976 40 974 q 42 980 44 978 q 38 982 40 982 q 39 980 35 979 q 38 976 43 981 q 38 978 40 978 q 38 978 35 978 l 36 978 q 35 983 35 983 l 36 983 q 38 986 38 985 q 36 985 38 988 q 36 989 35 988 q 38 987 39 989 q 40 985 36 985 q 38 994 40 993 l 35 994 q 34 995 36 994 q 35 999 32 996 q 35 1003 31 999 q 33 1003 32 1003 q 35 1003 35 1004 q 36 1000 35 1003 q 36 1001 36 1003 q 38 1003 36 1000 q 38 999 40 1000 q 38 999 35 999 l 40 999 l 40 1000 l 44 1000 q 43 1003 42 1003 q 42 1007 44 1004 q 43 1010 44 1008 q 44 1015 42 1013 q 46 1004 46 1011 q 49 1006 47 1006 l 49 1004 q 51 1007 53 1007 q 54 1007 50 1007 q 56 1006 57 1007 q 56 1004 54 1004 q 49 1003 56 1003 l 56 1003 q 58 996 58 1000 q 58 989 58 992 q 57 990 58 990 q 56 989 56 990 q 57 990 56 990 q 58 989 57 990 q 53 986 56 988 q 58 988 51 985 q 58 983 58 983 q 56 983 56 982 q 54 983 56 983 q 56 978 54 978 q 57 978 58 978 q 58 982 56 979 q 60 974 61 978 q 63 968 60 969 q 65 970 65 968 q 65 969 64 972 q 68 967 65 968 q 69 963 71 967 l 71 963 l 69 963 q 71 961 71 963 l 69 961 q 74 949 74 958 l 76 949 l 76 951 q 74 953 75 951 q 76 956 74 956 q 75 957 75 956 q 76 956 76 957 q 79 957 76 956 q 78 959 82 958 q 75 963 74 960 q 76 962 76 963 q 79 963 76 961 q 76 965 75 963 q 74 968 76 967 q 76 969 74 968 q 77 987 79 979 q 75 1003 75 994 q 71 1007 75 1003 q 74 1008 74 1007 q 75 1008 74 1008 q 74 1015 75 1013 q 74 1019 74 1017 q 77 1011 74 1015 q 81 1000 81 1007 q 80 998 81 999 q 79 994 79 997 q 83 987 81 992 q 85 976 85 982 l 81 976 q 85 972 88 974 q 88 968 82 969 q 89 969 88 968 q 93 965 94 968 q 96 963 92 963 q 93 969 96 967 q 90 974 90 972 q 92 977 90 976 q 90 976 94 978 q 90 985 93 981 q 88 992 88 989 q 89 994 88 993 q 88 999 90 996 l 89 999 q 85 1008 86 1001 q 85 1019 83 1015 l 85 1035 q 81 1039 85 1039 q 80 1047 76 1042 q 81 1058 83 1051 q 83 1058 83 1058 q 85 1061 82 1058 q 87 1055 88 1058 q 89 1049 86 1051 l 89 1051 q 90 1050 90 1051 q 94 1049 90 1049 q 96 1057 94 1051 q 98 1047 99 1053 q 101 1039 97 1042 q 103 1044 104 1043 q 104 1049 101 1046 q 106 1051 104 1049 q 111 1058 106 1058 q 114 1058 114 1058 q 117 1058 114 1057 q 117 1057 114 1057 l 119 1057 q 117 1055 117 1057 q 119 1057 117 1053 l 119 1051 l 118 1051 q 117 1049 117 1051 q 118 1049 119 1051 q 121 1049 117 1046 q 118 1046 121 1046 l 117 1046 l 121 1046 l 119 1046 q 123 1043 121 1044 q 126 1039 125 1042 l 125 1039 l 125 1038 q 128 1038 128 1040 q 132 1039 131 1039 q 133 1038 132 1038 q 132 1035 135 1038 l 135 1035 q 133 1033 132 1033 q 132 1033 135 1033 l 135 1033 l 136 1033 q 135 1032 136 1033 q 137 1031 139 1032 q 132 1028 135 1029 q 138 1029 135 1029 q 139 1026 140 1028 q 140 1025 138 1024 l 140 1024 l 142 1024 l 140 1021 l 142 1019 q 143 1018 142 1019 l 146 1018 l 143 1015 q 144 1013 143 1014 q 143 1008 146 1013 l 146 1008 q 147 1005 146 1006 q 146 1003 149 1004 l 150 1003 l 150 994 q 151 989 151 993 q 153 983 153 986 q 156 978 153 981 q 160 982 156 982 l 163 982 l 160 982 q 161 981 160 979 q 165 982 163 982 q 159 978 158 979 q 163 976 160 976 q 165 978 163 976 l 165 976 l 163 976 l 164 976 l 163 975 q 161 974 161 975 q 160 974 161 974 q 158 976 157 974 q 157 978 160 978 l 157 976 q 156 975 157 975 q 156 974 156 975 l 157 976 l 157 974 l 153 974 l 151 974 q 150 972 150 974 q 151 973 151 972 q 153 974 151 974 l 156 974 l 157 974 q 160 968 157 968 q 161 969 160 968 l 163 969 q 164 971 165 972 q 165 969 163 969 l 167 972 q 167 968 167 968 l 168 968 q 172 967 168 968 q 169 965 168 964 q 172 963 169 965 l 168 963 q 167 961 168 963 l 168 963 q 167 961 168 963 q 169 960 168 961 q 168 958 169 958 l 172 958 q 174 953 174 956 q 176 947 174 951 l 174 947 q 177 945 179 947 q 178 943 175 943 q 176 939 176 943 q 178 933 179 936 q 178 925 178 929 q 179 919 181 921 q 178 914 178 917 l 178 911 q 208 560 210 733 q 192 215 207 388 q 277 232 235 222 q 360 253 319 242 q 475 279 418 265 q 588 308 532 293 q 599 314 593 313 q 610 318 606 315 q 622 574 615 447 q 635 826 629 701 q 639 839 635 838 q 643 931 639 886 q 650 951 643 944 l 650 956 q 657 976 653 965 q 664 994 661 988 q 661 988 668 990 q 660 974 660 981 q 658 961 660 968 q 669 998 664 979 q 683 1033 674 1017 q 678 1015 681 1024 q 675 999 675 1006 l 676 994 q 672 983 672 990 q 671 969 672 976 q 672 972 672 969 q 674 969 675 969 q 676 968 674 969 l 676 972 q 675 971 675 972 q 675 972 675 969 q 674 974 672 974 q 676 972 675 974 q 676 979 679 975 q 679 985 672 983 l 681 983 l 681 988 q 679 986 679 988 l 679 985 q 685 988 679 989 q 687 997 686 990 q 690 1007 688 1004 l 690 994 q 697 1014 697 1004 q 702 1021 703 1017 q 706 1028 701 1025 q 709 1028 711 1029 q 714 1025 707 1028 q 715 1027 715 1025 q 715 1028 714 1029 q 718 1024 715 1025 q 717 1026 718 1025 q 718 1028 715 1028 l 719 1028 q 724 1031 724 1028 q 728 1038 725 1035 q 732 1033 729 1035 q 740 1058 735 1044 q 749 1085 744 1072 q 755 1086 756 1085 q 758 1090 754 1088 q 761 1088 758 1088 q 776 1096 774 1092 q 776 1091 779 1094 q 775 1085 774 1088 q 776 1085 776 1085 q 779 1086 776 1086 q 778 1083 779 1085 q 779 1081 776 1082 q 780 1080 781 1078 q 781 1081 779 1082 q 776 1074 779 1078 q 775 1064 774 1069 q 771 1060 768 1064 q 774 1051 774 1057 q 772 1041 774 1046 q 767 1032 769 1036 q 763 1019 767 1025 q 757 1008 760 1014 q 756 1004 758 1006 q 758 1000 753 1003 l 758 1003 q 763 1003 765 1003 q 763 1000 760 1003 q 763 1003 763 1003 q 767 1003 763 1003 q 763 992 764 996 q 761 985 763 988 q 760 976 761 979 q 761 968 758 972 l 761 976 q 767 981 768 976 q 769 989 767 985 q 776 1012 774 1000 q 788 1032 779 1024 q 789 1019 788 1024 q 797 1043 792 1031 q 807 1067 803 1056 q 810 1063 813 1064 q 807 1061 807 1063 l 810 1061 q 806 1049 810 1054 q 803 1038 803 1043 q 807 1035 806 1038 q 797 1010 804 1024 q 789 982 790 996 l 789 961 q 786 957 788 958 q 785 953 785 956 q 784 949 785 951 q 785 944 783 947 l 788 944 q 783 944 788 944 q 783 941 785 943 q 783 936 781 939 q 784 939 785 936 q 785 939 783 942 q 783 926 783 932 q 781 914 783 919 q 747 635 764 775 q 714 356 729 494 q 728 361 721 358 q 742 367 735 364 q 740 365 742 365 l 738 365 q 742 365 738 361 q 746 367 743 365 q 747 368 747 367 q 747 369 746 369 l 747 368 l 747 367 q 753 369 749 367 q 758 371 757 371 q 766 374 761 372 q 774 376 771 375 q 787 381 779 379 q 801 385 794 383 q 842 405 821 394 q 882 422 863 415 l 883 422 q 897 426 890 424 q 911 432 904 429 q 916 434 914 432 q 919 433 918 436 q 888 419 904 426 q 853 404 871 411 q 859 406 856 404 q 867 407 863 407 q 838 389 854 396 q 806 375 821 382 q 794 371 799 372 q 788 367 790 369 q 795 368 792 367 q 803 371 799 369 q 813 374 808 372 q 822 376 817 375 q 821 375 822 376 l 822 375 q 833 378 829 376 q 842 381 838 379 q 853 385 849 383 q 864 392 858 388 q 894 404 876 401 q 901 406 897 407 q 907 411 906 406 q 922 417 915 413 q 936 424 928 421 q 935 422 936 422 l 933 422 q 939 421 936 419 q 944 424 942 422 m 761 968 q 755 965 754 968 q 753 958 756 961 l 757 958 q 761 968 761 958 m 719 1025 q 718 1021 719 1025 q 719 1022 718 1021 l 719 1025 m 690 994 q 688 987 689 992 q 689 976 686 982 q 691 987 689 983 q 690 994 693 990 m 56 983 l 58 983 q 56 985 56 983 l 56 983 m 36 982 q 38 983 38 983 q 36 983 39 983 q 36 983 38 983 q 36 982 35 982 m -112 82 q -108 81 -110 79 q -106 79 -107 82 q -112 82 -106 82 m -76 63 q -57 65 -69 57 q -68 65 -64 63 q -76 63 -72 68 m -57 140 q -67 140 -64 147 q -57 139 -67 139 l -57 140 m 90 949 l 99 949 q 95 949 96 947 q 90 951 94 951 l 90 949 m 100 968 q 99 967 99 968 q 100 967 99 967 l 96 967 q 97 965 96 965 l 99 967 q 101 960 101 963 q 101 956 100 958 q 101 961 106 957 q 104 960 104 961 q 106 958 104 958 q 101 963 106 960 l 104 963 q 100 968 104 968 m 110 1008 q 112 1013 114 1011 q 110 1015 110 1014 q 108 1013 106 1014 q 110 1008 110 1011 m 113 999 l 111 1000 q 109 999 107 999 q 110 999 111 999 l 113 999 m 110 1015 l 106 1015 l 110 1015 m 131 1004 q 131 1007 133 1007 q 132 1008 129 1007 l 131 1008 q 129 1007 128 1007 q 128 1007 131 1007 q 129 1006 131 1008 q 131 1004 128 1004 m 126 1021 q 126 1015 125 1018 q 128 1008 128 1013 q 129 1015 131 1013 q 126 1021 128 1018 m 128 982 l 125 982 l 126 982 l 128 982 m 165 963 q 163 961 161 961 q 167 963 165 961 q 167 961 165 961 l 160 961 q 163 962 163 961 q 165 963 163 963 m 150 967 q 150 972 153 971 q 146 976 147 974 q 147 972 147 974 q 147 967 146 969 l 146 967 q 148 960 149 964 q 150 953 147 956 l 147 953 l 150 953 q 152 946 151 950 q 156 935 153 942 q 151 932 153 935 l 153 933 q 156 935 153 933 l 156 929 q 157 926 157 929 q 158 931 160 929 q 157 935 157 932 l 160 935 q 156 946 157 942 q 153 953 156 950 q 151 954 151 953 q 156 957 151 954 q 152 960 156 960 q 153 963 149 960 q 151 966 153 965 q 151 968 149 967 q 150 967 151 968 m 146 978 l 147 978 q 147 979 149 979 q 146 978 146 979 l 144 976 l 146 976 q 150 978 147 978 l 146 978 m 146 993 q 145 992 143 993 q 146 992 147 992 l 144 992 q 146 993 144 993 m 146 986 q 143 985 146 985 q 145 982 146 985 q 151 982 144 979 q 147 985 147 983 q 147 989 147 988 q 149 988 147 988 q 147 988 150 988 q 146 988 146 988 q 147 989 146 989 q 147 990 147 992 q 146 992 146 989 q 144 989 144 990 q 146 988 144 988 l 146 986 m 146 972 q 143 971 144 972 l 142 969 q 144 971 142 969 q 146 972 146 971 m 140 978 q 135 992 136 983 q 131 1004 133 1000 q 129 1003 128 1003 q 128 1003 131 1003 q 131 999 131 1003 q 131 994 132 996 q 132 992 131 993 l 131 989 l 132 989 q 135 982 135 988 q 140 972 136 976 q 140 976 144 976 l 143 976 q 140 977 140 976 q 142 978 139 978 q 142 979 142 981 q 140 978 142 978 m 135 1004 q 133 1003 135 1003 l 132 1003 l 135 1003 l 138 1003 q 139 1003 139 1003 q 138 1004 139 1004 l 135 1004 m 131 1028 q 133 1031 133 1029 q 131 1029 133 1032 l 128 1029 q 129 1029 128 1029 l 131 1029 l 128 1028 l 131 1028 q 131 1028 131 1028 m 126 1035 q 128 1033 129 1035 q 131 1032 126 1032 q 128 1035 133 1035 q 131 1036 131 1035 q 126 1035 131 1038 m 126 1028 q 121 1025 125 1028 q 125 1026 124 1025 q 125 1025 126 1028 l 126 1028 m 110 1019 q 108 1020 108 1019 q 106 1021 107 1021 q 108 1018 104 1018 q 110 1015 111 1018 q 112 1017 111 1015 q 110 1018 113 1019 l 111 1019 l 110 1019 m 106 1024 q 107 1026 110 1025 q 106 1029 104 1028 q 104 1026 103 1026 q 106 1024 106 1025 m 104 1029 q 107 1031 108 1029 q 104 1032 106 1032 q 103 1029 101 1029 q 104 1029 106 1029 m 104 1035 q 101 1034 101 1035 q 104 1033 101 1033 l 104 1035 m 101 1038 q 101 1036 100 1038 q 104 1035 101 1035 l 101 1038 m 100 972 q 101 974 100 972 q 100 972 100 974 l 99 972 l 100 972 m 90 989 l 94 989 l 90 989 m 90 988 q 94 986 94 988 q 94 983 94 985 q 94 989 99 985 l 90 988 m 94 983 q 99 972 96 975 q 100 974 100 972 q 99 979 97 976 q 94 983 100 982 m 89 956 q 90 956 88 956 q 89 956 93 957 l 90 956 q 96 953 96 957 q 90 958 100 958 q 89 956 92 958 m 69 956 q 68 958 67 957 q 64 958 69 958 q 66 957 64 957 q 64 956 68 957 l 65 956 l 69 956 m 56 978 q 56 972 63 975 q 56 978 56 972 m 56 989 q 54 992 58 992 l 49 992 l 54 992 l 54 990 q 56 989 54 989 m 56 1003 q 53 1000 50 1000 q 54 1000 56 1000 q 50 1001 54 1003 q 49 1003 46 1000 l 56 1003 m 54 994 q 50 993 47 993 q 49 992 53 993 l 51 992 l 54 992 q 53 993 56 993 q 56 993 50 993 l 53 993 q 52 994 51 993 q 56 994 53 994 q 54 997 56 994 l 54 999 l 46 999 q 51 997 53 999 q 54 994 50 994 m 49 974 q 54 963 53 971 q 63 951 56 956 l 64 949 q 63 951 65 951 q 64 953 63 951 q 60 956 60 953 l 63 956 q 62 960 64 958 q 60 967 60 963 q 63 964 64 967 q 65 961 61 961 q 64 964 64 961 q 64 968 64 967 q 60 967 63 967 q 60 968 58 968 l 58 969 q 58 968 56 968 q 58 967 60 968 q 55 970 56 968 q 49 974 54 972 m 60 947 l 63 947 l 60 947 m 40 874 l 42 874 l 42 872 q 40 874 42 874 m 46 -854 q 46 -864 46 -857 q 49 -874 46 -871 q 47 -864 49 -869 q 46 -854 46 -858 m 63 -907 q 61 -908 63 -908 q 63 -910 60 -908 l 63 -907 m 629 -200 q 632 -206 632 -203 q 632 -212 632 -210 l 632 -204 q 629 -200 632 -203 m 640 -244 q 642 -247 643 -246 q 643 -247 640 -247 l 643 -246 q 640 -244 643 -246 z "},"I":{"ha":639,"x_min":-365,"x_max":1911,"o":"m -106 771 q -103 769 -106 771 q -103 770 -100 771 q -106 771 -106 769 m -96 764 q -101 763 -99 761 q -100 767 -103 764 q -97 765 -97 767 q -96 764 -97 764 m -93 757 q -96 760 -99 757 q -93 757 -93 760 m -92 757 q -93 756 -92 757 q -94 756 -92 757 q -93 757 -96 756 l -92 757 m -90 750 q -90 751 -90 750 q -89 751 -90 750 q -89 750 -87 751 l -90 750 m -86 743 q -86 746 -89 743 l -85 746 l -85 743 l -86 743 m -83 740 q -83 742 -85 740 q -82 741 -83 740 q -83 740 -81 742 m -186 660 l -189 657 q -186 661 -187 660 l -186 660 m -183 658 q -183 657 -183 658 l -186 654 q -185 656 -183 657 q -183 658 -186 656 m -183 657 q -179 650 -181 654 q -182 649 -181 649 q -183 649 -181 650 q -183 651 -185 649 q -185 651 -186 649 q -183 651 -185 654 l -183 654 l -185 653 l -185 654 q -183 657 -183 656 m -58 724 q -57 722 -58 722 q -57 719 -56 721 q -58 722 -57 722 q -58 724 -60 722 m -51 708 q -53 710 -51 710 q -53 713 -54 710 q -51 710 -53 710 q -51 708 -50 711 m -83 681 q -83 683 -83 681 q -84 682 -86 681 q -83 681 -82 683 m -79 675 l -81 675 q -82 676 -82 675 l -81 676 q -79 678 -81 676 q -79 675 -74 678 m -78 674 q -78 674 -76 675 q -78 675 -79 674 l -76 675 q -78 674 -76 675 m -71 676 l -71 675 q -74 674 -72 674 l -72 674 q -69 675 -72 674 q -69 673 -71 674 q -69 669 -67 672 q -73 673 -71 672 q -72 676 -75 674 l -71 676 m -51 688 q -51 685 -49 685 q -51 688 -54 685 m -81 649 q -82 647 -81 649 q -82 649 -83 647 l -81 649 m -83 644 q -83 647 -85 646 q -83 647 -85 646 q -83 644 -82 647 m -50 657 q -50 654 -50 654 q -53 650 -51 651 q -53 656 -50 653 q -50 657 -51 657 m -31 668 q -32 667 -32 667 q -29 669 -32 668 q -28 669 -28 669 q -31 668 -29 668 m -60 633 q -58 638 -60 636 q -58 636 -60 636 q -60 633 -57 636 m -57 631 q -59 633 -57 632 q -58 636 -61 633 q -57 633 -58 633 q -57 631 -56 632 m -106 772 q -107 774 -108 772 l -106 772 m -162 628 l -161 628 q -162 625 -161 628 q -163 625 -162 626 q -164 625 -164 624 l -162 626 l -164 626 l -162 626 l -164 626 l -162 628 m -162 631 q -162 629 -164 629 q -162 628 -161 629 q -165 626 -164 626 q -167 631 -167 629 q -171 632 -169 633 q -169 633 -171 633 q -172 635 -172 633 q -171 638 -171 636 q -175 633 -174 636 l -174 638 q -174 639 -175 638 q -176 638 -172 640 q -176 639 -175 639 q -176 640 -178 639 l -175 640 q -176 640 -175 642 q -181 646 -179 644 q -180 647 -179 647 q -179 649 -181 647 q -171 639 -169 646 q -168 640 -169 640 q -167 636 -169 638 q -164 631 -164 635 q -165 629 -164 631 q -162 631 -162 629 m -181 647 q -182 647 -181 647 l -179 650 q -178 650 -179 650 l -181 647 m -56 683 q -56 685 -57 683 q -57 685 -56 686 l -57 683 q -59 683 -60 682 q -60 685 -58 685 q -56 686 -57 685 l -56 683 m -132 604 q -133 606 -133 604 q -131 603 -131 607 l -131 604 l -133 601 q -135 603 -133 603 q -132 604 -133 604 m -69 625 q -72 625 -71 624 q -69 628 -72 626 q -69 625 -69 625 m -194 664 q -197 664 -197 661 q -199 665 -196 667 q -194 668 -196 668 q -194 667 -193 668 q -194 667 -196 665 l -193 668 q -194 667 -192 668 q -193 665 -189 669 l -196 665 q -194 665 -196 664 q -194 664 -193 665 m -87 700 q -89 697 -90 697 q -90 694 -87 697 q -97 706 -97 701 q -92 702 -93 706 q -87 700 -92 699 m 1879 869 q 1876 869 1876 869 l 1882 869 l 1879 869 m 1882 860 q 1870 859 1875 860 q 1858 857 1865 858 q 1875 860 1865 860 q 1892 863 1885 860 l 1893 863 q 1888 860 1890 860 q 1882 860 1885 861 m 1808 850 q 1809 851 1806 850 q 1811 850 1813 851 q 1808 850 1811 850 m 1893 835 q 1894 838 1893 838 q 1896 835 1896 838 l 1893 835 m 1786 825 q 1790 826 1789 825 q 1793 826 1792 826 q 1790 824 1793 825 q 1786 825 1786 822 m 1796 825 q 1798 826 1797 826 q 1800 826 1799 825 q 1796 825 1800 825 m 1846 828 q 1852 830 1849 831 q 1858 831 1856 829 q 1853 828 1857 828 q 1846 828 1849 828 m 1858 829 q 1860 830 1858 831 q 1864 831 1863 829 l 1864 828 q 1862 828 1863 828 q 1858 829 1861 829 m 1744 811 q 1750 812 1747 811 q 1756 811 1753 813 l 1744 811 m 1776 813 q 1778 814 1776 814 q 1779 813 1779 814 l 1776 813 m 1831 813 q 1863 815 1846 811 q 1894 819 1879 818 q 1858 813 1878 814 q 1821 808 1839 811 q 1816 809 1819 811 q 1811 810 1813 807 q 1822 810 1815 810 q 1831 811 1828 811 q 1831 813 1832 813 m 1742 806 q 1740 804 1742 804 q 1736 806 1738 804 l 1742 806 m 1810 810 q 1804 808 1808 808 q 1807 810 1804 808 l 1810 810 m 1783 806 l 1782 806 q 1783 807 1782 807 l 1783 806 m 1794 807 q 1790 806 1792 807 q 1785 807 1788 806 q 1790 808 1788 807 q 1794 807 1792 808 m 1746 801 q 1743 801 1744 800 q 1740 800 1742 801 q 1746 801 1740 801 m 1749 801 q 1752 802 1750 803 q 1757 803 1754 801 q 1753 801 1757 800 q 1749 801 1750 801 m 1776 804 q 1774 803 1776 803 q 1775 803 1772 803 q 1771 801 1774 801 q 1765 801 1768 801 l 1765 803 q 1771 804 1768 804 q 1776 804 1774 804 m 1676 792 q 1671 790 1674 790 q 1674 792 1668 790 l 1676 792 m 1828 801 q 1838 803 1831 803 q 1828 801 1836 801 m 1819 801 q 1817 800 1818 800 l 1818 800 q 1817 801 1818 801 l 1819 801 m 1790 797 q 1788 796 1790 796 l 1786 796 q 1790 797 1786 797 m 1597 860 l 1596 860 q 1599 860 1597 860 q 1603 860 1601 861 l 1597 860 m 1850 863 q 1855 864 1851 863 q 1860 863 1858 865 l 1850 863 m 1633 788 q 1633 789 1633 788 q 1639 788 1636 789 l 1633 788 m 1736 800 q 1718 800 1726 794 l 1736 800 m 1674 792 q 1674 793 1672 793 q 1676 792 1675 793 l 1674 792 m 1817 826 q 1804 823 1808 825 q 1794 822 1800 821 q 1801 825 1796 825 l 1801 826 l 1811 826 l 1810 826 q 1815 827 1813 826 q 1821 828 1818 828 q 1815 826 1819 826 l 1817 826 m 1832 819 q 1840 821 1839 822 q 1855 826 1846 825 q 1871 826 1864 826 q 1858 824 1864 824 q 1847 822 1853 825 q 1840 820 1843 821 q 1832 819 1836 819 m 818 1139 q 817 1138 818 1138 q 815 1136 815 1138 q 814 1138 813 1138 q 818 1139 815 1139 m 804 1154 q 797 1144 799 1151 q 790 1135 796 1136 q 794 1142 793 1138 q 797 1150 794 1146 q 801 1153 800 1151 q 804 1156 801 1156 l 804 1154 m 765 1085 l 768 1085 q 767 1083 767 1085 q 765 1083 768 1082 l 765 1085 m 772 1107 q 774 1106 775 1107 q 772 1106 772 1104 q 772 1107 772 1106 m 756 1181 q 757 1178 758 1179 q 756 1179 756 1178 l 756 1181 m 721 1115 q 719 1118 718 1117 q 722 1118 721 1119 q 722 1117 722 1117 q 721 1115 721 1117 m 724 1124 q 724 1122 722 1124 q 722 1121 725 1121 q 724 1124 722 1124 m 733 1153 q 735 1158 733 1156 q 739 1160 736 1161 q 737 1156 738 1158 q 733 1153 736 1154 m 738 1161 q 738 1163 739 1163 q 736 1164 736 1163 q 739 1163 738 1164 l 739 1161 q 738 1161 739 1161 m 694 1104 q 697 1100 697 1101 q 693 1099 696 1099 q 694 1101 693 1100 q 694 1104 694 1103 m 703 1118 l 701 1117 q 701 1119 700 1118 l 703 1118 m 699 1144 q 699 1149 696 1147 q 697 1153 701 1150 q 710 1173 704 1161 q 726 1193 715 1185 q 713 1175 721 1183 q 708 1154 706 1167 q 706 1155 706 1154 q 703 1156 706 1156 q 701 1150 703 1153 q 699 1144 700 1147 m 682 1101 q 681 1097 682 1099 q 682 1101 681 1101 m 697 1143 q 698 1140 699 1142 q 694 1142 697 1139 q 696 1142 696 1142 q 697 1143 696 1143 m 692 1129 q 688 1126 690 1126 q 692 1129 685 1132 m 693 1135 q 690 1131 693 1131 q 693 1135 688 1132 m 675 1108 q 674 1105 674 1107 q 672 1104 675 1103 q 673 1106 674 1104 q 675 1108 672 1107 m 678 1114 q 676 1110 675 1113 q 674 1108 676 1108 q 675 1113 675 1111 q 678 1114 675 1115 m 683 1125 q 682 1122 682 1124 q 681 1119 682 1121 q 678 1121 678 1119 q 678 1124 679 1122 q 681 1125 678 1125 q 683 1125 681 1126 m 647 1067 q 646 1066 646 1064 q 649 1069 646 1068 q 647 1067 649 1068 m 688 1169 q 685 1163 688 1165 q 688 1169 685 1169 m 681 1157 q 683 1158 682 1158 q 683 1157 682 1158 q 682 1157 683 1156 l 681 1157 m 674 1142 q 672 1139 676 1138 q 673 1140 674 1139 q 674 1142 672 1142 m 765 954 q 764 956 765 954 q 765 958 763 956 q 767 956 767 957 q 765 954 767 954 m 803 1131 q 803 1125 804 1126 q 800 1124 801 1124 q 803 1131 800 1128 m 772 1100 q 769 1094 769 1097 q 767 1088 769 1090 q 766 1092 769 1090 q 769 1094 763 1094 q 769 1099 769 1096 q 772 1100 768 1101 m 636 1047 q 638 1043 642 1043 l 636 1043 q 636 1047 636 1043 m 667 1089 q 672 1101 664 1100 q 669 1096 669 1099 q 667 1089 669 1093 m 650 1068 q 651 1067 651 1068 q 649 1067 651 1065 l 650 1068 m 728 1135 l 731 1135 q 728 1132 731 1132 q 728 1129 726 1132 q 727 1126 728 1126 q 726 1124 726 1125 q 724 1124 724 1124 q 722 1125 724 1125 q 719 1121 722 1124 q 720 1129 717 1128 q 726 1135 724 1131 q 728 1133 726 1133 l 728 1135 m 718 1150 q 719 1156 717 1154 q 724 1158 722 1157 q 728 1165 728 1161 q 735 1172 729 1169 q 730 1162 732 1168 q 721 1156 728 1156 q 718 1150 724 1153 m 1635 -212 l 1633 -212 l 1635 -212 m 1643 -212 q 1639 -213 1640 -212 q 1635 -214 1638 -214 q 1643 -212 1640 -214 m 1633 -214 l 1635 -214 l 1633 -214 m 1600 -217 q 1599 -218 1600 -218 q 1599 -218 1599 -218 q 1600 -217 1599 -217 m 1601 -224 l 1600 -224 l 1601 -224 m 1525 -239 q 1528 -238 1528 -237 q 1529 -239 1528 -239 l 1525 -239 m 1529 -239 q 1531 -237 1529 -239 l 1531 -239 l 1529 -239 m 1617 -231 l 1618 -231 l 1617 -231 m 1529 -242 l 1526 -242 l 1528 -242 l 1526 -242 l 1529 -242 m 1528 -242 q 1525 -243 1526 -243 q 1528 -242 1526 -242 m 1632 -203 q 1639 -201 1635 -201 q 1646 -201 1643 -201 l 1644 -201 q 1643 -201 1643 -201 q 1631 -203 1638 -203 l 1632 -203 m 1643 -211 l 1639 -211 q 1643 -211 1639 -210 m 1636 -211 l 1639 -211 l 1636 -211 m 1632 -222 l 1626 -222 l 1632 -222 m 1607 -224 q 1610 -224 1610 -224 q 1612 -223 1611 -224 q 1614 -222 1613 -222 q 1603 -225 1608 -225 q 1606 -224 1604 -224 q 1607 -224 1607 -225 m 1622 -228 l 1622 -224 q 1619 -225 1622 -225 q 1622 -224 1619 -225 l 1625 -224 l 1629 -224 q 1633 -223 1632 -224 q 1638 -222 1635 -222 q 1631 -224 1635 -224 q 1626 -224 1628 -224 l 1622 -224 q 1625 -226 1625 -225 q 1628 -228 1625 -228 l 1628 -225 q 1629 -224 1628 -225 q 1631 -224 1629 -225 q 1632 -225 1632 -224 l 1636 -225 l 1632 -225 q 1628 -228 1631 -228 q 1626 -229 1626 -228 q 1622 -229 1622 -225 q 1622 -228 1621 -229 l 1619 -228 q 1618 -229 1619 -229 q 1614 -229 1618 -229 l 1613 -229 l 1610 -229 l 1613 -229 q 1612 -228 1613 -228 q 1611 -228 1611 -229 q 1612 -227 1611 -225 q 1614 -228 1613 -229 q 1618 -225 1615 -229 q 1619 -228 1619 -225 l 1622 -228 m 1515 -262 q 1514 -265 1515 -264 l 1513 -265 q 1510 -265 1510 -267 q 1508 -265 1510 -262 l 1508 -264 q 1510 -262 1508 -264 l 1510 -265 q 1513 -262 1511 -262 l 1514 -262 l 1515 -262 m 1499 -265 q 1497 -267 1497 -265 l 1497 -262 l 1497 -264 q 1499 -265 1497 -265 m 1531 -257 q 1529 -254 1528 -257 q 1535 -254 1535 -254 q 1531 -257 1535 -256 m 1546 -254 q 1547 -256 1546 -256 q 1546 -256 1546 -258 q 1544 -254 1546 -254 q 1546 -253 1544 -254 l 1546 -254 m 1554 -253 q 1553 -254 1554 -254 q 1553 -256 1553 -254 q 1551 -254 1550 -256 q 1554 -253 1551 -253 m 1543 -254 q 1542 -256 1543 -256 q 1542 -257 1542 -256 q 1542 -254 1539 -254 q 1543 -254 1542 -256 m 1525 -256 q 1527 -255 1526 -256 q 1529 -254 1528 -254 q 1528 -257 1528 -256 l 1526 -257 q 1525 -258 1525 -257 l 1522 -256 q 1524 -255 1524 -254 q 1525 -254 1524 -256 l 1525 -256 m 1503 -260 q 1504 -257 1506 -257 l 1504 -260 l 1503 -260 m 1574 -254 q 1572 -254 1574 -253 q 1573 -253 1572 -253 q 1574 -251 1574 -253 l 1576 -251 l 1574 -254 m 1565 -254 q 1565 -253 1567 -253 q 1569 -251 1567 -251 q 1571 -254 1571 -251 q 1565 -254 1571 -254 m 1561 -251 q 1564 -252 1563 -253 q 1564 -254 1565 -251 q 1561 -251 1560 -254 m 1478 -275 q 1476 -274 1475 -276 q 1479 -272 1478 -272 q 1478 -275 1479 -274 m 1526 -261 q 1526 -262 1528 -261 q 1528 -261 1528 -262 q 1528 -262 1528 -262 q 1528 -265 1529 -262 q 1526 -264 1526 -265 l 1526 -262 q 1519 -265 1525 -265 q 1518 -265 1519 -265 l 1518 -262 q 1521 -262 1519 -261 q 1524 -261 1522 -262 q 1525 -262 1524 -262 q 1526 -261 1526 -262 m 1508 -272 q 1511 -269 1511 -269 l 1511 -272 l 1508 -272 m 1603 -257 q 1599 -258 1600 -258 q 1594 -258 1597 -257 l 1590 -258 q 1594 -257 1593 -257 q 1596 -256 1594 -257 l 1596 -257 l 1596 -256 l 1604 -256 l 1604 -257 q 1603 -258 1604 -258 q 1603 -257 1603 -258 m 1585 -258 l 1585 -257 q 1589 -256 1589 -257 q 1589 -258 1589 -256 l 1585 -258 m 1536 -261 q 1535 -262 1536 -262 l 1529 -262 q 1531 -261 1529 -261 l 1533 -261 l 1535 -260 l 1536 -261 m 1578 -254 q 1578 -252 1579 -251 q 1576 -251 1576 -253 q 1579 -250 1578 -251 l 1579 -251 q 1578 -254 1579 -254 m 1558 -249 q 1558 -247 1560 -249 q 1559 -246 1558 -244 q 1561 -244 1560 -247 l 1561 -249 l 1558 -249 m 1567 -247 q 1564 -244 1563 -250 q 1565 -245 1565 -243 q 1567 -247 1565 -247 m 1631 -240 l 1631 -242 l 1629 -242 q 1631 -239 1629 -240 l 1631 -240 m 1558 -256 q 1557 -251 1553 -256 l 1558 -253 l 1558 -256 m 1553 -249 q 1553 -247 1553 -247 q 1554 -244 1554 -247 l 1554 -250 l 1553 -249 m 1507 -269 q 1506 -272 1507 -271 l 1504 -272 l 1504 -271 q 1507 -269 1504 -271 m 1539 -254 q 1535 -256 1538 -258 q 1536 -254 1535 -254 q 1538 -256 1536 -254 q 1539 -254 1538 -256 m 1622 -247 q 1618 -250 1621 -249 q 1615 -249 1615 -251 q 1619 -249 1619 -249 l 1619 -247 l 1622 -247 m 1610 -243 q 1608 -242 1608 -243 q 1607 -243 1608 -243 l 1607 -242 q 1610 -242 1610 -242 q 1611 -240 1611 -242 q 1613 -242 1613 -240 l 1611 -242 q 1610 -242 1610 -242 l 1610 -243 m 1600 -244 q 1607 -242 1603 -239 q 1603 -243 1604 -243 q 1600 -244 1603 -243 m 1638 -239 q 1637 -240 1638 -240 q 1636 -242 1636 -240 q 1635 -240 1635 -242 q 1636 -239 1635 -239 l 1638 -239 m 1610 -249 q 1604 -250 1608 -251 q 1607 -249 1607 -250 q 1608 -249 1607 -249 l 1610 -249 m 1597 -249 q 1598 -249 1597 -250 q 1599 -251 1599 -249 l 1596 -251 q 1597 -249 1594 -251 m 1589 -250 q 1590 -253 1590 -249 q 1590 -251 1589 -253 q 1589 -250 1590 -250 m 1613 -250 q 1613 -249 1613 -250 l 1613 -250 m 1603 -249 q 1601 -251 1603 -250 l 1601 -249 l 1603 -249 m 1597 -243 q 1592 -244 1594 -246 q 1588 -243 1590 -243 q 1597 -243 1594 -240 m 1546 -260 q 1542 -262 1546 -262 l 1542 -261 q 1546 -260 1546 -257 m 1564 -260 l 1565 -258 q 1569 -259 1568 -258 q 1572 -258 1569 -260 q 1571 -260 1572 -258 l 1567 -260 l 1565 -260 l 1564 -260 m 1551 -261 l 1553 -260 q 1556 -260 1554 -261 q 1558 -261 1558 -258 l 1551 -261 m 1579 -258 q 1574 -258 1574 -258 q 1579 -258 1576 -256 m 1563 -258 q 1562 -260 1563 -260 q 1561 -261 1561 -260 l 1560 -261 q 1563 -258 1560 -258 m 1650 -251 q 1654 -253 1654 -251 l 1656 -251 q 1650 -253 1654 -253 l 1650 -251 m 1636 -254 q 1631 -254 1636 -254 q 1631 -253 1631 -253 q 1632 -253 1632 -254 q 1638 -253 1632 -253 l 1636 -254 m 1540 -261 q 1539 -262 1540 -261 q 1538 -261 1539 -262 q 1540 -261 1539 -260 m 1614 -256 q 1617 -254 1614 -256 l 1615 -256 q 1617 -257 1615 -256 q 1614 -256 1614 -257 m 1611 -254 q 1612 -256 1611 -256 q 1613 -257 1613 -256 q 1610 -256 1610 -257 q 1607 -256 1610 -256 q 1609 -255 1608 -254 q 1611 -254 1610 -256 m 1663 -215 q 1663 -217 1663 -217 q 1664 -218 1664 -217 q 1663 -217 1663 -218 l 1663 -215 m 1694 -212 q 1694 -215 1693 -214 q 1692 -214 1693 -215 q 1694 -212 1692 -212 m 1704 -212 l 1707 -212 l 1707 -214 q 1706 -214 1706 -215 q 1704 -214 1706 -212 l 1704 -212 m 1674 -217 l 1675 -215 q 1679 -214 1679 -215 q 1685 -214 1679 -214 l 1685 -215 q 1683 -217 1685 -215 q 1682 -215 1683 -215 l 1682 -217 l 1674 -217 m 1610 -228 q 1609 -229 1610 -229 q 1608 -231 1608 -229 q 1604 -229 1604 -231 q 1610 -225 1608 -226 l 1610 -228 m 1597 -231 l 1600 -231 l 1600 -229 q 1601 -229 1600 -229 l 1600 -231 q 1601 -230 1601 -231 q 1603 -229 1601 -229 l 1601 -231 l 1600 -231 l 1597 -231 m 1456 -275 q 1457 -274 1456 -275 l 1457 -275 q 1456 -276 1456 -275 l 1456 -275 m 1444 -275 q 1446 -275 1444 -276 l 1446 -276 q 1447 -274 1444 -276 q 1449 -276 1447 -276 q 1446 -278 1449 -275 q 1444 -276 1446 -278 l 1443 -276 l 1444 -275 m 1463 -272 q 1464 -274 1463 -274 q 1463 -275 1464 -275 q 1463 -276 1463 -275 l 1461 -276 l 1461 -274 q 1463 -272 1461 -274 m 1450 -275 q 1454 -275 1451 -274 q 1451 -276 1453 -275 q 1450 -278 1451 -276 q 1449 -275 1450 -276 l 1450 -275 m 1471 -275 q 1469 -276 1469 -276 q 1465 -276 1468 -275 q 1465 -276 1465 -276 q 1466 -275 1465 -275 q 1467 -274 1467 -275 q 1468 -272 1467 -272 q 1468 -274 1468 -272 q 1469 -275 1469 -274 q 1471 -272 1469 -274 q 1474 -272 1471 -272 l 1475 -272 q 1472 -275 1475 -272 l 1471 -275 m 1567 -240 q 1565 -239 1565 -240 l 1567 -237 l 1568 -239 l 1567 -240 m 1563 -239 q 1562 -240 1563 -240 q 1561 -242 1561 -239 q 1560 -241 1560 -242 q 1560 -240 1561 -240 q 1561 -239 1560 -239 l 1563 -239 m 1578 -237 q 1581 -237 1578 -237 q 1576 -239 1578 -240 q 1572 -240 1574 -237 l 1572 -237 q 1578 -237 1575 -240 m 1669 -231 q 1669 -230 1668 -231 q 1668 -229 1669 -229 q 1671 -231 1671 -226 l 1669 -231 m 1658 -231 q 1660 -231 1661 -231 q 1657 -232 1658 -232 q 1654 -232 1656 -231 q 1651 -232 1653 -233 q 1653 -229 1653 -231 q 1656 -231 1656 -229 l 1657 -231 l 1658 -231 m 1633 -233 q 1629 -235 1631 -233 q 1626 -233 1628 -236 q 1631 -232 1626 -232 q 1633 -232 1633 -232 l 1633 -233 m 1621 -236 q 1620 -235 1619 -236 q 1619 -233 1621 -233 q 1621 -233 1621 -233 q 1622 -232 1621 -232 q 1621 -236 1622 -236 m 1639 -231 q 1644 -231 1642 -233 l 1646 -232 q 1642 -234 1644 -235 q 1638 -233 1639 -233 q 1639 -231 1639 -232 m 1575 -247 q 1574 -247 1575 -247 q 1574 -244 1574 -244 q 1575 -243 1575 -244 l 1575 -246 l 1575 -247 m 1668 -239 q 1667 -237 1667 -239 q 1669 -236 1667 -236 q 1668 -239 1669 -236 m 1588 -244 q 1586 -246 1588 -246 q 1583 -247 1585 -247 q 1584 -246 1583 -246 q 1585 -244 1585 -246 l 1585 -243 q 1588 -244 1586 -243 m 1600 -243 q 1599 -244 1600 -243 q 1598 -243 1597 -244 q 1600 -242 1599 -242 l 1600 -243 m 1663 -239 q 1661 -237 1663 -239 q 1663 -237 1663 -236 q 1663 -239 1664 -237 m 1628 -242 q 1622 -242 1624 -243 q 1619 -243 1621 -240 l 1618 -243 q 1619 -240 1618 -242 q 1624 -240 1621 -242 q 1628 -240 1626 -239 l 1628 -242 m 1513 -251 q 1511 -252 1511 -251 q 1510 -253 1511 -253 q 1510 -251 1511 -251 q 1511 -250 1510 -251 q 1513 -250 1511 -250 l 1513 -251 m 1528 -250 q 1526 -251 1528 -251 q 1528 -249 1526 -251 l 1528 -250 m 1553 -247 q 1547 -249 1551 -249 q 1544 -249 1544 -249 q 1547 -247 1546 -247 q 1549 -244 1547 -247 q 1553 -247 1551 -247 m 1529 -250 q 1531 -249 1531 -250 q 1533 -249 1531 -249 l 1535 -250 l 1535 -249 q 1539 -247 1538 -249 l 1539 -249 q 1531 -251 1539 -249 q 1529 -250 1533 -250 m 1574 -244 q 1571 -249 1571 -250 l 1569 -247 q 1571 -243 1569 -244 q 1572 -244 1572 -244 q 1574 -244 1572 -243 m 1617 -237 q 1615 -236 1615 -237 l 1615 -233 q 1617 -237 1617 -233 m 1676 -224 l 1675 -224 q 1676 -221 1675 -221 l 1676 -222 l 1676 -224 m 1672 -221 q 1671 -224 1672 -221 q 1669 -223 1671 -222 q 1668 -222 1668 -224 q 1672 -221 1669 -221 m 1667 -224 q 1666 -223 1665 -224 q 1665 -222 1667 -222 q 1658 -224 1663 -225 q 1661 -222 1658 -222 l 1664 -222 q 1667 -221 1665 -222 l 1667 -222 l 1667 -224 m 1540 -243 q 1538 -242 1539 -243 q 1535 -243 1538 -240 q 1535 -242 1535 -243 q 1538 -242 1535 -242 q 1540 -240 1538 -242 l 1540 -243 m 1614 -233 q 1611 -237 1614 -235 q 1610 -236 1611 -236 q 1610 -233 1608 -236 l 1614 -233 m 1607 -236 q 1604 -237 1607 -237 q 1607 -236 1604 -237 m 1557 -239 q 1556 -240 1557 -240 q 1556 -242 1556 -240 q 1553 -240 1551 -242 q 1555 -240 1554 -240 q 1557 -239 1556 -239 m 1674 -231 q 1674 -229 1674 -229 q 1675 -228 1675 -229 l 1676 -228 q 1676 -229 1676 -229 q 1675 -231 1675 -229 q 1674 -231 1675 -229 m 1596 -236 q 1600 -233 1599 -236 l 1601 -236 q 1599 -237 1600 -239 q 1596 -237 1597 -236 l 1596 -236 m 1638 -233 l 1636 -233 l 1636 -232 l 1638 -231 l 1638 -233 m 1582 -239 q 1581 -237 1582 -239 q 1582 -236 1582 -237 q 1583 -237 1583 -236 q 1583 -237 1582 -237 l 1582 -239 m 1544 -242 q 1543 -242 1543 -242 q 1542 -243 1543 -243 q 1545 -240 1543 -240 q 1546 -242 1547 -239 l 1544 -242 m 1647 -233 q 1649 -231 1647 -231 l 1650 -231 q 1649 -233 1649 -232 l 1647 -233 m 1411 -278 q 1365 -284 1388 -282 q 1326 -286 1343 -286 q 1289 -286 1306 -287 q 971 -249 1129 -281 q 657 -176 813 -217 q 352 -89 503 -135 q 49 -6 201 -43 q 40 -7 44 -6 q 33 -8 36 -8 q 37 -6 35 -6 q 38 -4 39 -6 q 34 -3 35 -4 q 32 0 33 -1 q 29 -1 32 -4 l 26 1 q 15 14 19 4 q -1 17 7 17 q -15 21 -8 18 q -22 24 -18 22 q -29 26 -25 25 q -53 33 -40 32 q -76 38 -65 35 q -84 47 -79 43 q -86 57 -89 51 q -87 59 -86 58 q -89 61 -89 60 q -83 64 -86 63 q -82 68 -79 65 q -75 66 -79 67 q -68 68 -71 65 q -69 71 -69 71 q -69 72 -68 71 q -75 73 -74 72 q -79 76 -76 74 q -76 86 -78 81 q -71 93 -74 92 q -72 94 -71 94 q -74 96 -74 93 q -54 93 -65 93 q -54 96 -54 96 q -58 95 -56 96 q -61 97 -60 94 q -58 99 -60 99 q -54 100 -56 99 q -58 103 -56 101 q -58 107 -61 104 q -56 104 -60 103 q -51 101 -53 106 q -53 100 -53 101 q -51 99 -53 99 q -47 101 -47 99 q -49 106 -50 104 q -50 108 -49 107 q -45 108 -47 108 q -40 108 -43 107 q -41 113 -39 111 q -40 117 -43 114 q -49 119 -46 119 q -53 122 -51 118 q -37 122 -46 124 q -24 117 -29 121 q -35 117 -31 118 q -23 113 -28 115 q -14 113 -18 110 q -22 118 -17 117 q -29 126 -28 119 q -28 128 -29 126 l -28 129 q -19 132 -25 129 q -31 136 -26 135 q -36 144 -35 138 q -23 147 -29 147 q -11 144 -17 146 q 34 135 13 139 q 78 125 56 132 l 81 128 q 299 56 192 93 q 513 -17 406 19 q 506 25 508 3 q 503 66 504 47 q 503 97 503 85 q 504 110 504 110 q 529 426 511 268 q 576 742 547 583 q 176 754 376 742 q 69 763 122 758 q -37 775 17 768 q -79 781 -56 778 q -111 785 -103 785 l -110 783 q -112 785 -112 783 l -114 785 q -116 784 -115 785 q -118 783 -117 783 l -121 783 l -121 782 q -111 775 -112 774 q -109 771 -110 774 q -107 767 -108 768 q -106 760 -106 763 q -104 754 -106 757 l -104 753 q -102 751 -104 751 q -103 750 -100 751 l -103 749 l -103 750 q -100 740 -96 749 q -94 741 -93 744 q -92 739 -94 738 q -92 736 -93 736 q -90 735 -90 736 q -93 732 -93 732 q -86 728 -86 733 q -78 724 -86 722 q -79 721 -78 724 q -83 719 -83 721 q -80 716 -82 718 q -75 715 -78 714 l -75 718 q -72 714 -75 714 q -75 712 -75 711 q -76 711 -75 713 q -71 706 -78 706 q -72 708 -68 710 q -71 711 -75 707 q -71 711 -74 710 q -71 710 -68 713 q -68 711 -71 710 q -67 709 -67 710 q -67 706 -68 708 q -68 704 -67 706 l -68 703 l -67 704 q -64 700 -64 701 q -67 701 -68 699 q -71 701 -67 704 q -67 696 -68 699 q -64 693 -67 693 q -60 696 -64 692 q -59 695 -61 694 q -60 693 -57 696 q -57 688 -57 694 q -57 686 -56 688 q -58 688 -57 688 q -58 690 -58 688 q -61 688 -60 688 q -62 690 -64 686 q -64 692 -60 693 q -63 691 -65 690 q -64 690 -61 692 l -67 690 q -65 689 -65 688 q -65 688 -65 690 q -68 685 -68 685 q -67 683 -67 685 q -65 682 -68 682 q -64 677 -67 678 q -64 672 -61 676 q -67 676 -67 675 q -69 681 -67 678 q -72 679 -71 679 q -71 678 -72 678 q -72 676 -69 679 q -74 677 -75 675 q -76 679 -74 679 q -74 681 -75 681 q -72 682 -74 681 q -75 681 -74 681 q -83 692 -81 683 l -82 693 l -83 693 q -81 697 -81 696 q -85 694 -81 697 q -86 697 -85 696 q -87 699 -87 697 q -85 700 -85 701 q -83 700 -85 699 q -86 704 -83 703 q -87 703 -89 701 q -87 701 -85 704 q -92 706 -90 703 q -97 713 -94 710 q -99 708 -101 710 q -100 708 -97 706 q -106 713 -106 711 l -107 713 q -108 708 -107 710 q -110 706 -108 706 q -111 704 -111 706 q -104 688 -110 694 q -94 674 -99 681 q -92 672 -93 672 q -90 669 -92 672 q -92 668 -90 668 q -89 662 -90 664 q -87 657 -87 660 q -95 665 -89 663 q -104 674 -101 667 l -103 676 q -110 684 -106 681 q -115 693 -114 688 q -115 694 -115 694 q -114 696 -114 694 q -119 698 -119 694 q -124 700 -118 701 q -125 699 -122 700 q -128 700 -126 699 l -131 700 q -125 693 -125 694 q -126 690 -125 692 q -124 692 -126 689 q -119 684 -124 686 q -114 678 -115 682 q -112 674 -112 676 q -110 674 -112 672 l -111 672 q -100 651 -100 664 q -96 644 -97 647 q -92 636 -94 640 q -87 631 -89 631 q -87 632 -86 632 q -87 633 -89 632 q -82 628 -81 633 q -79 619 -83 622 q -81 617 -82 617 q -83 614 -81 617 q -87 619 -86 617 q -90 622 -87 622 q -90 621 -92 621 q -92 620 -92 619 q -93 619 -92 621 q -94 614 -93 615 q -100 619 -99 615 q -108 625 -101 624 q -108 620 -110 622 q -107 614 -107 618 q -108 613 -108 614 q -110 604 -106 608 q -113 605 -112 604 q -117 604 -114 606 q -117 606 -114 606 q -118 604 -119 604 q -119 603 -117 604 q -121 604 -119 607 q -122 606 -121 606 q -119 607 -121 607 q -120 608 -122 606 q -124 608 -118 611 l -122 610 q -121 613 -122 610 q -122 610 -122 611 q -124 608 -122 608 q -122 610 -124 608 q -131 615 -125 613 l -129 615 q -129 618 -131 615 q -133 615 -132 615 q -135 614 -133 615 l -137 613 q -140 618 -142 613 l -142 615 q -140 618 -139 618 q -140 619 -142 618 q -143 618 -142 618 q -144 619 -143 619 q -143 621 -144 618 q -144 621 -146 619 q -143 624 -143 622 q -146 621 -143 624 q -148 624 -149 622 q -150 625 -147 626 l -150 626 l -150 628 l -151 626 q -151 628 -153 626 q -156 629 -151 629 q -156 630 -156 631 q -157 631 -157 629 l -158 631 l -160 631 l -158 632 q -161 634 -158 633 q -161 640 -164 635 q -164 639 -162 640 q -166 642 -164 642 q -165 644 -168 642 q -168 643 -167 644 q -174 649 -171 649 q -178 654 -176 651 q -186 663 -183 663 q -189 660 -186 661 q -189 660 -192 658 l -187 661 q -193 658 -190 661 q -190 661 -190 658 l -190 663 l -192 663 q -192 662 -193 663 q -194 660 -192 661 l -194 661 q -192 664 -192 664 q -194 663 -193 663 q -193 665 -196 663 q -189 664 -189 665 q -186 663 -189 663 q -185 667 -186 665 q -186 667 -186 668 q -189 665 -186 665 l -187 665 q -185 667 -185 668 q -183 668 -185 667 q -183 670 -185 668 q -182 672 -181 672 q -183 669 -183 669 q -183 668 -182 669 q -185 667 -185 668 q -187 667 -186 667 q -186 669 -185 669 q -187 667 -187 668 q -189 671 -187 668 q -194 672 -190 674 q -194 668 -194 672 q -197 668 -197 667 q -197 668 -196 669 q -199 667 -197 667 q -200 667 -199 668 q -200 669 -201 667 q -201 668 -200 668 l -201 671 l -203 669 q -204 672 -201 672 q -203 674 -204 674 q -203 675 -203 674 l -204 674 q -203 675 -204 675 q -203 676 -203 675 q -206 675 -207 674 q -204 678 -204 676 l -206 676 q -213 681 -211 679 q -218 686 -215 683 q -215 688 -218 686 q -219 689 -221 685 q -221 692 -218 693 l -219 693 q -226 699 -224 694 q -231 706 -228 703 q -232 712 -232 708 q -233 718 -232 715 l -233 719 q -237 722 -235 719 l -239 724 q -272 786 -254 756 q -304 847 -290 817 l -365 968 q -156 924 -237 940 q -18 899 -75 908 q 84 883 39 889 q 186 871 129 878 q 392 853 290 860 q 596 843 493 846 q 606 886 601 864 q 617 932 610 908 q 615 937 614 935 q 618 940 617 939 q 633 997 625 968 q 647 1057 640 1026 q 656 1068 651 1065 q 665 1089 660 1081 q 663 1081 665 1088 q 661 1078 661 1079 q 660 1075 661 1076 q 664 1076 663 1075 q 676 1101 671 1089 q 688 1124 681 1113 q 681 1106 685 1115 q 675 1089 678 1097 q 678 1088 676 1089 q 672 1078 674 1083 q 676 1078 675 1078 q 678 1079 676 1079 q 683 1078 682 1079 q 688 1087 686 1081 q 693 1096 689 1093 q 694 1091 694 1093 q 693 1086 693 1089 q 700 1101 697 1090 q 705 1109 704 1104 q 713 1117 706 1114 q 713 1115 714 1117 q 715 1113 713 1114 q 717 1114 717 1113 l 717 1113 q 718 1111 717 1113 q 719 1114 721 1114 q 722 1114 722 1114 q 728 1117 728 1114 q 732 1122 729 1121 q 733 1119 733 1121 q 747 1141 739 1129 q 761 1164 756 1153 q 767 1167 767 1164 q 771 1169 768 1169 q 772 1168 771 1169 q 781 1171 776 1169 q 789 1175 786 1172 q 786 1169 789 1172 q 786 1163 783 1167 q 789 1163 789 1163 q 788 1160 789 1161 q 788 1157 786 1158 q 789 1157 790 1156 q 790 1158 788 1158 q 784 1150 789 1154 q 782 1139 779 1146 q 776 1136 775 1139 q 778 1131 778 1133 q 774 1121 776 1125 q 769 1113 772 1117 q 758 1089 768 1100 q 758 1085 760 1086 q 758 1082 756 1085 q 760 1083 758 1082 q 762 1082 764 1082 q 764 1081 760 1082 q 763 1082 764 1082 q 765 1082 763 1082 q 763 1074 764 1079 q 760 1067 761 1069 q 756 1059 758 1063 q 756 1050 753 1056 q 756 1054 757 1053 q 758 1058 756 1056 q 764 1062 764 1058 q 767 1068 764 1065 q 776 1090 772 1078 q 790 1108 781 1101 q 792 1097 790 1099 q 801 1118 796 1108 q 813 1138 807 1128 q 815 1134 818 1135 q 813 1132 813 1133 q 814 1131 813 1132 q 810 1122 814 1125 q 807 1114 807 1118 l 808 1113 q 797 1087 806 1100 q 786 1060 789 1074 q 785 1049 785 1054 q 783 1040 785 1044 q 780 1035 782 1039 q 776 1029 778 1032 q 776 1026 776 1028 q 776 1022 775 1025 l 778 1022 q 777 1021 778 1019 q 775 1022 776 1022 q 774 1019 775 1021 q 774 1015 772 1017 q 775 1017 775 1014 q 776 1017 775 1019 q 775 1014 775 1015 l 778 1011 q 765 971 771 992 q 751 928 758 950 q 739 889 747 906 q 738 889 739 888 q 722 842 732 868 q 1080 842 903 839 q 1438 853 1257 846 q 1558 857 1503 856 q 1657 858 1613 858 q 1674 860 1665 860 q 1689 860 1682 860 l 1686 860 q 1689 860 1686 860 l 1692 860 l 1694 860 q 1696 860 1697 860 q 1699 861 1694 861 l 1700 861 l 1699 860 l 1708 860 q 1724 863 1718 860 q 1738 862 1731 863 q 1750 861 1744 861 q 1797 865 1772 863 q 1839 868 1821 867 q 1840 867 1839 868 q 1854 868 1847 867 q 1868 869 1861 869 q 1868 868 1869 868 q 1873 869 1869 868 q 1876 868 1876 871 q 1844 864 1861 865 q 1808 861 1826 863 q 1824 860 1813 860 q 1808 857 1817 857 q 1792 856 1799 857 q 1791 852 1792 853 q 1790 850 1790 851 l 1797 850 q 1790 850 1793 846 q 1788 848 1789 849 q 1785 846 1786 847 q 1799 848 1792 847 q 1814 849 1807 849 q 1829 850 1821 849 q 1844 851 1838 851 q 1851 850 1847 851 q 1858 851 1856 849 q 1874 853 1867 851 q 1888 856 1881 856 q 1886 854 1888 853 q 1885 853 1885 856 l 1894 853 q 1892 851 1892 853 q 1901 851 1894 850 q 1911 853 1907 853 q 1899 849 1904 851 q 1889 844 1893 847 l 1890 844 q 1885 843 1888 843 q 1881 842 1882 843 q 1838 836 1858 839 q 1800 831 1817 833 l 1801 831 q 1804 829 1803 831 q 1793 828 1799 828 q 1783 825 1788 828 l 1785 825 q 1782 824 1783 822 q 1779 822 1781 825 q 1782 822 1779 822 q 1781 822 1783 821 q 1779 821 1779 822 q 1781 820 1779 819 q 1782 819 1783 821 q 1769 816 1776 815 q 1756 814 1761 817 q 1742 814 1749 814 q 1729 811 1736 814 l 1742 811 q 1727 810 1736 810 q 1711 808 1718 810 q 1708 806 1714 806 q 1710 807 1708 806 q 1706 806 1707 807 l 1707 806 q 1698 805 1703 803 q 1688 806 1693 807 q 1685 804 1688 803 l 1686 804 l 1682 804 q 1683 803 1682 803 q 1685 803 1685 804 l 1681 803 q 1702 802 1692 803 q 1722 804 1713 801 l 1722 803 q 1749 804 1735 803 q 1778 807 1764 806 q 1722 801 1749 803 q 1664 794 1694 799 q 1681 795 1672 794 q 1701 796 1690 796 q 1710 799 1706 797 q 1717 797 1714 800 q 1685 794 1704 796 q 1650 792 1665 793 q 1588 790 1618 790 q 1525 790 1557 790 q 1494 788 1508 788 q 1469 786 1481 788 q 1447 785 1457 785 q 1072 760 1258 771 q 696 743 886 749 q 624 427 654 586 q 574 106 593 268 q 565 27 568 63 q 557 -33 561 -8 q 622 -56 589 -44 q 686 -76 654 -67 q 988 -165 838 -126 q 1290 -215 1138 -203 q 1421 -222 1365 -222 q 1504 -219 1476 -221 q 1531 -217 1517 -218 q 1556 -215 1544 -217 q 1554 -217 1556 -217 q 1566 -215 1560 -215 q 1578 -215 1572 -215 q 1588 -215 1581 -215 q 1600 -214 1594 -214 l 1601 -214 q 1613 -212 1604 -212 q 1625 -211 1618 -212 l 1626 -211 l 1632 -211 l 1636 -211 l 1635 -211 l 1636 -211 q 1624 -212 1631 -212 q 1610 -214 1617 -212 l 1615 -214 q 1600 -216 1608 -215 q 1582 -218 1592 -217 l 1575 -218 q 1574 -219 1575 -218 l 1561 -219 q 1576 -219 1568 -219 q 1590 -218 1583 -218 q 1589 -219 1590 -218 q 1596 -218 1593 -219 q 1604 -218 1599 -218 q 1613 -217 1610 -218 q 1629 -217 1622 -217 q 1646 -214 1636 -217 q 1650 -214 1646 -214 q 1647 -215 1649 -215 q 1656 -214 1653 -215 q 1651 -215 1653 -215 q 1647 -217 1650 -215 q 1649 -218 1647 -217 q 1646 -219 1649 -219 l 1646 -218 l 1643 -218 l 1640 -218 q 1643 -218 1640 -218 q 1640 -219 1640 -221 q 1636 -219 1639 -217 l 1635 -219 q 1633 -221 1635 -219 q 1632 -219 1632 -221 l 1631 -219 q 1629 -221 1631 -219 l 1629 -219 q 1626 -220 1628 -219 q 1622 -221 1625 -221 q 1618 -222 1621 -221 l 1618 -221 l 1615 -221 l 1613 -221 l 1611 -222 l 1610 -222 l 1608 -222 l 1607 -222 q 1600 -224 1603 -224 q 1594 -225 1597 -224 l 1596 -224 l 1596 -225 l 1597 -225 q 1590 -228 1594 -228 q 1582 -229 1586 -228 l 1572 -229 l 1576 -229 q 1569 -231 1574 -231 q 1561 -231 1564 -231 l 1563 -231 q 1560 -232 1563 -229 q 1562 -231 1561 -231 q 1560 -232 1563 -231 l 1561 -232 l 1558 -232 l 1563 -232 l 1567 -232 q 1568 -231 1567 -232 l 1569 -231 l 1567 -232 l 1571 -232 l 1571 -231 q 1576 -231 1576 -231 l 1575 -232 l 1578 -232 q 1583 -231 1578 -231 l 1583 -229 q 1589 -229 1589 -229 q 1588 -231 1589 -231 l 1590 -231 l 1590 -229 l 1590 -231 q 1594 -229 1593 -229 l 1593 -231 l 1594 -231 l 1593 -231 l 1592 -231 q 1590 -232 1590 -231 q 1593 -231 1590 -231 q 1590 -232 1593 -232 l 1593 -232 l 1590 -232 l 1589 -232 l 1588 -232 l 1590 -232 l 1590 -231 l 1585 -231 q 1583 -232 1583 -231 l 1582 -232 l 1581 -232 l 1582 -232 l 1579 -232 l 1578 -232 l 1572 -232 l 1572 -233 q 1571 -232 1571 -233 q 1567 -233 1569 -232 l 1572 -233 l 1567 -233 l 1565 -233 l 1567 -233 l 1565 -233 l 1558 -233 l 1564 -233 q 1536 -237 1551 -237 q 1518 -239 1524 -237 l 1517 -239 l 1518 -239 l 1524 -239 l 1526 -239 l 1535 -239 q 1533 -238 1532 -237 q 1536 -237 1535 -239 l 1536 -239 q 1559 -237 1547 -237 q 1585 -233 1571 -236 q 1597 -232 1594 -233 q 1591 -233 1596 -233 q 1582 -236 1586 -233 l 1572 -236 q 1557 -237 1567 -237 q 1535 -240 1546 -239 q 1513 -242 1524 -240 q 1511 -243 1513 -242 q 1515 -243 1515 -239 l 1518 -243 q 1519 -242 1518 -242 l 1519 -243 l 1524 -243 l 1519 -243 l 1519 -244 q 1518 -247 1518 -244 l 1517 -244 q 1518 -243 1517 -243 l 1515 -243 l 1515 -244 l 1510 -244 l 1510 -243 q 1507 -247 1510 -242 q 1504 -249 1506 -249 q 1501 -251 1503 -250 q 1503 -250 1501 -250 q 1503 -251 1503 -251 q 1506 -250 1506 -251 l 1507 -250 l 1506 -253 q 1503 -253 1504 -251 q 1499 -254 1501 -254 q 1501 -253 1500 -253 q 1500 -251 1501 -251 l 1499 -253 l 1499 -254 q 1494 -254 1499 -254 q 1483 -258 1492 -256 l 1483 -260 q 1486 -258 1483 -260 q 1488 -257 1488 -258 q 1488 -258 1489 -257 q 1492 -258 1492 -258 l 1493 -257 q 1497 -258 1493 -257 q 1499 -257 1497 -258 l 1500 -258 q 1501 -257 1500 -258 q 1501 -258 1501 -258 q 1500 -260 1500 -258 q 1499 -259 1499 -260 q 1497 -258 1499 -258 q 1494 -260 1494 -258 q 1492 -261 1493 -261 q 1490 -260 1492 -260 l 1489 -261 q 1488 -260 1488 -261 q 1488 -260 1489 -260 q 1482 -261 1485 -261 q 1481 -261 1481 -262 l 1475 -261 q 1469 -264 1472 -262 q 1463 -267 1465 -265 l 1465 -267 q 1467 -268 1465 -267 q 1472 -267 1469 -265 q 1481 -265 1475 -268 l 1481 -267 q 1483 -267 1481 -267 q 1485 -265 1485 -267 l 1485 -267 l 1488 -267 l 1488 -265 q 1489 -267 1488 -265 q 1492 -265 1489 -265 q 1492 -266 1493 -265 q 1493 -267 1492 -267 q 1492 -267 1492 -267 q 1490 -268 1492 -268 q 1490 -266 1492 -265 q 1488 -268 1489 -267 q 1483 -269 1488 -265 q 1481 -269 1483 -264 q 1478 -269 1478 -269 q 1475 -268 1478 -268 l 1474 -268 l 1474 -269 l 1472 -269 l 1471 -268 q 1467 -269 1469 -271 q 1464 -271 1465 -268 q 1462 -270 1463 -271 q 1460 -269 1461 -269 q 1456 -270 1457 -272 q 1453 -271 1456 -268 l 1453 -269 l 1451 -271 q 1447 -271 1451 -271 q 1429 -275 1438 -274 q 1411 -278 1421 -276 m 1571 -229 q 1558 -231 1565 -231 q 1564 -230 1561 -231 q 1571 -229 1567 -229 m 1554 -233 l 1556 -233 q 1557 -232 1556 -232 l 1554 -232 l 1554 -233 m 1549 -232 q 1550 -233 1549 -233 q 1551 -233 1551 -232 l 1549 -233 l 1551 -233 q 1553 -232 1551 -233 l 1551 -232 q 1553 -232 1551 -232 l 1549 -232 m 1540 -236 l 1546 -236 l 1547 -236 l 1556 -236 l 1556 -233 l 1553 -233 q 1547 -236 1551 -236 l 1546 -236 l 1540 -236 m 1701 811 q 1715 809 1707 808 q 1729 811 1724 810 q 1715 811 1722 813 q 1701 811 1708 810 m 1776 825 q 1780 824 1779 825 q 1782 825 1781 822 l 1776 825 m 756 1050 q 752 1047 753 1050 q 750 1043 751 1044 l 751 1042 q 756 1050 758 1042 m 721 1113 q 718 1107 719 1113 q 721 1113 721 1107 m 693 1086 q 688 1076 690 1081 l 690 1076 q 693 1086 693 1082 m -108 626 q -111 628 -108 631 q -108 626 -112 626 m -112 629 q -111 628 -112 628 q -112 629 -111 631 m -83 697 l -85 697 l -83 697 q -86 699 -83 699 q -83 697 -83 700 m -68 708 q -68 708 -67 710 q -68 706 -69 706 q -68 708 -69 704 m -76 681 q -75 683 -74 683 q -74 683 -76 682 q -72 683 -74 683 l -71 683 q -74 682 -72 683 q -76 681 -75 681 m -78 692 q -78 690 -79 690 q -79 688 -76 690 q -76 688 -78 688 q -78 686 -75 689 l -76 686 l -75 685 q -74 688 -74 686 q -75 686 -75 685 q -76 686 -75 688 q -75 690 -74 690 q -76 693 -76 690 l -78 692 m -78 693 q -79 693 -78 693 q -78 692 -82 692 l -76 693 l -78 693 m -178 665 q -177 667 -178 667 q -176 668 -176 667 q -178 665 -176 668 q -177 666 -179 664 q -175 667 -175 668 q -176 668 -175 669 q -179 667 -176 668 q -179 666 -181 665 q -178 665 -178 667 m -178 675 q -175 678 -174 676 l -178 675 m -156 674 q -153 674 -153 674 q -151 675 -153 675 q -153 674 -151 676 q -153 675 -156 672 q -157 674 -156 674 l -156 674 m -199 676 q -197 677 -197 676 q -196 678 -197 678 q -201 676 -196 676 q -201 676 -203 675 q -201 675 -200 676 q -198 677 -200 676 q -199 676 -196 678 m -183 678 q -181 673 -185 674 q -175 669 -178 672 q -178 674 -178 672 q -181 679 -178 676 l -179 679 q -185 683 -183 679 q -189 690 -186 688 q -186 692 -189 692 q -187 692 -185 693 q -189 690 -189 692 q -194 697 -192 693 q -200 704 -197 700 q -199 708 -200 706 l -200 707 q -201 706 -200 706 q -204 711 -204 711 l -208 711 q -206 708 -208 710 q -203 704 -204 706 q -204 703 -203 704 q -194 688 -197 699 q -193 685 -189 688 q -188 683 -192 682 q -187 678 -185 683 q -185 678 -189 678 q -185 676 -182 679 l -183 678 m -169 657 q -168 659 -167 658 q -171 660 -169 660 q -169 663 -171 661 q -173 664 -174 661 q -179 664 -172 667 q -175 661 -175 664 q -175 657 -175 658 q -174 658 -172 658 q -174 660 -176 657 q -174 656 -169 660 l -171 656 l -169 657 m -168 651 q -167 656 -165 656 q -168 657 -168 656 q -169 654 -171 654 q -168 651 -167 654 m -156 647 q -154 649 -156 649 q -153 650 -153 649 q -156 647 -156 649 l -157 647 l -156 647 m -168 669 q -160 660 -164 667 q -150 649 -157 653 q -150 650 -149 650 q -149 651 -151 650 q -151 652 -151 650 q -151 656 -150 654 q -155 658 -154 657 q -158 661 -156 660 l -157 661 l -157 663 q -162 669 -160 664 q -169 676 -165 674 q -169 674 -171 675 q -174 669 -169 674 q -169 672 -171 672 q -169 669 -167 672 q -169 669 -171 668 q -169 668 -168 669 q -168 669 -169 668 m -147 646 q -146 647 -149 646 q -148 647 -149 644 q -150 649 -147 650 q -149 647 -151 646 q -150 644 -147 647 q -149 645 -149 644 q -147 646 -149 646 m -147 646 q -144 639 -146 642 q -140 633 -143 636 q -142 641 -140 639 q -147 646 -144 643 m -140 625 q -142 622 -143 622 q -139 624 -142 621 l -137 625 l -139 625 q -140 624 -140 625 q -139 626 -140 625 l -140 626 q -140 625 -143 624 m -132 621 q -135 622 -137 618 q -140 622 -133 625 q -135 619 -140 619 q -137 617 -137 618 q -133 619 -137 615 l -132 621 m -133 629 q -134 629 -133 631 q -135 629 -135 628 q -135 628 -137 628 q -133 629 -133 629 m -133 693 q -133 691 -135 690 q -133 690 -132 692 l -133 692 l -132 693 l -133 693 m -132 661 q -131 663 -131 661 l -132 663 l -133 661 l -132 661 m -128 651 q -128 649 -131 649 q -126 647 -125 649 q -125 650 -124 650 q -128 651 -126 650 m -125 647 q -126 646 -126 646 q -124 647 -125 646 q -124 648 -125 647 q -125 647 -122 649 m -126 642 q -124 640 -124 642 q -121 642 -124 639 q -123 644 -121 644 q -124 646 -125 644 q -126 643 -126 644 q -124 644 -126 642 l -126 642 m -115 633 q -117 631 -118 631 q -114 632 -115 632 q -113 633 -111 633 q -115 633 -115 632 m -117 632 q -117 638 -114 638 q -119 640 -119 638 q -119 636 -122 638 q -117 632 -115 635 m -117 678 q -119 679 -115 679 q -121 676 -119 678 q -117 678 -121 678 m -124 683 q -124 680 -126 681 q -122 678 -122 679 q -121 679 -121 678 l -121 681 q -123 681 -124 678 q -124 683 -122 683 m -124 683 q -127 688 -126 686 q -131 693 -128 690 l -133 690 q -130 686 -129 690 q -124 683 -131 682 m -135 696 q -135 699 -129 699 l -133 699 l -140 699 l -142 699 q -135 696 -137 694 m -89 710 q -90 705 -92 706 q -86 703 -89 704 q -89 710 -86 708 m -83 710 q -90 719 -86 713 q -100 728 -93 725 l -103 728 l -100 725 l -103 725 l -103 724 q -98 719 -100 721 q -94 715 -96 718 q -100 716 -101 713 q -104 718 -99 719 l -104 715 q -100 711 -100 715 q -94 714 -97 714 q -94 713 -92 714 q -90 710 -90 708 q -91 713 -87 714 q -92 715 -94 713 q -88 713 -89 715 q -83 710 -87 711 m -82 18 q -86 21 -85 19 q -90 25 -87 22 q -74 21 -82 21 q -60 14 -67 21 q -67 14 -64 14 q -71 10 -71 14 q -83 13 -76 10 q -90 19 -89 15 q -85 19 -87 21 q -82 18 -83 17 m -64 26 q -48 24 -57 28 q -29 17 -39 19 q -14 13 -22 14 q -1 8 -6 13 q -37 17 -17 11 q -75 25 -57 22 q -75 28 -75 25 q -70 30 -72 31 q -67 32 -68 29 q -64 26 -67 29 m -39 126 q -46 125 -40 125 q -51 126 -51 125 q -45 127 -49 128 q -39 126 -42 126 m -31 129 q -39 127 -33 128 q -47 129 -44 126 q -39 132 -44 132 q -31 129 -33 132 m -56 13 q -57 14 -57 13 q -51 13 -56 14 q -43 10 -46 11 q -40 8 -40 8 q -43 8 -39 7 q -49 10 -46 10 q -56 13 -53 10 m -22 151 q -14 154 -19 153 q -3 153 -8 156 q -4 151 -6 153 q 15 148 6 149 q 35 144 24 147 q 36 144 38 144 q 33 144 35 143 q 28 144 31 143 q 24 144 25 146 q 36 141 31 142 q 44 138 42 140 q 20 142 32 140 q -7 146 8 144 q -10 148 -10 147 q -12 150 -10 149 q -22 151 -22 150 m 32 -22 q 21 -20 29 -22 q 8 -15 13 -18 q 22 -18 15 -17 q 32 -22 29 -19 m 132 124 q 126 124 129 124 q 126 122 124 125 q 93 132 111 129 q 60 138 75 135 q 63 139 63 138 q 67 142 64 140 q 100 133 86 136 q 132 124 114 131 m 192 107 q 186 108 186 107 q 192 107 192 108 m 219 92 q 225 90 225 92 q 219 92 219 90 m -67 13 q -66 9 -67 10 q -65 13 -65 8 q -62 10 -62 10 q -60 8 -61 10 q -60 7 -60 8 q -66 8 -62 6 q -67 13 -69 10 m -15 158 q -20 156 -18 158 q -24 160 -22 154 q -18 160 -21 161 q -15 158 -15 160 m 15 4 q 9 3 14 3 q 4 7 4 4 q 15 4 15 4 m 72 -33 q 95 -41 83 -39 q 118 -46 107 -43 q 131 -51 128 -49 q 117 -47 122 -49 q 94 -42 104 -44 q 72 -33 83 -40 m 154 118 q 152 117 154 117 q 153 117 150 117 q 165 116 160 115 q 174 113 169 117 q 161 113 169 113 q 150 117 153 114 q 144 117 147 117 q 142 118 142 117 q 150 118 147 121 l 154 118 z "}}}
